<?xml version="1.0" encoding="utf-8"?>
<!-- Generator: Adobe Illustrator 19.0.1, SVG Export Plug-In . SVG Version: 6.00 Build 0)  -->
<svg version="1.1" id="Layer_1" xmlns:sketch="http://www.bohemiancoding.com/sketch/ns"
	 xmlns="http://www.w3.org/2000/svg" xmlns:xlink="http://www.w3.org/1999/xlink" x="0px" y="0px" viewBox="-211 100.5 144 84"
	 style="enable-background:new -211 100.5 144 84;" xml:space="preserve">
<style type="text/css">
	.st0{fill:#FFFFFF;}
	.st1{enable-background:new    ;}
</style>
<title>award #1: rolling stone</title>
<desc>Created with Sketch.</desc>
<g id="Famous" sketch:type="MSPage">
	<g id="famous_game" transform="translate(-472.000000, -598.000000)" sketch:type="MSArtboardGroup">
		<g id="awards-white-horizontal" transform="translate(472.000000, 595.000000)" sketch:type="MSLayerGroup">
			<g id="award-_x23_1:-rolling-stone" transform="translate(0.000000, 3.096774)">
				<g id="laurel" sketch:type="MSShapeGroup">
					<g id="right-branch" transform="translate(108.274662, 0.000000)">
						<g id="Fill-1">
							<path class="st0" d="M-206.4,100.7c0,0,5.1,1.3,6.9,3.7c1.9,2.4,1.1,3.6,1.1,3.6s-3.1,0.3-5.3-2.1
								C-205.8,103.5-206.4,100.7-206.4,100.7"/>
						</g>
						<g id="Fill-2">
							<path class="st0" d="M-195.8,101.4c0,0,4.6,4,4.6,8.8c0,3.3-1.2,3.4-1.2,3.4s-2.9-1.6-3.4-5S-195.8,101.4-195.8,101.4"/>
						</g>
						<g id="Fill-3">
							<path class="st0" d="M-194,113.1c0,0-1.7-2.8-4.7-2.8c-3,0-3,0.6-4.5,0.6c0.7,1.4,3,3.5,4.9,3.5
								C-194.7,114.4-194,113.1-194,113.1"/>
						</g>
						<g id="Fill-4">
							<path class="st0" d="M-187.9,109.5c0,0,2.3,4,2.3,9c0,3.5-1.6,4.3-1.6,4.3s-2.3-1.9-2.3-7.2
								C-189.6,110.2-187.9,109.5-187.9,109.5"/>
						</g>
						<g id="Fill-5">
							<path class="st0" d="M-189.1,120.7c0,0,0-1.5-1.6-3.1c-1.6-1.6-7.6-1.3-7.6-1.3s2.3,4,5.2,4.5
								C-190.2,121.4-189.1,120.7-189.1,120.7"/>
						</g>
						<g id="Fill-6">
							<path class="st0" d="M-182,119.2c0,0,1,2.2,1,6.8c0,4.6-3,6.8-3,6.8s-1-0.1-1-6.8C-185.1,122.2-182,119.2-182,119.2"/>
						</g>
						<g id="Fill-7">
							<path class="st0" d="M-185.9,130.3c0,0,0.4-3-3.4-5.5c-3.8-2.4-5-2.1-5-2.1s1.6,5.9,5.1,7.2
								C-185.7,131.2-185.9,130.3-185.9,130.3"/>
						</g>
						<g id="Fill-8">
							<path class="st0" d="M-177.7,130.6c0,0-3.5,2.9-4.5,5.6c-0.5,1.3-0.8,4.1-0.9,7.2c0,0.9,3.8-2.4,4.5-4.8
								C-178.4,137.9-177.2,135.7-177.7,130.6"/>
						</g>
						<g id="Fill-9">
							<path class="st0" d="M-190.9,130.9c0,0-1,5.3,2.7,8.4c2,1.7,4,2.5,4,2.5s0.7-4-2.3-7C-188.5,132.8-189.7,131.5-190.9,130.9"
								/>
						</g>
						<g id="Fill-10">
							<path class="st0" d="M-176,144.2c0,0-1.3,5.8-3.3,7.9c-2,2.2-4.1,2.5-4.5,2.4c-0.5-0.1-0.2-3.7,2.4-6.6
								C-178.9,144.9-176,144.2-176,144.2"/>
						</g>
						<g id="Fill-11">
							<path class="st0" d="M-189.6,140.1c0,0,3.9,4.9,4.3,6.2c0.4,1.3,1.2,3.8,0.3,6.4c-1.6,0-3.6-3.3-4-4.4
								C-189.3,147.3-190.6,144-189.6,140.1"/>
						</g>
						<g id="Fill-12">
							<path class="st0" d="M-190,150.2c0,0,2.3,5.3,2.7,8.8c0.3,2.7-1.7,4.9-1.7,4.9s-2.7-3.6-2.7-7.5
								C-191.7,152.5-190,150.2-190,150.2"/>
						</g>
						<g id="Fill-13">
							<path class="st0" d="M-178.3,158.7c0,0-1.1,3.6-4.5,6.2c-3.4,2.7-6,0.9-6,0.9s1.5-4.3,4.7-6
								C-180.8,158.2-178.3,158.7-178.3,158.7"/>
						</g>
						<g id="Fill-14">
							<path class="st0" d="M-192.8,158.6c0,0-3.3,4.2-3.3,7.8c0,3.6,1,5.4,1,5.4s3-1.3,3.1-6.3
								C-191.8,160.6-192.8,158.6-192.8,158.6"/>
						</g>
						<g id="Fill-15">
							<path class="st0" d="M-183.7,171.4c0,0-3-1.6-6.7-0.9c-3.7,0.7-5.2,3.5-5.2,3.5s1,1.9,4.2,1.8
								C-188,175.7-183.7,171.4-183.7,171.4"/>
						</g>
						<g id="Fill-16">
							<path class="st0" d="M-197.8,167c0,0-4.3,1.7-5.3,6c-1,4.3-0.3,4.8-0.3,4.8s3.3,0.1,4.6-4.8
								C-197.5,168.1-197.8,167-197.8,167"/>
						</g>
						<g id="Fill-17">
							<path class="st0" d="M-190.7,180.7c0,0-3.9-3.4-7.5-3.1c-3.6,0.3-4.8,2-4.8,2s0.8,3.3,5.1,3.3
								C-193.4,182.8-190.7,180.7-190.7,180.7"/>
						</g>
						<g id="Fill-18">
							<path class="st0" d="M-210.7,181.6c0,0,9.6,1.4,22-16.2c8.4-11.9,5.1-32.4,3.2-37.5c-0.3-0.7-1.9-5.8-4.7-10.2
								c-3.9-6.3-8.4-9.8-8.4-9.8s7.6,8.1,10.2,13.9c4.1,9.1,4.4,19.5,4.4,22.3c0,4.6-1.2,12.2-3.2,16.4
								c-8.7,18.4-23.2,20.2-23.2,20.2L-210.7,181.6"/>
						</g>
					</g>
					<g id="left-branch">
						<g id="Fill-19">
							<path class="st0" d="M-180.4,100.7c0,0-5.1,1.3-6.9,3.7c-1.9,2.4-1.1,3.6-1.1,3.6s3.1,0.3,5.3-2.1
								C-181,103.5-180.4,100.7-180.4,100.7"/>
						</g>
						<g id="Fill-20">
							<path class="st0" d="M-191,101.4c0,0-4.6,4-4.6,8.8c0,3.3,1.2,3.4,1.2,3.4s2.9-1.6,3.4-5C-190.5,105.1-191,101.4-191,101.4"
								/>
						</g>
						<g id="Fill-21">
							<path class="st0" d="M-192.8,113.1c0,0,1.7-2.8,4.7-2.8c3,0,3,0.6,4.5,0.6c-0.7,1.4-3,3.5-4.9,3.5
								C-192.1,114.4-192.8,113.1-192.8,113.1"/>
						</g>
						<g id="Fill-22">
							<path class="st0" d="M-198.9,109.5c0,0-2.3,4-2.3,9c0,3.5,1.6,4.3,1.6,4.3s2.3-1.9,2.3-7.2
								C-197.2,110.2-198.9,109.5-198.9,109.5"/>
						</g>
						<g id="Fill-23">
							<path class="st0" d="M-197.7,120.7c0,0,0-1.5,1.6-3.1c1.6-1.6,7.6-1.3,7.6-1.3s-2.3,4-5.2,4.5
								C-196.6,121.4-197.7,120.7-197.7,120.7"/>
						</g>
						<g id="Fill-24">
							<path class="st0" d="M-204.8,119.2c0,0-1,2.2-1,6.8c0,4.6,3,6.8,3,6.8s1-0.1,1-6.8C-201.7,122.2-204.8,119.2-204.8,119.2"/>
						</g>
						<g id="Fill-25">
							<path class="st0" d="M-200.9,130.3c0,0-0.4-3,3.4-5.5c3.8-2.4,5-2.1,5-2.1s-1.6,5.9-5.1,7.2
								C-201.1,131.2-200.9,130.3-200.9,130.3"/>
						</g>
						<g id="Fill-26">
							<path class="st0" d="M-209.1,130.6c0,0,3.5,2.9,4.5,5.6c0.5,1.3,0.8,4.1,0.9,7.2c0,0.9-3.8-2.4-4.5-4.8
								C-208.4,137.9-209.6,135.7-209.1,130.6"/>
						</g>
						<g id="Fill-27">
							<path class="st0" d="M-195.9,130.9c0,0,1,5.3-2.7,8.4c-2,1.7-4,2.5-4,2.5s-0.7-4,2.3-7C-198.3,132.8-197,131.5-195.9,130.9"
								/>
						</g>
						<g id="Fill-28">
							<path class="st0" d="M-210.8,144.2c0,0,1.3,5.8,3.3,7.9c2,2.2,4.1,2.5,4.5,2.4c0.5-0.1,0.2-3.7-2.4-6.6
								C-207.9,144.9-210.8,144.2-210.8,144.2"/>
						</g>
						<g id="Fill-29">
							<path class="st0" d="M-197.2,140.1c0,0-3.9,4.9-4.3,6.2c-0.4,1.3-1.2,3.8-0.3,6.4c1.6,0,3.6-3.3,4-4.4
								C-197.5,147.3-196.2,144-197.2,140.1"/>
						</g>
						<g id="Fill-30">
							<path class="st0" d="M-196.8,150.2c0,0-2.3,5.3-2.7,8.8c-0.3,2.7,1.7,4.9,1.7,4.9s2.7-3.6,2.7-7.5
								C-195.1,152.5-196.8,150.2-196.8,150.2"/>
						</g>
						<g id="Fill-31">
							<path class="st0" d="M-208.5,158.7c0,0,1.1,3.6,4.5,6.2c3.4,2.7,6,0.9,6,0.9s-1.5-4.3-4.7-6
								C-206,158.2-208.5,158.7-208.5,158.7"/>
						</g>
						<g id="Fill-32">
							<path class="st0" d="M-194,158.6c0,0,3.3,4.2,3.3,7.8c0,3.6-1,5.4-1,5.4s-3-1.3-3.1-6.3C-195,160.6-194,158.6-194,158.6"/>
						</g>
						<g id="Fill-33">
							<path class="st0" d="M-203.1,171.4c0,0,3-1.6,6.7-0.9c3.7,0.7,5.2,3.5,5.2,3.5s-1,1.9-4.2,1.8
								C-198.8,175.7-203.1,171.4-203.1,171.4"/>
						</g>
						<g id="Fill-34">
							<path class="st0" d="M-189,167c0,0,4.3,1.7,5.3,6c1,4.3,0.3,4.8,0.3,4.8s-3.3,0.1-4.6-4.8C-189.2,168.1-189,167-189,167"/>
						</g>
						<g id="Fill-35">
							<path class="st0" d="M-196.1,180.7c0,0,3.9-3.4,7.5-3.1c3.6,0.3,4.8,2,4.8,2s-0.8,3.3-5.1,3.3
								C-193.4,182.8-196.1,180.7-196.1,180.7"/>
						</g>
						<g id="Fill-36">
							<path class="st0" d="M-176.1,181.6c0,0-9.6,1.4-22-16.2c-8.4-11.9-5.1-32.4-3.2-37.5c0.3-0.7,1.9-5.8,4.7-10.2
								c3.9-6.3,8.4-9.8,8.4-9.8s-7.6,8.1-10.2,13.9c-4.1,9.1-4.4,19.5-4.4,22.3c0,4.6,1.2,12.2,3.2,16.4
								c8.7,18.4,23.2,20.2,23.2,20.2L-176.1,181.6"/>
						</g>
					</g>
				</g>
				<g id="rolling-stone-logo">
					<path sketch:type="MSShapeGroup" class="st0" d="M-139.2,133.3c-1.2,0-2.2-0.3-3.1-0.9c-0.3-0.3-0.5-0.6-0.6-0.9
						c0-0.9,1-1.5,1.8-1.9c0.1,0,0.2-0.1,0.2-0.1l0.6-0.3l-0.7,0l-3.9,0l0.1-0.6c0.4,0,0.7-0.2,0.9-0.5l0,0l0,0l0.1-0.2l0,0l0,0
						l0.5-3.1l0,0l0,0c0-0.4-0.1-0.7-0.4-0.9l0,0l0,0c-0.1,0-0.2-0.1-0.4-0.1c-0.2,0-0.5,0.1-0.8,0.2c-0.4,0.3-0.7,0.8-0.8,1.3
						l-0.4,2.5l0,0l0,0c0,0.2,0.1,0.4,0.2,0.5l0,0l0,0c0.1,0.1,0.2,0.2,0.4,0.2l-0.1,0.6h-3.5l0.1-0.5c0.4,0,0.6-0.2,0.8-0.5l0,0
						l0,0c0.2-0.7,0.3-1.4,0.4-2c0-0.3,0.1-0.5,0.1-0.8c0-0.2-0.1-0.4-0.3-0.5l0,0l0,0c-0.1,0-0.1,0-0.2,0c-0.1,0-0.2,0-0.3,0
						c-0.1-0.2-0.3-0.3-0.4-0.5l3.7-2.3l-0.2,1.9l0.3-0.3c0.2-0.1,0.3-0.3,0.5-0.5c0.5-0.4,1-0.9,1.5-1.1c0.2,0,0.3-0.1,0.5-0.1
						c0.3,0,0.7,0.1,1,0.3c0.3,0.3,0.4,0.6,0.4,1l-0.6,4.4l0,0v0c0,0.4,0.2,0.7,0.5,0.8c0.2,0.1,0.3,0.1,0.5,0.1h0.1l0-0.1
						c0.1-0.4,0.3-0.9,0.8-1.1c0.2-0.1,0.3-0.2,0.5-0.2l0.2-0.1l-0.1-0.2c-0.1-0.1-0.1-0.2-0.2-0.3c-0.1-0.1-0.1-0.1-0.2-0.2l0,0
						l0,0c-0.5-0.7-0.6-1.8-0.2-2.7c0.5-1.1,1.6-1.8,2.8-1.9c0.1,0,0.3,0,0.4,0c1,0,1.9,0.4,2.7,1.3l0.2,0.2l0.1-0.2
						c0.5-0.8,1.2-1.3,2-1.4l-0.4,1.7c-0.1,0-0.2,0-0.3,0c-0.3,0-0.8,0-1.2,0.4c-0.3,0.4-0.4,0.8-0.6,1.2c-0.1,0.4-0.3,0.8-0.5,1.1
						l0,0l0,0c-0.6,0.9-1.4,1.3-2.5,1.3c-0.2,0-0.3,0-0.5,0c-0.3-0.1-0.6-0.1-0.9-0.2l-0.1,0l-0.1,0.1c-0.1,0.2-0.2,0.6,0,0.9l0,0
						l0,0c0.2,0.4,0.6,0.4,0.9,0.4c0.1,0,0.3,0,0.4,0c0.1,0,0.2,0,0.3,0c0.1,0,0.3,0,0.4,0c0.4,0,0.8-0.1,1.2-0.1
						c0.7,0,1.2,0.1,1.5,0.4c0.2,0.2,0.3,0.4,0.3,0.6c-0.2,1.4-1.5,2.5-2.6,3.1C-137,133.1-138.1,133.3-139.2,133.3L-139.2,133.3z
						 M-140.3,129.6l-0.1,0.1l-0.3,0.4l0,0l0,0c-0.4,0.5-0.5,1.2-0.2,1.7l0,0l0,0c0.3,0.5,0.8,0.6,1.2,0.7l0,0l0,0
						c0.2,0,0.3,0,0.5,0c1.2,0,2.3-0.4,3.1-1.1l0,0l0,0c0.2-0.3,0.3-0.6,0.2-0.9l0,0l0,0c-0.1-0.3-0.4-0.4-0.8-0.5l0,0l0,0
						c-0.6,0.1-1,0.1-1.4,0.1c-0.8,0-1.4-0.1-1.9-0.4L-140.3,129.6L-140.3,129.6z M-136.6,122.5c-0.1,0-0.1,0-0.2,0l0,0l0,0
						c-0.6,0.2-0.8,0.8-1,1.4l0,0.1l0,0l0,0c0,0.1,0,0.2-0.1,0.4c-0.1,0.6-0.2,1.3,0.2,1.9l0,0l0,0c0.2,0.2,0.4,0.3,0.7,0.3
						c0.1,0,0.2,0,0.3,0l0,0l0,0c0.4-0.2,0.6-0.6,0.8-1l0,0l0,0l0,0c0-0.1,0-0.2,0.1-0.2c0.2-0.7,0.4-1.5,0.1-2.2l0,0l0,0
						C-135.9,122.7-136.2,122.5-136.6,122.5L-136.6,122.5z M-163.2,133.1c-1.7,0-3.6-0.6-5.2-1.6c-2.2-1.4-3.9-3.8-4.7-6.5l0-0.1
						h-1.1l0,0.1l0,0.1l0,0l0,0l-0.5,2.9c-0.1,0.4,0.1,0.7,0.4,0.9c0.2,0.1,0.5,0.2,0.7,0.2c0,0.2-0.1,0.3-0.1,0.5
						c0,0.1,0,0.2-0.1,0.3h-5.4l0.1-0.9c0.1,0,0.2,0,0.3,0c0.7,0,1.1-0.2,1.4-0.7l0,0l0,0l0.2-0.4l0,0l0,0l1.6-8.7l0,0v-0.2h-0.2
						c-0.7,0-1.5,0.1-2.2,0.7l-0.2,0.1l0.2,0.1c0.1,0.1,0.5,0.4,0.4,0.9c-0.1,0.4-0.6,0.7-0.9,0.7c-0.1,0-0.1,0-0.2,0
						c-0.5,0-0.9-0.2-1.1-0.6c-0.2-0.4-0.1-1,0.1-1.3c0.8-1,2.1-1.3,3.4-1.5l0.1,0l0.1,0c1-0.1,2.1-0.2,3.1-0.2
						c1.4,0,2.5,0.2,3.4,0.5c0.7,0.3,1.4,0.9,1.7,1.6l0,0l0,0c0.5,0.9,0.3,2.3-0.5,3.2c-0.6,0.6-1.2,1-2,1.2l-0.1,0l0,0.2
						c0.2,2.7,2.2,5.5,4.9,6.6c0.5,0.2,1.4,0.5,2.3,0.5c0.7,0,1.3-0.2,1.7-0.5c0.4-0.3,0.5-0.7,0.5-1.1c0-0.3-0.1-0.5-0.4-0.7l0,0
						l0,0c-0.3-0.2-0.7-0.3-1.1-0.3c0-0.2,0.1-0.3,0.1-0.5c0,0,0-0.1,0-0.1c0.4,0,0.7-0.2,0.9-0.5l0,0l0,0l0.1-0.2l0,0l0,0l1-6.1
						l0,0v0c0-0.1,0-0.3-0.2-0.5c-0.1-0.1-0.2-0.1-0.3-0.1c-0.1,0-0.2,0-0.3,0.1l-0.3-0.6l3.7-2.4l-1.5,9.5c0,0.2,0.1,0.4,0.1,0.4
						l0,0l0,0c0.2,0.2,0.4,0.3,0.6,0.3c0,0.1,0,0.3-0.1,0.5c0,0.1,0,0.1,0,0.2c-0.1,0-0.2,0-0.3,0c-0.2,0-0.3,0-0.5,0
						c-0.4,0-0.7,0-1,0l-0.6,0l0.5,0.3l0,0c0.5,0.3,1.2,0.7,1.1,1.4l0,0l0,0c0,0.8-0.8,1.3-1,1.5
						C-161.2,132.9-162.2,133.1-163.2,133.1L-163.2,133.1z M-173.3,119l-0.8,5l0.2,0c0,0,0.1,0,0.1,0c1.7,0,3-0.7,3.5-1.9
						c0.3-0.6,0.3-1.5-0.1-2.1c-0.7-1-1.9-1-2.7-1L-173.3,119L-173.3,119z M-128.1,130.7c0,0-0.1,0-0.1,0c-0.6,0-1-0.2-1.6-0.4
						c-0.4-0.2-0.9-0.4-1.4-0.4l0,0h0c-0.2,0-0.4,0.2-0.5,0.4l0,0l0,0l0,0.2l-0.6,0.2l-1.2-3.5l0.8-0.3c0.5,1.2,1.7,2.4,3.2,2.4
						c0.1,0,0.2,0,0.3,0c0.8,0,1.5-0.4,1.9-1.1c0.4-0.7,0.2-1.7-0.5-2.6c-0.3-0.3-0.6-0.7-0.9-1c-1-1.1-2-2.2-1.9-3.6
						c0-1,0.6-1.9,1.4-2.5c0.4-0.3,1-0.4,1.6-0.4c0.2,0,0.4,0,0.7,0.1c0.2,0,0.4,0.1,0.6,0.2c0.3,0.1,0.7,0.2,1.1,0.2
						c0.3,0,0.6-0.2,0.8-0.5h0.7l-0.6,3.5h-0.8c0.2-1-0.1-1.8-0.8-2.2c-0.3-0.2-0.6-0.3-1-0.3c-0.3,0-0.6,0.1-0.8,0.2
						c-0.5,0.2-0.8,0.7-0.8,1.1c-0.1,0.7,0.3,1.2,0.6,1.6l2.8,3.2c0.7,0.9,0.8,2.4,0.2,3.5l0,0l0,0
						C-125.5,129.9-126.7,130.7-128.1,130.7L-128.1,130.7z M-122.4,129.5c-0.1,0-0.1,0-0.2,0c-0.5-0.1-1.1-0.5-1.2-1
						c-0.2-0.7-0.1-1.6,0-2.3l0.5-2.6l0-0.2l-0.2,0l-0.9,0l0.1-0.5l3.3-2.1c0,0.2-0.1,0.4-0.1,0.6c0,0.3-0.1,0.6-0.1,0.9l0,0.2
						l0.2,0l2,0l-0.4,1.1c-0.3-0.1-0.6-0.1-0.9-0.1c-0.1,0-0.2,0-0.3,0c-0.1,0-0.2,0-0.3,0c-0.1,0-0.2,0-0.3,0l-0.2,0l-0.6,3.4
						c-0.1,0.5,0.1,1,0.5,1.3l0,0l0,0c0.1,0.1,0.3,0.1,0.4,0.1c0.4,0,0.8-0.2,1.1-0.4c0.2-0.1,0.3-0.2,0.5-0.3l0.1-0.1l0-0.1
						c-0.3-2,0.3-3.6,1.7-4.6c0.7-0.5,1.5-0.8,2.3-0.8c0.4,0,0.8,0.1,1.2,0.3c0.6,0.3,1.1,0.9,1.5,1.9l0.1,0.2l0.2-0.1l3.6-2.3
						l-0.2,1.2l0,0.3l0.3-0.2l0,0l0,0l0,0l0,0c0.7-0.7,1.5-1.4,2.4-1.4c0.2,0,0.5,0,0.7,0.1c0.4,0.2,0.6,0.6,0.6,1.1
						c-0.1,1-0.2,1.9-0.4,2.8c-0.1,0.6-0.2,1.3-0.3,2c0,0.2,0,0.4,0.2,0.5l0,0l0,0c0.2,0.2,0.4,0.2,0.6,0.3c0,0.3-0.1,0.5-0.1,0.8
						h-3.7l0-0.3l0.1-0.5c0.4,0,0.7-0.2,0.9-0.5l0,0l0,0l0.1-0.3l0,0l0,0l0.5-2.9c0-0.3,0-0.6-0.2-0.8c-0.2-0.2-0.4-0.3-0.7-0.3
						c-0.1,0-0.2,0-0.3,0c-0.7,0.2-1.1,1-1.1,1.6l-0.4,2.4l0,0l0,0c0,0.2,0.1,0.4,0.2,0.5l0,0l0,0c0.1,0.1,0.2,0.1,0.3,0.2l-0.1,0.8
						h-3.8l0.1-0.7c0,0,0,0,0,0c0.4,0,0.7-0.1,1-0.4l0,0l0,0l0.2-0.3l0,0l0,0l0.4-2.5c0-0.2-0.1-0.4-0.3-0.5l0,0l0,0
						c-0.1,0-0.2,0-0.2,0c-0.3,0-0.5,0.2-0.7,0.4c0,0-0.1,0.1-0.1,0.1l-0.1,0l0,0.1c-0.2,1.5-1,3.3-2.7,4c-0.3,0.1-0.6,0.2-0.9,0.2
						c-1,0-1.9-0.6-2.5-1.2l-0.1-0.1l-0.1,0.1l0,0C-120.2,128.8-121.2,129.5-122.4,129.5L-122.4,129.5z M-115.7,122.5
						c-0.3,0-0.5,0.1-0.8,0.3l0,0l0,0c-0.7,0.8-0.8,1.9-1,2.9c0,0.1,0,0.2,0,0.3l0,0l0,0c0,0.1,0,0.2,0,0.2c0,0.7-0.1,1.4,0.5,1.9
						l0,0l0,0c0.2,0.1,0.3,0.1,0.5,0.1c0.2,0,0.4-0.1,0.6-0.2l0,0l0,0c0.6-0.5,0.7-1.1,0.8-1.8c0-0.2,0.1-0.4,0.1-0.5l0,0l0,0
						c0-0.1,0-0.2,0-0.3c0.1-0.8,0.3-1.8,0-2.6l0,0l0,0c-0.1-0.2-0.3-0.3-0.5-0.4C-115.5,122.6-115.6,122.5-115.7,122.5
						L-115.7,122.5z M-165.7,129.3c-0.3,0-0.5,0-0.8-0.1c-1.1-0.3-1.9-1.5-2.1-2.5c-0.3-1.6,0.5-3.2,2-4.2c0.6-0.5,1.5-0.7,2.2-0.7
						c0.5,0,0.9,0.1,1.3,0.3c0.4,0.2,0.9,0.7,1.1,1.2c0.7,1.5,0.3,3.4-1,4.7C-163.5,128.5-164.5,129.3-165.7,129.3L-165.7,129.3z
						 M-164.7,122.6c-0.2,0-0.4,0-0.5,0.1l0,0l0,0c-0.7,0.5-0.9,1.3-1.1,2.1c0,0.1,0,0.2-0.1,0.2l0,0l0,0c0,0.1,0,0.3-0.1,0.4
						c-0.1,0.8-0.3,1.6,0,2.4l0,0l0,0c0.2,0.3,0.5,0.4,0.8,0.4c0,0,0.1,0,0.1,0c0.9-0.1,1.2-1,1.3-1.7c0-0.1,0.1-0.3,0.1-0.4l0,0
						l0,0c0-0.1,0.1-0.3,0.1-0.5c0.2-0.9,0.4-1.9,0-2.8C-164,122.8-164.3,122.6-164.7,122.6L-164.7,122.6z M-154.3,129.2h-3.7
						l0.1-0.6c0.5,0,0.8-0.3,1-0.7l0,0l0,0l0.1-0.6l0.9-5.2c0-0.3,0-0.5-0.1-0.6c-0.1-0.1-0.2-0.2-0.4-0.2c-0.1,0-0.2,0-0.3,0l0,0
						l0,0c0,0,0,0,0,0l-0.3-0.6l3.8-2.5l-1.5,9.5l0,0v0c0,0.2,0.1,0.4,0.2,0.5c0.1,0.1,0.3,0.2,0.4,0.2L-154.3,129.2L-154.3,129.2z
						 M-153.7,129.2l0.1-0.5c0.4,0,0.9-0.2,1.1-0.7l0,0l0,0l0.4-2.6l0,0v0c0-0.2-0.1-0.4-0.3-0.5c-0.1,0-0.2-0.1-0.3-0.1
						c-0.1,0-0.2,0-0.2,0l-0.3-0.7l3.7-2.3l-1,5.7c-0.1,0.3,0,0.5,0.2,0.7l0,0l0,0c0.2,0.2,0.5,0.3,0.7,0.3c0,0.1,0,0.3-0.1,0.4
						c0,0,0,0.1,0,0.1L-153.7,129.2L-153.7,129.2z M-101.4,129.1c-0.6,0-1.1-0.1-1.5-0.4c-1.1-0.7-1.7-1.9-1.5-3.4
						c0.2-1.4,1.2-3.2,2.9-3.7c0.3-0.1,0.6-0.1,0.9-0.1c0.9,0,1.6,0.4,2,1.1c0.2,0.5,0.4,0.9,0.5,1.4l-4.2,2l-0.1,0.1l0,0.1
						c0.1,0.4,0.4,1.4,1.2,1.7c0.2,0.1,0.3,0.1,0.5,0.1c0.4,0,0.7-0.1,1-0.4l0.3-0.4l0.2-0.2l-0.2-0.1l0,0c-0.3-0.1-0.5-0.2-0.5-0.4
						l0,0l0,0c0-0.3,0.2-0.6,0.4-0.7c0.1-0.1,0.3-0.1,0.5-0.1c0.1,0,0.2,0,0.3,0.1l0,0l0,0c0.2,0.1,0.4,0.3,0.5,0.7
						c0,1-0.6,1.7-1.1,2.1C-99.9,128.9-100.6,129.1-101.4,129.1L-101.4,129.1z M-101.1,122.5c-0.2,0-0.3,0-0.5,0.1l0,0l0,0
						c-0.9,0.5-0.9,1.6-0.9,2.5l0,0.3l0.2-0.1l2.1-1l0.1,0v-0.1c0-0.4,0-0.8-0.2-1.2C-100.4,122.6-100.7,122.5-101.1,122.5
						L-101.1,122.5z M-150.8,121.2c-0.1,0-0.1,0-0.2,0c-0.2,0-0.5-0.2-0.6-0.4c-0.1-0.5,0.1-1,0.5-1.3c0.3-0.2,0.8-0.5,1.3-0.5
						c0.3,0,0.6,0.1,0.7,0.4c0.2,0.5,0,0.9-0.3,1.2C-149.8,121-150.3,121.2-150.8,121.2L-150.8,121.2z"/>
				</g>
				<g class="st1">
					<path class="st0" d="M-171.4,151.6c0,0.3-0.1,0.6-0.2,0.8c-0.1,0.2-0.2,0.4-0.4,0.6c-0.2,0.2-0.4,0.3-0.6,0.4s-0.5,0.1-0.7,0.1
						h-2.9v-7h2.6c0.3,0,0.6,0,0.9,0.1c0.3,0.1,0.5,0.2,0.6,0.4s0.3,0.4,0.4,0.6c0.1,0.2,0.1,0.5,0.1,0.7c0,0.1,0,0.3-0.1,0.4
						s-0.1,0.3-0.2,0.4c-0.1,0.1-0.2,0.3-0.3,0.4c-0.1,0.1-0.3,0.2-0.5,0.3v0c0.2,0,0.4,0.1,0.5,0.2s0.3,0.2,0.4,0.4
						c0.1,0.2,0.2,0.3,0.2,0.5C-171.4,151.3-171.4,151.5-171.4,151.6z M-175.4,147.4v2.3h1.6c0.4,0,0.7-0.1,1-0.3
						c0.2-0.2,0.3-0.5,0.3-0.8c0-0.3-0.1-0.6-0.3-0.8c-0.2-0.2-0.5-0.3-1-0.3H-175.4z M-175.4,150.4v2.4h1.8c0.2,0,0.4,0,0.6-0.1
						c0.2-0.1,0.3-0.2,0.4-0.3c0.1-0.1,0.2-0.2,0.2-0.4c0.1-0.1,0.1-0.3,0.1-0.4s0-0.3-0.1-0.4c-0.1-0.1-0.1-0.3-0.2-0.4
						c-0.1-0.1-0.2-0.2-0.4-0.3c-0.2-0.1-0.4-0.1-0.6-0.1H-175.4z"/>
					<path class="st0" d="M-170.3,153.6v-7h4.4v0.8h-3.5v2.2h3v0.8h-3v2.3h3.5v0.8H-170.3z"/>
					<path class="st0" d="M-160.4,151.6c0,0.3-0.1,0.6-0.2,0.9s-0.3,0.5-0.5,0.6c-0.2,0.2-0.5,0.3-0.8,0.4c-0.3,0.1-0.6,0.1-1,0.1
						c-0.2,0-0.4,0-0.7-0.1s-0.5-0.1-0.7-0.2s-0.5-0.2-0.7-0.3c-0.2-0.1-0.4-0.3-0.6-0.4l0.6-0.7c0.3,0.3,0.6,0.5,1,0.6
						c0.4,0.1,0.8,0.2,1.2,0.2c0.2,0,0.4,0,0.6-0.1c0.2,0,0.4-0.1,0.5-0.2c0.1-0.1,0.2-0.2,0.3-0.4c0.1-0.2,0.1-0.3,0.1-0.5
						c0-0.2,0-0.4-0.1-0.5c-0.1-0.1-0.2-0.2-0.4-0.3c-0.1-0.1-0.3-0.2-0.5-0.2s-0.4-0.1-0.6-0.1c-0.3-0.1-0.5-0.1-0.8-0.2
						c-0.3-0.1-0.5-0.2-0.7-0.3c-0.2-0.1-0.4-0.3-0.5-0.5c-0.1-0.2-0.2-0.5-0.2-0.9c0-0.3,0.1-0.6,0.2-0.8c0.1-0.2,0.3-0.4,0.5-0.6
						c0.2-0.2,0.5-0.3,0.7-0.4c0.3-0.1,0.6-0.1,0.9-0.1c0.5,0,0.9,0.1,1.2,0.2c0.4,0.1,0.7,0.3,1,0.5l-0.5,0.8
						c-0.3-0.2-0.5-0.3-0.8-0.4c-0.3-0.1-0.6-0.2-0.9-0.2c-0.5,0-0.8,0.1-1.1,0.3s-0.4,0.5-0.4,0.8c0,0.2,0,0.3,0.1,0.5
						c0.1,0.1,0.2,0.2,0.4,0.3c0.2,0.1,0.4,0.2,0.6,0.2s0.5,0.1,0.8,0.2c0.2,0,0.4,0.1,0.7,0.2c0.2,0.1,0.4,0.2,0.6,0.3
						c0.2,0.1,0.3,0.3,0.5,0.5C-160.5,150.9-160.4,151.2-160.4,151.6z"/>
					<path class="st0" d="M-157.3,147.4v6.2h-0.9v-6.2h-2v-0.8h4.8v0.8H-157.3z"/>
					<path class="st0" d="M-150.3,152c0.1-0.3,0.2-0.6,0.3-1c0.1-0.3,0.2-0.6,0.3-1l1.1-3.5h1l-2.3,7h-0.7l-2.3-7h1l1.1,3.5
						L-150.3,152L-150.3,152z"/>
					<path class="st0" d="M-146.9,153.6v-7h0.9v7H-146.9z"/>
					<path class="st0" d="M-142.2,146.6c0.5,0,1,0.1,1.4,0.3c0.4,0.2,0.7,0.5,1,1c0.1,0.3,0.2,0.6,0.2,0.9c0,0.3,0,0.7,0,1.2
						c0,0.5,0,0.9,0,1.3c0,0.4-0.1,0.7-0.2,1c-0.1,0.3-0.3,0.5-0.4,0.7c-0.2,0.2-0.4,0.3-0.6,0.4c-0.2,0.1-0.5,0.2-0.7,0.2
						c-0.3,0-0.5,0.1-0.8,0.1h-2.1v-7H-142.2z M-140.4,149.4c0-0.4,0-0.7-0.1-1s-0.2-0.5-0.4-0.6c-0.2-0.2-0.3-0.3-0.6-0.3
						s-0.5-0.1-0.7-0.1h-1.4v5.3h1.4c0.3,0,0.6,0,0.8-0.1c0.2-0.1,0.4-0.2,0.6-0.4c0.1-0.2,0.2-0.4,0.3-0.6c0.1-0.2,0.1-0.5,0.1-0.8
						V149.4z"/>
					<path class="st0" d="M-138.3,153.6v-7h4.4v0.8h-3.5v2.2h3v0.8h-3v2.3h3.5v0.8H-138.3z"/>
					<path class="st0" d="M-130.6,146.5c0.4,0,0.7,0.1,1,0.2c0.3,0.1,0.6,0.3,0.8,0.5c0.2,0.2,0.4,0.5,0.5,0.8s0.2,0.7,0.2,1v1.9
						c0,0.4-0.1,0.8-0.2,1.1c-0.1,0.3-0.3,0.6-0.5,0.8s-0.5,0.4-0.8,0.5c-0.3,0.1-0.6,0.2-1,0.2c-0.4,0-0.8-0.1-1.1-0.2
						c-0.3-0.1-0.6-0.3-0.8-0.6c-0.2-0.2-0.4-0.5-0.5-0.8c-0.1-0.3-0.1-0.6-0.1-1v-1.9c0-0.3,0-0.7,0.1-1c0.1-0.3,0.3-0.6,0.5-0.8
						c0.2-0.2,0.5-0.4,0.8-0.6C-131.4,146.6-131.1,146.5-130.6,146.5z M-130.6,147.4c-0.3,0-0.5,0-0.7,0.2c-0.2,0.1-0.4,0.2-0.5,0.4
						c-0.1,0.2-0.2,0.4-0.3,0.6c-0.1,0.2-0.1,0.4-0.1,0.7v1.9c0,0.2,0,0.5,0.1,0.7c0.1,0.2,0.2,0.4,0.3,0.6c0.1,0.2,0.3,0.3,0.5,0.4
						c0.2,0.1,0.4,0.2,0.7,0.2c0.2,0,0.5,0,0.7-0.1c0.2-0.1,0.4-0.2,0.5-0.4c0.1-0.2,0.2-0.4,0.3-0.6s0.1-0.5,0.1-0.7v-1.9
						c0-0.2,0-0.5-0.1-0.7s-0.2-0.4-0.3-0.6c-0.1-0.2-0.3-0.3-0.5-0.4C-130.2,147.4-130.4,147.4-130.6,147.4z"/>
					<path class="st0" d="M-122.4,152.8c0.2,0,0.4,0,0.6-0.1c0.2-0.1,0.4-0.2,0.5-0.4c0.1-0.2,0.3-0.3,0.3-0.5
						c0.1-0.2,0.1-0.4,0.1-0.6v-0.5h-1.5v-0.8h2.3v1.4c0,0.4-0.1,0.7-0.2,1s-0.3,0.6-0.5,0.8c-0.2,0.2-0.5,0.4-0.8,0.5
						c-0.3,0.1-0.6,0.2-1,0.2c-0.4,0-0.8-0.1-1.1-0.2c-0.3-0.1-0.6-0.3-0.8-0.6s-0.4-0.5-0.5-0.8s-0.2-0.6-0.2-1v-1.9
						c0-0.3,0-0.7,0.1-1c0.1-0.3,0.2-0.6,0.4-0.8c0.2-0.2,0.5-0.4,0.8-0.6c0.3-0.1,0.7-0.2,1.1-0.2c0.6,0,1,0.1,1.4,0.4
						s0.7,0.6,0.9,1.1l-0.8,0.4c-0.1-0.3-0.3-0.5-0.5-0.7c-0.3-0.2-0.6-0.3-0.9-0.3c-0.3,0-0.5,0-0.7,0.2c-0.2,0.1-0.4,0.2-0.5,0.4
						c-0.1,0.2-0.2,0.4-0.3,0.6c-0.1,0.2-0.1,0.4-0.1,0.6v1.9c0,0.2,0,0.5,0.1,0.7c0.1,0.2,0.2,0.4,0.3,0.6c0.1,0.2,0.3,0.3,0.5,0.4
						S-122.7,152.8-122.4,152.8z"/>
					<path class="st0" d="M-114.5,153.6l-0.6-1.6h-2.9l-0.6,1.6h-0.9l2.5-7h0.8l2.5,7H-114.5z M-115.9,149.3l-0.5-1.5h0l-0.5,1.4
						l-0.7,2h2.4L-115.9,149.3z"/>
					<path class="st0" d="M-107.5,153.6v-5l0,0l-0.5,1.3l-1.2,2.6h-0.8l-1.2-2.7l-0.5-1.2l0,0v4.9h-0.9v-7h0.9l1.5,3.2l0.7,1.6h0
						l0.7-1.6l1.5-3.3h0.9v7H-107.5z"/>
					<path class="st0" d="M-105.2,153.6v-7h4.4v0.8h-3.5v2.2h3v0.8h-3v2.3h3.5v0.8H-105.2z"/>
				</g>
				<g>
				</g>
				<g class="st1">
					<path class="st0" d="M-160.9,160.5c0.4,0,0.7,0.1,1,0.2c0.3,0.1,0.6,0.3,0.8,0.5c0.2,0.2,0.4,0.5,0.5,0.8s0.2,0.7,0.2,1v1.9
						c0,0.4-0.1,0.8-0.2,1.1c-0.1,0.3-0.3,0.6-0.5,0.8s-0.5,0.4-0.8,0.5c-0.3,0.1-0.6,0.2-1,0.2c-0.4,0-0.8-0.1-1.1-0.2
						c-0.3-0.1-0.6-0.3-0.8-0.6s-0.4-0.5-0.5-0.8s-0.1-0.6-0.1-1v-1.9c0-0.3,0-0.7,0.1-1s0.3-0.6,0.5-0.8c0.2-0.2,0.5-0.4,0.8-0.6
						C-161.7,160.6-161.3,160.5-160.9,160.5z M-160.9,161.4c-0.3,0-0.5,0-0.7,0.2c-0.2,0.1-0.4,0.2-0.5,0.4
						c-0.1,0.2-0.2,0.4-0.3,0.6c-0.1,0.2-0.1,0.4-0.1,0.7v1.9c0,0.2,0,0.5,0.1,0.7c0.1,0.2,0.2,0.4,0.3,0.6c0.1,0.2,0.3,0.3,0.5,0.4
						c0.2,0.1,0.4,0.2,0.7,0.2c0.2,0,0.5,0,0.7-0.1c0.2-0.1,0.4-0.2,0.5-0.4c0.1-0.2,0.2-0.4,0.3-0.6c0.1-0.2,0.1-0.5,0.1-0.7v-1.9
						c0-0.2,0-0.5-0.1-0.7c-0.1-0.2-0.2-0.4-0.3-0.6c-0.1-0.2-0.3-0.3-0.5-0.4C-160.4,161.4-160.6,161.4-160.9,161.4z"/>
					<path class="st0" d="M-152.7,165.6c0,0.3-0.1,0.6-0.2,0.9s-0.3,0.5-0.5,0.6c-0.2,0.2-0.5,0.3-0.8,0.4c-0.3,0.1-0.6,0.1-1,0.1
						c-0.2,0-0.4,0-0.7-0.1s-0.5-0.1-0.7-0.2s-0.5-0.2-0.7-0.3c-0.2-0.1-0.4-0.3-0.6-0.4l0.6-0.7c0.3,0.3,0.6,0.5,1,0.6
						c0.4,0.1,0.8,0.2,1.2,0.2c0.2,0,0.4,0,0.6-0.1c0.2,0,0.4-0.1,0.5-0.2c0.1-0.1,0.2-0.2,0.3-0.4c0.1-0.2,0.1-0.3,0.1-0.5
						c0-0.2,0-0.4-0.1-0.5c-0.1-0.1-0.2-0.2-0.4-0.3c-0.1-0.1-0.3-0.2-0.5-0.2s-0.4-0.1-0.6-0.1c-0.3-0.1-0.5-0.1-0.8-0.2
						c-0.3-0.1-0.5-0.2-0.7-0.3c-0.2-0.1-0.4-0.3-0.5-0.5c-0.1-0.2-0.2-0.5-0.2-0.9c0-0.3,0.1-0.6,0.2-0.8c0.1-0.2,0.3-0.4,0.5-0.6
						c0.2-0.2,0.5-0.3,0.7-0.4c0.3-0.1,0.6-0.1,0.9-0.1c0.5,0,0.9,0.1,1.2,0.2c0.4,0.1,0.7,0.3,1,0.5l-0.5,0.8
						c-0.3-0.2-0.5-0.3-0.8-0.4c-0.3-0.1-0.6-0.2-0.9-0.2c-0.5,0-0.8,0.1-1.1,0.3s-0.4,0.5-0.4,0.8c0,0.2,0,0.3,0.1,0.5
						c0.1,0.1,0.2,0.2,0.4,0.3c0.2,0.1,0.4,0.2,0.6,0.2s0.5,0.1,0.8,0.2c0.2,0,0.4,0.1,0.7,0.2c0.2,0.1,0.4,0.2,0.6,0.3
						c0.2,0.1,0.3,0.3,0.5,0.5C-152.8,164.9-152.7,165.2-152.7,165.6z"/>
					<path class="st0" d="M-149.6,161.4v6.2h-0.9v-6.2h-2v-0.8h4.8v0.8H-149.6z"/>
					<path class="st0" d="M-140.4,167.6l-0.6-1.6h-2.9l-0.6,1.6h-0.9l2.5-7h0.8l2.5,7H-140.4z M-141.9,163.3l-0.5-1.5h0l-0.5,1.4
						l-0.7,2h2.4L-141.9,163.3z"/>
					<path class="st0" d="M-135.6,162.2l-0.5,1.7l-1,3.6h-0.8l-1.8-7h1l0.8,3.4l0.4,1.9l0,0l0.5-1.9l1-3.4h0.7l1,3.5l0.5,1.8h0
						c0.1-0.3,0.1-0.6,0.2-0.9c0.1-0.3,0.1-0.6,0.2-0.9l0.8-3.5h1l-1.8,7h-0.8l-0.9-3.5L-135.6,162.2L-135.6,162.2z"/>
					<path class="st0" d="M-126.9,167.6l-0.6-1.6h-2.9l-0.6,1.6h-0.9l2.5-7h0.8l2.5,7H-126.9z M-128.3,163.3l-0.5-1.5h0l-0.5,1.4
						l-0.7,2h2.4L-128.3,163.3z"/>
					<path class="st0" d="M-121.3,167.6l-1.3-3.1h-1.6v3.1h-0.9v-7h2.8c0.3,0,0.5,0,0.8,0.1c0.2,0.1,0.5,0.2,0.6,0.4
						c0.2,0.2,0.3,0.4,0.4,0.6s0.2,0.5,0.2,0.8c0,0.5-0.1,0.9-0.4,1.2s-0.6,0.6-1.1,0.7l1.4,3.2H-121.3z M-121.1,162.5
						c0-0.4-0.1-0.7-0.4-0.9s-0.5-0.3-0.9-0.3h-1.8v2.4h1.8c0.4,0,0.7-0.1,1-0.3C-121.3,163.2-121.1,162.9-121.1,162.5z"/>
					<path class="st0" d="M-116.9,160.6c0.5,0,1,0.1,1.4,0.3c0.4,0.2,0.7,0.5,1,1c0.1,0.3,0.2,0.6,0.2,0.9s0,0.7,0,1.2
						c0,0.5,0,0.9,0,1.3s-0.1,0.7-0.2,1c-0.1,0.3-0.3,0.5-0.4,0.7c-0.2,0.2-0.4,0.3-0.6,0.4c-0.2,0.1-0.5,0.2-0.7,0.2
						c-0.3,0-0.5,0.1-0.8,0.1h-2.1v-7H-116.9z M-115.1,163.4c0-0.4,0-0.7-0.1-1c-0.1-0.3-0.2-0.5-0.4-0.6s-0.3-0.3-0.6-0.3
						c-0.2-0.1-0.5-0.1-0.7-0.1h-1.4v5.3h1.4c0.3,0,0.6,0,0.8-0.1c0.2-0.1,0.4-0.2,0.6-0.4c0.1-0.2,0.2-0.4,0.3-0.6
						c0.1-0.2,0.1-0.5,0.1-0.8V163.4z"/>
				</g>
				<g>
				</g>
				<g class="st1">
					<path class="st0" d="M-148.3,181.6v-0.8l2.7-3.4c0.3-0.3,0.4-0.7,0.4-1c0-0.3-0.1-0.5-0.3-0.7s-0.4-0.3-0.8-0.3
						c-0.3,0-0.6,0.1-0.8,0.3c-0.2,0.2-0.3,0.5-0.4,0.8l-0.8-0.1c0-0.3,0.1-0.5,0.2-0.7c0.1-0.2,0.3-0.4,0.4-0.5
						c0.2-0.1,0.4-0.3,0.6-0.3c0.2-0.1,0.5-0.1,0.7-0.1c0.3,0,0.5,0,0.8,0.1c0.2,0.1,0.4,0.2,0.6,0.3c0.2,0.1,0.3,0.3,0.4,0.6
						c0.1,0.2,0.2,0.5,0.2,0.8c0,0.2,0,0.4-0.1,0.7c-0.1,0.2-0.2,0.5-0.4,0.7l-2.4,3.1h2.9v0.8H-148.3z"/>
					<path class="st0" d="M-139.3,179.7c0,0.3-0.1,0.6-0.2,0.8c-0.1,0.2-0.2,0.4-0.4,0.6c-0.2,0.2-0.4,0.3-0.6,0.4
						c-0.2,0.1-0.5,0.1-0.7,0.1s-0.5,0-0.7-0.1c-0.2-0.1-0.4-0.2-0.6-0.4c-0.2-0.2-0.3-0.4-0.4-0.6c-0.1-0.2-0.2-0.5-0.2-0.8v-3.2
						c0-0.3,0.1-0.6,0.2-0.8c0.1-0.2,0.2-0.4,0.4-0.6c0.2-0.2,0.4-0.3,0.6-0.4c0.2-0.1,0.5-0.1,0.7-0.1s0.5,0,0.7,0.1
						c0.2,0.1,0.4,0.2,0.6,0.4c0.2,0.2,0.3,0.4,0.4,0.6c0.1,0.2,0.2,0.5,0.2,0.8V179.7z M-140.2,176.6c0-0.4-0.1-0.7-0.3-0.9
						c-0.2-0.2-0.5-0.3-0.8-0.3s-0.6,0.1-0.8,0.3c-0.2,0.2-0.3,0.5-0.3,0.9v3c0,0.4,0.1,0.7,0.3,0.9c0.2,0.2,0.5,0.3,0.8,0.3
						s0.6-0.1,0.8-0.3c0.2-0.2,0.3-0.5,0.3-0.9V176.6z"/>
					<path class="st0" d="M-135.8,181.6h-0.8v-6.1l-0.9,0.7l0-0.9l0.9-0.7h0.8V181.6z"/>
					<path class="st0" d="M-129.3,179.5c0,0.3,0,0.6-0.1,0.9c-0.1,0.3-0.2,0.5-0.4,0.7c-0.2,0.2-0.4,0.3-0.7,0.4
						c-0.3,0.1-0.5,0.2-0.9,0.2c-0.2,0-0.4,0-0.6-0.1c-0.2,0-0.4-0.1-0.6-0.2c-0.2-0.1-0.3-0.3-0.5-0.5c-0.1-0.2-0.2-0.4-0.3-0.7
						l0.8-0.1c0.1,0.3,0.2,0.5,0.4,0.7c0.2,0.1,0.4,0.2,0.7,0.2c0.2,0,0.4,0,0.5-0.1s0.3-0.2,0.4-0.3c0.1-0.1,0.2-0.3,0.2-0.4
						c0.1-0.2,0.1-0.3,0.1-0.5c0-0.4-0.1-0.7-0.3-0.9s-0.5-0.3-0.9-0.3h-0.5v-0.7h0.4c0.4,0,0.6-0.1,0.9-0.3
						c0.2-0.2,0.3-0.5,0.3-0.8c0-0.2,0-0.3-0.1-0.4s-0.1-0.3-0.2-0.4c-0.1-0.1-0.2-0.2-0.4-0.2c-0.1-0.1-0.3-0.1-0.4-0.1
						c-0.2,0-0.5,0.1-0.7,0.2c-0.2,0.2-0.3,0.4-0.4,0.7l-0.8-0.1c0-0.2,0.1-0.4,0.2-0.6s0.3-0.4,0.4-0.5c0.2-0.1,0.4-0.2,0.6-0.3
						c0.2-0.1,0.4-0.1,0.7-0.1c0.3,0,0.6,0.1,0.9,0.2s0.4,0.2,0.6,0.4c0.2,0.2,0.3,0.4,0.3,0.6c0.1,0.2,0.1,0.5,0.1,0.7
						c0,0.3-0.1,0.5-0.2,0.8s-0.3,0.5-0.7,0.7c0.3,0.2,0.6,0.4,0.7,0.7C-129.3,178.9-129.3,179.2-129.3,179.5z"/>
				</g>
			</g>
		</g>
	</g>
</g>
</svg>
