<?xml version="1.0" encoding="UTF-8" standalone="no"?>
<svg width="145px" height="87px" viewBox="0 0 145 87" version="1.1" xmlns="http://www.w3.org/2000/svg" xmlns:xlink="http://www.w3.org/1999/xlink" xmlns:sketch="http://www.bohemiancoding.com/sketch/ns">
    <!-- Generator: Sketch 3.3.2 (12043) - http://www.bohemiancoding.com/sketch -->
    <title>award #2: guinness</title>
    <desc>Created with Sketch.</desc>
    <defs></defs>
    <g id="Famous" stroke="none" stroke-width="1" fill="none" fill-rule="evenodd" sketch:type="MSPage">
        <g id="famous_game" sketch:type="MSArtboardGroup" transform="translate(-646.000000, -595.000000)" fill="#FFFFFF">
            <g id="awards-white-horizontal" sketch:type="MSLayerGroup" transform="translate(472.000000, 595.000000)">
                <g id="award-#2:-guinness" transform="translate(174.270646, 0.000000)">
                    <g id="laurel" transform="translate(0.000000, 4.129032)" sketch:type="MSShapeGroup">
                        <g id="right-branch" transform="translate(109.305849, 0.000000)">
                            <path d="M4.60697717,0.26098866 C4.60697717,0.26098866 9.67149561,1.60031708 11.5344495,3.98782781 C13.3971216,6.37533854 12.6403318,7.53992293 12.6403318,7.53992293 C12.6403318,7.53992293 9.49680846,7.83106903 7.34308502,5.4435583 C5.18907982,3.05604756 4.60697717,0.26098866 4.60697717,0.26098866" id="Fill-1"></path>
                            <path d="M15.2366899,0.901340967 C15.2366899,0.901340967 19.8101121,4.91904437 19.8101121,9.69462953 C19.8101121,12.9555786 18.6456251,13.1303226 18.6456251,13.1303226 C18.6456251,13.1303226 15.728068,11.5579082 15.2366899,8.12221513 C14.7453119,4.68652207 15.2366899,0.901340967 15.2366899,0.901340967" id="Fill-2"></path>
                            <path d="M16.9970856,12.6060905 C16.9970856,12.6060905 15.3088188,9.8110316 12.2819414,9.8110316 C9.25478224,9.8110316 9.31310521,10.4516657 7.79952562,10.4516657 C8.49799245,11.8783662 10.7683618,13.9454189 12.7476799,13.9454189 C16.2986187,13.9454189 16.9970856,12.6060905 16.9970856,12.6060905" id="Fill-3"></path>
                            <path d="M23.1376205,8.99565342 C23.1376205,8.99565342 25.4077081,12.9555786 25.4077081,17.9634042 C25.4077081,21.4574392 23.7777643,22.2728174 23.7777643,22.2728174 C23.7777643,22.2728174 21.4493537,20.4092569 21.4493537,15.0519432 C21.4493537,9.69462953 23.1376205,8.99565342 23.1376205,8.99565342" id="Fill-4"></path>
                            <path d="M21.935942,20.2345128 C21.935942,20.2345128 21.935942,18.7787823 20.3059982,17.1483078 C18.6760544,15.5178333 12.6800591,15.8670395 12.6800591,15.8670395 C12.6800591,15.8670395 14.9504284,19.8853066 17.8609417,20.4092569 C20.7717367,20.9334889 21.935942,20.2345128 21.935942,20.2345128" id="Fill-5"></path>
                            <path d="M28.9589287,18.7787823 C28.9589287,18.7787823 29.9484468,20.9334889 29.9484468,25.5337664 C29.9484468,30.1340438 26.9796106,32.3470924 26.9796106,32.3470924 C26.9796106,32.3470924 25.9317695,32.2304085 25.9317695,25.5627964 C25.9317695,21.6905252 28.9589287,18.7787823 28.9589287,18.7787823" id="Fill-6"></path>
                            <path d="M25.098061,29.8428977 C25.098061,29.8428977 25.5057583,26.8147528 21.7218093,24.369182 C17.9378604,21.9233293 16.7153321,22.2728174 16.7153321,22.2728174 C16.7153321,22.2728174 18.2872347,28.1543631 21.7798505,29.4353496 C25.2727482,30.716336 25.098061,29.8428977 25.098061,29.8428977" id="Fill-7"></path>
                            <path d="M33.3156824,30.133762 C33.3154007,30.133762 29.7723509,32.9919542 28.7749437,35.7827854 C28.3038519,37.1006936 28.0198444,39.8562942 27.9017897,42.9453176 C27.866007,43.8770979 31.7001081,40.5222944 32.4422467,38.1119542 C32.6431369,37.4600462 33.8394621,35.1993658 33.3156824,30.133762" id="Fill-8"></path>
                            <path d="M20.0918656,30.4835319 C20.0918656,30.4835319 19.113054,35.757983 22.8276917,38.9273324 C24.8070097,40.615867 26.8446507,41.4312452 26.8446507,41.4312452 C26.8446507,41.4312452 27.579182,37.3909942 24.5742814,34.3851151 C22.5366403,32.3470924 21.2560709,31.0074821 20.0918656,30.4835319" id="Fill-9"></path>
                            <path d="M35.0036674,43.7023538 C35.0036674,43.7023538 33.7230979,49.4672157 31.6854569,51.6219223 C29.6480977,53.7766289 27.6107384,54.1258351 27.1449999,54.009433 C26.6792614,53.8930309 26.9703128,50.3409358 29.5317335,47.370851 C32.0931542,44.4010481 35.0036674,43.7023538 35.0036674,43.7023538" id="Fill-10"></path>
                            <path d="M21.372435,39.6843686 C21.372435,39.6843686 25.2727482,44.5757921 25.6801637,45.8567786 C26.0878609,47.1380469 26.8446507,49.7003017 25.971215,52.2625564 C24.4201622,52.2746758 22.3619532,48.9432654 22.0128606,47.8950831 C21.6634864,46.8469008 20.4409581,43.5859518 21.372435,39.6843686" id="Fill-11"></path>
                            <path d="M21.0295411,49.7583618 C21.0295411,49.7583618 23.323296,55.054515 23.7019726,58.5516503 C23.9921787,61.2303072 22.0128606,63.5014158 22.0128606,63.5014158 C22.0128606,63.5014158 19.3350758,59.8909788 19.3350758,55.9893956 C19.3350758,52.0878124 21.0295411,49.7583618 21.0295411,49.7583618" id="Fill-12"></path>
                            <path d="M32.733298,58.2605042 C32.733298,58.2605042 31.6274157,61.8125994 28.2218616,64.4912562 C24.8163076,67.169913 22.2548869,65.4230364 22.2548869,65.4230364 C22.2548869,65.4230364 23.7501525,61.1139051 26.9610149,59.4250886 C30.1718773,57.7362722 32.733298,58.2605042 32.733298,58.2605042" id="Fill-13"></path>
                            <path d="M18.2289117,58.1835605 C18.2289117,58.1835605 14.9107012,62.3497963 14.9107012,65.982781 C14.9107012,69.6157657 15.9005011,71.4209843 15.9005011,71.4209843 C15.9005011,71.4209843 18.8693373,70.139716 19.0440244,65.1318903 C19.2187116,60.1237829 18.2289117,58.1835605 18.2289117,58.1835605" id="Fill-14"></path>
                            <path d="M27.338001,70.8967522 C27.338001,70.8967522 24.3409895,69.3246196 20.6877741,70.0233139 C17.034277,70.72229 15.4626562,73.5173489 15.4626562,73.5173489 C15.4626562,73.5173489 16.4521744,75.4389695 19.7123437,75.3225674 C22.9722312,75.2061654 27.338001,70.8967522 27.338001,70.8967522" id="Fill-15"></path>
                            <path d="M13.1643932,66.5876208 C13.1643932,66.5876208 8.8566646,68.2772828 7.8668647,72.5861323 C6.87734655,76.8947 7.51777216,77.4189321 7.51777216,77.4189321 C7.51777216,77.4189321 10.7776597,77.5361797 12.1165521,72.5861323 C13.4554446,67.6358031 13.1643932,66.5876208 13.1643932,66.5876208" id="Fill-16"></path>
                            <path d="M20.3245939,80.2232919 C20.3245939,80.2232919 16.4242808,76.7881625 12.8733419,77.1373687 C9.32240307,77.4865749 8.04155184,79.1170494 8.04155184,79.1170494 C8.04155184,79.1170494 8.79355183,82.4363404 13.1911598,82.3779985 C17.5884861,82.3196565 20.3245939,80.2232919 20.3245939,80.2232919" id="Fill-17"></path>
                            <path d="M0.346301353,81.0989849 C0.346301353,81.0989849 9.95268556,82.5121568 22.3912555,64.917688 C30.8106124,53.0083188 27.4738062,32.5274733 25.5440768,27.4542596 C25.2617598,26.7118793 23.6115298,21.6426115 20.8838745,17.2139778 C17.0241339,10.9471496 12.494947,7.37335242 12.494947,7.37335242 C12.494947,7.37335242 20.0597457,15.4417351 22.6637111,21.2536651 C26.741529,30.3555741 27.0373701,40.7362149 27.0601921,43.5357833 C27.0973836,48.1230959 25.8410449,55.7061411 23.8465122,59.9369195 C15.1546997,78.3743873 0.65144035,80.1426841 0.65144035,80.1426841 L0.346301353,81.0989849" id="Fill-18"></path>
                        </g>
                        <g id="left-branch" transform="translate(0.000000, 0.000000)">
                            <path d="M30.5998345,0.26098866 C30.5998345,0.26098866 25.5353161,1.60031708 23.6723622,3.98782781 C21.8096901,6.37533854 22.5664798,7.53992293 22.5664798,7.53992293 C22.5664798,7.53992293 25.7100032,7.83106903 27.8637266,5.4435583 C30.0177318,3.05604756 30.5998345,0.26098866 30.5998345,0.26098866" id="Fill-19"></path>
                            <path d="M19.9701217,0.901340967 C19.9701217,0.901340967 15.3966996,4.91904437 15.3966996,9.69462953 C15.3966996,12.9555786 16.5611866,13.1303226 16.5611866,13.1303226 C16.5611866,13.1303226 19.4787437,11.5579082 19.9701217,8.12221513 C20.461218,4.68652207 19.9701217,0.901340967 19.9701217,0.901340967" id="Fill-20"></path>
                            <path d="M18.2097261,12.6060905 C18.2097261,12.6060905 19.8979928,9.8110316 22.9248702,9.8110316 C25.9520294,9.8110316 25.8939882,10.4516657 27.407286,10.4516657 C26.7088192,11.8783662 24.4384498,13.9454189 22.4591318,13.9454189 C18.9081929,13.9454189 18.2097261,12.6060905 18.2097261,12.6060905" id="Fill-21"></path>
                            <path d="M12.0691912,8.99565342 C12.0691912,8.99565342 9.79910357,12.9555786 9.79910357,17.9634042 C9.79910357,21.4574392 11.4290473,22.2728174 11.4290473,22.2728174 C11.4290473,22.2728174 13.7574579,20.4092569 13.7574579,15.0519432 C13.7574579,9.69462953 12.0691912,8.99565342 12.0691912,8.99565342" id="Fill-22"></path>
                            <path d="M13.2708697,20.2345128 C13.2708697,20.2345128 13.2708697,18.7787823 14.9008135,17.1483078 C16.5307572,15.5178333 22.5267526,15.8670395 22.5267526,15.8670395 C22.5267526,15.8670395 20.2563832,19.8853066 17.34587,20.4092569 C14.435075,20.9334889 13.2708697,20.2345128 13.2708697,20.2345128" id="Fill-23"></path>
                            <path d="M6.24788297,18.7787823 C6.24788297,18.7787823 5.25836482,20.9334889 5.25836482,25.5337664 C5.25836482,30.1340438 8.22720102,32.3470924 8.22720102,32.3470924 C8.22720102,32.3470924 9.27504214,32.2304085 9.27504214,25.5627964 C9.27504214,21.6905252 6.24788297,18.7787823 6.24788297,18.7787823" id="Fill-24"></path>
                            <path d="M10.1087506,29.8428977 C10.1087506,29.8428977 9.70105337,26.8147528 13.4850023,24.369182 C17.2689513,21.9233293 18.4914796,22.2728174 18.4914796,22.2728174 C18.4914796,22.2728174 16.919577,28.1543631 13.4269611,29.4353496 C9.93406348,30.716336 10.1087506,29.8428977 10.1087506,29.8428977" id="Fill-25"></path>
                            <path d="M1.89112922,30.133762 C1.89112922,30.133762 5.43446073,32.9919542 6.43186798,35.7827854 C6.90295976,37.1006936 7.18696725,39.8562942 7.30502195,42.9453176 C7.34080464,43.8770979 3.50670356,40.5222944 2.76456495,38.1119542 C2.56367473,37.4600462 1.36734954,35.1993658 1.89112922,30.133762" id="Fill-26"></path>
                            <path d="M15.1149461,30.4835319 C15.1149461,30.4835319 16.0937576,35.757983 12.37912,38.9273324 C10.399802,40.615867 8.36216093,41.4312452 8.36216093,41.4312452 C8.36216093,41.4312452 7.62762966,37.3909942 10.6325303,34.3851151 C12.6701713,32.3470924 13.9507408,31.0074821 15.1149461,30.4835319" id="Fill-27"></path>
                            <path d="M0.203144244,43.7023538 C0.203144244,43.7023538 1.48371372,49.4672157 3.52135474,51.6219223 C5.55871401,53.7766289 7.59607327,54.1258351 8.06181174,54.009433 C8.52755021,53.8930309 8.23649889,50.3409358 5.67507818,47.370851 C3.11365748,44.4010481 0.203144244,43.7023538 0.203144244,43.7023538" id="Fill-28"></path>
                            <path d="M13.8343766,39.6843686 C13.8343766,39.6843686 9.93406348,44.5757921 9.52664798,45.8567786 C9.11895072,47.1380469 8.36216093,49.7003017 9.23559665,52.2625564 C10.7866495,52.2746758 12.8445767,48.9432654 13.193951,47.8950831 C13.5433253,46.8469008 14.7658536,43.5859518 13.8343766,39.6843686" id="Fill-29"></path>
                            <path d="M14.1772706,49.7583618 C14.1772706,49.7583618 11.8835157,55.054515 11.504839,58.5516503 C11.214633,61.2303072 13.193951,63.5014158 13.193951,63.5014158 C13.193951,63.5014158 15.8717359,59.8909788 15.8717359,55.9893956 C15.8717359,52.0878124 14.1772706,49.7583618 14.1772706,49.7583618" id="Fill-30"></path>
                            <path d="M2.47351362,58.2605042 C2.47323187,58.2605042 3.57939595,61.8125994 6.98495002,64.4912562 C10.3905041,67.169913 12.9519248,65.4230364 12.9519248,65.4230364 C12.9519248,65.4230364 11.4566592,61.1139051 8.24579675,59.4250886 C5.03465257,57.7362722 2.47351362,58.2605042 2.47351362,58.2605042" id="Fill-31"></path>
                            <path d="M16.9779,58.1835605 C16.9779,58.1835605 20.2961105,62.3497963 20.2961105,65.982781 C20.2961105,69.6157657 19.3063106,71.4209843 19.3063106,71.4209843 C19.3063106,71.4209843 16.3374744,70.139716 16.1627872,65.1318903 C15.9883818,60.1237829 16.9779,58.1835605 16.9779,58.1835605" id="Fill-32"></path>
                            <path d="M7.86881062,70.8967522 C7.86881062,70.8967522 10.8658222,69.3246196 14.5190375,70.0233139 C18.1725346,70.72229 19.7441554,73.5173489 19.7441554,73.5173489 C19.7441554,73.5173489 18.7546373,75.4389695 15.494468,75.3225674 C12.2345805,75.2061654 7.86881062,70.8967522 7.86881062,70.8967522" id="Fill-33"></path>
                            <path d="M22.0424184,66.5876208 C22.0424184,66.5876208 26.3501471,68.2772828 27.339947,72.5861323 C28.3294651,76.8947 27.6890395,77.4189321 27.6890395,77.4189321 C27.6890395,77.4189321 24.429152,77.5361797 23.0902595,72.5861323 C21.7513671,67.6358031 22.0424184,66.5876208 22.0424184,66.5876208" id="Fill-34"></path>
                            <path d="M14.8822177,80.2232919 C14.8822177,80.2232919 18.7825309,76.7881625 22.3334697,77.1373687 C25.8844086,77.4865749 27.1652598,79.1170494 27.1652598,79.1170494 C27.1652598,79.1170494 26.4132598,82.4363404 22.0156518,82.3779985 C17.6183256,82.3196565 14.8822177,80.2232919 14.8822177,80.2232919" id="Fill-35"></path>
                            <path d="M34.8605103,81.0989849 C34.8605103,81.0989849 25.2538443,82.5121568 12.8155561,64.917688 C4.39619923,53.0083188 7.73300545,32.5274733 9.6627349,27.4542596 C9.94505187,26.7118793 11.5952819,21.6426115 14.3229371,17.2139778 C18.1826778,10.9471496 22.7118646,7.37335242 22.7118646,7.37335242 C22.7118646,7.37335242 15.147066,15.4417351 12.5431005,21.2536651 C8.4652827,30.3555741 8.16972332,40.7362149 8.14690129,43.5357833 C8.10942808,48.1230959 9.36576675,55.7061411 11.3602995,59.9369195 C20.052112,78.3743873 34.5553713,80.1426841 34.5553713,80.1426841 L34.8605103,81.0989849" id="Fill-36"></path>
                        </g>
                    </g>
                    <g id="#1" transform="translate(27.842056, 48.387097)" font-weight="normal" font-family="PF DinText Pro" line-spacing="12" sketch:type="MSTextLayer" font-size="10" sketch:alignment="middle" opacity="0.50157416">
                        <text id="#1-ON-TOP-50">
                            <tspan x="16.4760521" y="8">#1 ON TOP 50</tspan>
                            <tspan x="19.2060521" y="22">VIDEOGAME</tspan>
                            <tspan x="29.2760521" y="36">SERIES</tspan>
                        </text>
                    </g>
                    <g id="guinness" transform="translate(56.715299, 0.000000)" sketch:type="MSShapeGroup">
                        <path d="M14.820567,41.1275699 C15.0859258,41.1372043 15.3495661,41.1471828 15.6169873,41.1471828 C15.8758153,41.1471828 16.1322372,41.1372043 16.3920964,41.1275699 L16.3920964,25.7331613 L14.820567,25.7331613 L14.820567,41.1275699 L14.820567,41.1275699 Z M10.4796124,40.5498495 C11.0261416,40.6833548 11.5819515,40.7876129 12.1442923,40.8736344 L12.1442923,25.7331613 L10.4796124,25.7331613 L10.4796124,40.5498495 L10.4796124,40.5498495 Z M6.34489519,39.1291183 C6.92064141,39.3950968 7.5066995,39.6311398 8.10719422,39.8468817 L8.10719422,26.8273548 L6.34489519,27.5901935 L6.34489519,39.1291183 L6.34489519,39.1291183 Z M0.581933342,21.040172 L30.597732,21.040172 L30.597732,18.7458065 L0.581933342,18.7458065 L0.581933342,21.040172 Z M2.95538268,24.1290323 L28.2266888,24.1290323 L28.2266888,22.7850323 L2.95538268,22.7850323 L2.95538268,24.1290323 Z M23.1405295,39.8971183 C23.7403368,39.6855054 24.327426,39.4508387 24.9011099,39.1876129 L24.9011099,27.5482151 L23.1405295,26.7867527 L23.1405295,39.8971183 L23.1405295,39.8971183 Z" id="Fill-1"></path>
                        <path d="M15.5784896,0.214365591 L17.5394641,6.25410753 L23.8699226,6.25410753 L18.7493904,9.98778495 L20.7052089,16.0299355 L15.5784896,12.2962581 L10.4600198,16.0299355 L12.4172132,9.98778495 L7.28980645,6.25410753 L13.6261084,6.25410753 L15.5784896,0.214365591 M19.0731832,40.8877419 C19.6379301,40.8003441 20.1954587,40.6936774 20.7375195,40.5646452 L20.7375195,25.7331613 L19.0731832,25.7331613 L19.0731832,40.8877419 L19.0731832,40.8877419 Z" id="Fill-2"></path>
                    </g>
                </g>
            </g>
        </g>
    </g>
</svg>