<?xml version="1.0" encoding="utf-8"?>
<!-- Generator: Adobe Illustrator 19.0.1, SVG Export Plug-In . SVG Version: 6.00 Build 0)  -->
<svg version="1.1" id="Layer_1" xmlns:sketch="http://www.bohemiancoding.com/sketch/ns"
	 xmlns="http://www.w3.org/2000/svg" xmlns:xlink="http://www.w3.org/1999/xlink" x="0px" y="0px" viewBox="-211 98.5 145 87"
	 style="enable-background:new -211 98.5 145 87;" xml:space="preserve">
<style type="text/css">
	.st0{fill:#FFFFFF;}
	.st1{opacity:0.5016;}
	.st2{enable-background:new    ;}
</style>
<title>award #2: guinness</title>
<desc>Created with Sketch.</desc>
<g id="Famous" sketch:type="MSPage">
	<g id="famous_game" transform="translate(-647.000000, -595.000000)" sketch:type="MSArtboardGroup">
		<g id="awards-white-horizontal" transform="translate(472.000000, 595.000000)" sketch:type="MSLayerGroup">
			<g id="award-_x23_2:-guinness" transform="translate(175.000000, 0.000000)">
				<g id="laurel" transform="translate(0.000000, 4.129032)" sketch:type="MSShapeGroup">
					<g id="right-branch" transform="translate(109.305849, 0.000000)">
						<g id="Fill-1">
							<path class="st0" d="M-206.4,98.7c0,0,5.1,1.3,6.9,3.7c1.9,2.4,1.1,3.6,1.1,3.6s-3.1,0.3-5.3-2.1
								C-205.8,101.5-206.4,98.7-206.4,98.7"/>
						</g>
						<g id="Fill-2">
							<path class="st0" d="M-195.8,99.4c0,0,4.6,4,4.6,8.8c0,3.3-1.2,3.4-1.2,3.4s-2.9-1.6-3.4-5S-195.8,99.4-195.8,99.4"/>
						</g>
						<g id="Fill-3">
							<path class="st0" d="M-194,111.1c0,0-1.7-2.8-4.7-2.8c-3,0-3,0.6-4.5,0.6c0.7,1.4,3,3.5,4.9,3.5
								C-194.7,112.4-194,111.1-194,111.1"/>
						</g>
						<g id="Fill-4">
							<path class="st0" d="M-187.9,107.5c0,0,2.3,4,2.3,9c0,3.5-1.6,4.3-1.6,4.3s-2.3-1.9-2.3-7.2
								C-189.6,108.2-187.9,107.5-187.9,107.5"/>
						</g>
						<g id="Fill-5">
							<path class="st0" d="M-189.1,118.7c0,0,0-1.5-1.6-3.1c-1.6-1.6-7.6-1.3-7.6-1.3s2.3,4,5.2,4.5
								C-190.2,119.4-189.1,118.7-189.1,118.7"/>
						</g>
						<g id="Fill-6">
							<path class="st0" d="M-182,117.2c0,0,1,2.2,1,6.8c0,4.6-3,6.8-3,6.8s-1-0.1-1-6.8C-185.1,120.2-182,117.2-182,117.2"/>
						</g>
						<g id="Fill-7">
							<path class="st0" d="M-185.9,128.3c0,0,0.4-3-3.4-5.5c-3.8-2.4-5-2.1-5-2.1s1.6,5.9,5.1,7.2
								C-185.7,129.2-185.9,128.3-185.9,128.3"/>
						</g>
						<g id="Fill-8">
							<path class="st0" d="M-177.7,128.6c0,0-3.5,2.9-4.5,5.6c-0.5,1.3-0.8,4.1-0.9,7.2c0,0.9,3.8-2.4,4.5-4.8
								C-178.4,135.9-177.2,133.7-177.7,128.6"/>
						</g>
						<g id="Fill-9">
							<path class="st0" d="M-190.9,128.9c0,0-1,5.3,2.7,8.4c2,1.7,4,2.5,4,2.5s0.7-4-2.3-7C-188.5,130.8-189.7,129.5-190.9,128.9"
								/>
						</g>
						<g id="Fill-10">
							<path class="st0" d="M-176,142.2c0,0-1.3,5.8-3.3,7.9c-2,2.2-4.1,2.5-4.5,2.4c-0.5-0.1-0.2-3.7,2.4-6.6
								C-178.9,142.9-176,142.2-176,142.2"/>
						</g>
						<g id="Fill-11">
							<path class="st0" d="M-189.6,138.1c0,0,3.9,4.9,4.3,6.2c0.4,1.3,1.2,3.8,0.3,6.4c-1.6,0-3.6-3.3-4-4.4
								C-189.3,145.3-190.6,142-189.6,138.1"/>
						</g>
						<g id="Fill-12">
							<path class="st0" d="M-190,148.2c0,0,2.3,5.3,2.7,8.8c0.3,2.7-1.7,4.9-1.7,4.9s-2.7-3.6-2.7-7.5
								C-191.7,150.5-190,148.2-190,148.2"/>
						</g>
						<g id="Fill-13">
							<path class="st0" d="M-178.3,156.7c0,0-1.1,3.6-4.5,6.2c-3.4,2.7-6,0.9-6,0.9s1.5-4.3,4.7-6
								C-180.8,156.2-178.3,156.7-178.3,156.7"/>
						</g>
						<g id="Fill-14">
							<path class="st0" d="M-192.8,156.6c0,0-3.3,4.2-3.3,7.8c0,3.6,1,5.4,1,5.4s3-1.3,3.1-6.3
								C-191.8,158.6-192.8,156.6-192.8,156.6"/>
						</g>
						<g id="Fill-15">
							<path class="st0" d="M-183.7,169.4c0,0-3-1.6-6.7-0.9c-3.7,0.7-5.2,3.5-5.2,3.5s1,1.9,4.2,1.8
								C-188,173.7-183.7,169.4-183.7,169.4"/>
						</g>
						<g id="Fill-16">
							<path class="st0" d="M-197.8,165c0,0-4.3,1.7-5.3,6c-1,4.3-0.3,4.8-0.3,4.8s3.3,0.1,4.6-4.8
								C-197.5,166.1-197.8,165-197.8,165"/>
						</g>
						<g id="Fill-17">
							<path class="st0" d="M-190.7,178.7c0,0-3.9-3.4-7.5-3.1c-3.6,0.3-4.8,2-4.8,2s0.8,3.3,5.1,3.3
								C-193.4,180.8-190.7,178.7-190.7,178.7"/>
						</g>
						<g id="Fill-18">
							<path class="st0" d="M-210.7,179.6c0,0,9.6,1.4,22-16.2c8.4-11.9,5.1-32.4,3.2-37.5c-0.3-0.7-1.9-5.8-4.7-10.2
								c-3.9-6.3-8.4-9.8-8.4-9.8s7.6,8.1,10.2,13.9c4.1,9.1,4.4,19.5,4.4,22.3c0,4.6-1.2,12.2-3.2,16.4
								c-8.7,18.4-23.2,20.2-23.2,20.2L-210.7,179.6"/>
						</g>
					</g>
					<g id="left-branch" transform="translate(0.000000, 0.000000)">
						<g id="Fill-19">
							<path class="st0" d="M-180.4,98.7c0,0-5.1,1.3-6.9,3.7c-1.9,2.4-1.1,3.6-1.1,3.6s3.1,0.3,5.3-2.1
								C-181,101.5-180.4,98.7-180.4,98.7"/>
						</g>
						<g id="Fill-20">
							<path class="st0" d="M-191,99.4c0,0-4.6,4-4.6,8.8c0,3.3,1.2,3.4,1.2,3.4s2.9-1.6,3.4-5C-190.5,103.1-191,99.4-191,99.4"/>
						</g>
						<g id="Fill-21">
							<path class="st0" d="M-192.8,111.1c0,0,1.7-2.8,4.7-2.8c3,0,3,0.6,4.5,0.6c-0.7,1.4-3,3.5-4.9,3.5
								C-192.1,112.4-192.8,111.1-192.8,111.1"/>
						</g>
						<g id="Fill-22">
							<path class="st0" d="M-198.9,107.5c0,0-2.3,4-2.3,9c0,3.5,1.6,4.3,1.6,4.3s2.3-1.9,2.3-7.2
								C-197.2,108.2-198.9,107.5-198.9,107.5"/>
						</g>
						<g id="Fill-23">
							<path class="st0" d="M-197.7,118.7c0,0,0-1.5,1.6-3.1c1.6-1.6,7.6-1.3,7.6-1.3s-2.3,4-5.2,4.5
								C-196.6,119.4-197.7,118.7-197.7,118.7"/>
						</g>
						<g id="Fill-24">
							<path class="st0" d="M-204.8,117.2c0,0-1,2.2-1,6.8c0,4.6,3,6.8,3,6.8s1-0.1,1-6.8C-201.7,120.2-204.8,117.2-204.8,117.2"/>
						</g>
						<g id="Fill-25">
							<path class="st0" d="M-200.9,128.3c0,0-0.4-3,3.4-5.5c3.8-2.4,5-2.1,5-2.1s-1.6,5.9-5.1,7.2
								C-201.1,129.2-200.9,128.3-200.9,128.3"/>
						</g>
						<g id="Fill-26">
							<path class="st0" d="M-209.1,128.6c0,0,3.5,2.9,4.5,5.6c0.5,1.3,0.8,4.1,0.9,7.2c0,0.9-3.8-2.4-4.5-4.8
								C-208.4,135.9-209.6,133.7-209.1,128.6"/>
						</g>
						<g id="Fill-27">
							<path class="st0" d="M-195.9,128.9c0,0,1,5.3-2.7,8.4c-2,1.7-4,2.5-4,2.5s-0.7-4,2.3-7C-198.3,130.8-197,129.5-195.9,128.9"
								/>
						</g>
						<g id="Fill-28">
							<path class="st0" d="M-210.8,142.2c0,0,1.3,5.8,3.3,7.9c2,2.2,4.1,2.5,4.5,2.4c0.5-0.1,0.2-3.7-2.4-6.6
								C-207.9,142.9-210.8,142.2-210.8,142.2"/>
						</g>
						<g id="Fill-29">
							<path class="st0" d="M-197.2,138.1c0,0-3.9,4.9-4.3,6.2c-0.4,1.3-1.2,3.8-0.3,6.4c1.6,0,3.6-3.3,4-4.4
								C-197.5,145.3-196.2,142-197.2,138.1"/>
						</g>
						<g id="Fill-30">
							<path class="st0" d="M-196.8,148.2c0,0-2.3,5.3-2.7,8.8c-0.3,2.7,1.7,4.9,1.7,4.9s2.7-3.6,2.7-7.5
								C-195.1,150.5-196.8,148.2-196.8,148.2"/>
						</g>
						<g id="Fill-31">
							<path class="st0" d="M-208.5,156.7c0,0,1.1,3.6,4.5,6.2c3.4,2.7,6,0.9,6,0.9s-1.5-4.3-4.7-6
								C-206,156.2-208.5,156.7-208.5,156.7"/>
						</g>
						<g id="Fill-32">
							<path class="st0" d="M-194,156.6c0,0,3.3,4.2,3.3,7.8c0,3.6-1,5.4-1,5.4s-3-1.3-3.1-6.3C-195,158.6-194,156.6-194,156.6"/>
						</g>
						<g id="Fill-33">
							<path class="st0" d="M-203.1,169.4c0,0,3-1.6,6.7-0.9c3.7,0.7,5.2,3.5,5.2,3.5s-1,1.9-4.2,1.8
								C-198.8,173.7-203.1,169.4-203.1,169.4"/>
						</g>
						<g id="Fill-34">
							<path class="st0" d="M-189,165c0,0,4.3,1.7,5.3,6c1,4.3,0.3,4.8,0.3,4.8s-3.3,0.1-4.6-4.8C-189.2,166.1-189,165-189,165"/>
						</g>
						<g id="Fill-35">
							<path class="st0" d="M-196.1,178.7c0,0,3.9-3.4,7.5-3.1c3.6,0.3,4.8,2,4.8,2s-0.8,3.3-5.1,3.3
								C-193.4,180.8-196.1,178.7-196.1,178.7"/>
						</g>
						<g id="Fill-36">
							<path class="st0" d="M-176.1,179.6c0,0-9.6,1.4-22-16.2c-8.4-11.9-5.1-32.4-3.2-37.5c0.3-0.7,1.9-5.8,4.7-10.2
								c3.9-6.3,8.4-9.8,8.4-9.8s-7.6,8.1-10.2,13.9c-4.1,9.1-4.4,19.5-4.4,22.3c0,4.6,1.2,12.2,3.2,16.4
								c8.7,18.4,23.2,20.2,23.2,20.2L-176.1,179.6"/>
						</g>
					</g>
				</g>
				<g id="_x23_1" transform="translate(26.842056, 47.387097)" sketch:alignment="middle" sketch:type="MSTextLayer" class="st1">
					<g class="st2">
						<path class="st0" d="M-193.4,104.7h1l0.2-1.5h-0.9v-0.6h1l0.3-2.1h0.6l-0.3,2.1h1.1l0.3-2.1h0.6l-0.3,2.1h1v0.6h-1.1l-0.2,1.5
							h1v0.6h-1.1l-0.3,2.2h-0.6l0.3-2.2h-1.1l-0.3,2.2h-0.6l0.3-2.2h-0.9V104.7z M-191.8,104.7h1.1l0.2-1.5h-1.1L-191.8,104.7z"/>
						<path class="st0" d="M-185.5,107.5h-0.8v-6.1l-0.9,0.7l0-0.9l0.9-0.7h0.8V107.5z"/>
						<path class="st0" d="M-178.3,100.4c0.4,0,0.7,0.1,1,0.2c0.3,0.1,0.6,0.3,0.8,0.5c0.2,0.2,0.4,0.5,0.5,0.8s0.2,0.7,0.2,1v1.9
							c0,0.4-0.1,0.8-0.2,1.1c-0.1,0.3-0.3,0.6-0.5,0.8s-0.5,0.4-0.8,0.5c-0.3,0.1-0.6,0.2-1,0.2c-0.4,0-0.8-0.1-1.1-0.2
							c-0.3-0.1-0.6-0.3-0.8-0.6c-0.2-0.2-0.4-0.5-0.5-0.8c-0.1-0.3-0.1-0.6-0.1-1V103c0-0.3,0-0.7,0.1-1c0.1-0.3,0.3-0.6,0.5-0.8
							c0.2-0.2,0.5-0.4,0.8-0.6C-179.1,100.5-178.7,100.4-178.3,100.4z M-178.3,101.3c-0.3,0-0.5,0-0.7,0.2
							c-0.2,0.1-0.4,0.2-0.5,0.4c-0.1,0.2-0.2,0.4-0.3,0.6c-0.1,0.2-0.1,0.4-0.1,0.7v1.9c0,0.2,0,0.5,0.1,0.7
							c0.1,0.2,0.2,0.4,0.3,0.6c0.1,0.2,0.3,0.3,0.5,0.4c0.2,0.1,0.4,0.2,0.7,0.2c0.2,0,0.5,0,0.7-0.1c0.2-0.1,0.4-0.2,0.5-0.4
							c0.1-0.2,0.2-0.4,0.3-0.6s0.1-0.5,0.1-0.7V103c0-0.2,0-0.5-0.1-0.7s-0.2-0.4-0.3-0.6c-0.1-0.2-0.3-0.3-0.5-0.4
							C-177.8,101.3-178.1,101.3-178.3,101.3z"/>
						<path class="st0" d="M-170.2,107.5l-2.5-3.9l-0.9-1.5l0,0v5.4h-0.9v-7h0.9l2.5,3.8l1,1.7l0,0v-5.4h0.9v7H-170.2z"/>
						<path class="st0" d="M-163.5,101.3v6.2h-0.9v-6.2h-2v-0.8h4.8v0.8H-163.5z"/>
						<path class="st0" d="M-158.7,100.4c0.4,0,0.7,0.1,1,0.2c0.3,0.1,0.6,0.3,0.8,0.5s0.4,0.5,0.5,0.8s0.2,0.7,0.2,1v1.9
							c0,0.4-0.1,0.8-0.2,1.1c-0.1,0.3-0.3,0.6-0.5,0.8s-0.5,0.4-0.8,0.5s-0.6,0.2-1,0.2c-0.4,0-0.8-0.1-1.1-0.2
							c-0.3-0.1-0.6-0.3-0.8-0.6c-0.2-0.2-0.4-0.5-0.5-0.8c-0.1-0.3-0.2-0.6-0.2-1V103c0-0.3,0-0.7,0.2-1c0.1-0.3,0.3-0.6,0.5-0.8
							c0.2-0.2,0.5-0.4,0.8-0.6C-159.5,100.5-159.1,100.4-158.7,100.4z M-158.7,101.3c-0.3,0-0.5,0-0.7,0.2
							c-0.2,0.1-0.4,0.2-0.5,0.4c-0.1,0.2-0.2,0.4-0.3,0.6c-0.1,0.2-0.1,0.4-0.1,0.7v1.9c0,0.2,0,0.5,0.1,0.7
							c0.1,0.2,0.2,0.4,0.3,0.6c0.1,0.2,0.3,0.3,0.5,0.4s0.4,0.2,0.7,0.2c0.2,0,0.5,0,0.7-0.1c0.2-0.1,0.4-0.2,0.5-0.4
							c0.1-0.2,0.2-0.4,0.3-0.6c0.1-0.2,0.1-0.5,0.1-0.7V103c0-0.2,0-0.5-0.1-0.7c-0.1-0.2-0.2-0.4-0.3-0.6s-0.3-0.3-0.5-0.4
							C-158.3,101.3-158.5,101.3-158.7,101.3z"/>
						<path class="st0" d="M-150.1,102.6c0,0.2,0,0.5-0.1,0.7c-0.1,0.2-0.2,0.5-0.4,0.7s-0.4,0.4-0.7,0.5c-0.3,0.1-0.6,0.2-0.9,0.2
							h-1.8v2.8h-0.9v-7h2.5c0.3,0,0.6,0,0.8,0.1c0.3,0.1,0.5,0.2,0.7,0.4c0.2,0.2,0.4,0.4,0.5,0.7
							C-150.2,101.9-150.1,102.2-150.1,102.6z M-151.1,102.6c0-0.4-0.1-0.7-0.4-1s-0.6-0.3-1-0.3h-1.7v2.5h1.7c0.2,0,0.4,0,0.6-0.1
							c0.2-0.1,0.3-0.2,0.4-0.3c0.1-0.1,0.2-0.3,0.2-0.4C-151.1,102.9-151.1,102.7-151.1,102.6z"/>
						<path class="st0" d="M-143.3,105.3c0,0.3,0,0.6-0.1,0.9c-0.1,0.3-0.2,0.5-0.4,0.7c-0.2,0.2-0.4,0.4-0.6,0.5
							c-0.3,0.1-0.6,0.2-0.9,0.2c-0.2,0-0.5,0-0.7-0.1c-0.2,0-0.4-0.1-0.6-0.2c-0.2-0.1-0.3-0.3-0.4-0.5c-0.1-0.2-0.2-0.4-0.3-0.7
							l0.8-0.1c0.1,0.3,0.2,0.6,0.4,0.7c0.2,0.1,0.4,0.2,0.7,0.2c0.3,0,0.5-0.1,0.6-0.2s0.3-0.3,0.4-0.4s0.1-0.4,0.2-0.6
							s0-0.4,0-0.6c0-0.2,0-0.4,0-0.6s-0.1-0.3-0.2-0.5c-0.1-0.1-0.2-0.3-0.3-0.3c-0.2-0.1-0.3-0.1-0.6-0.1c-0.2,0-0.4,0.1-0.6,0.2
							c-0.2,0.1-0.3,0.3-0.4,0.5h-0.8v-3.7h3.6v0.8h-2.9v1.9c0.2-0.2,0.4-0.3,0.6-0.4c0.2-0.1,0.4-0.1,0.6-0.1c0.3,0,0.5,0,0.8,0.2
							c0.2,0.1,0.4,0.2,0.5,0.4s0.3,0.4,0.3,0.6c0.1,0.3,0.1,0.5,0.1,0.8V105.3z"/>
						<path class="st0" d="M-138.4,105.6c0,0.3-0.1,0.6-0.2,0.8c-0.1,0.2-0.2,0.4-0.4,0.6c-0.2,0.2-0.4,0.3-0.6,0.4
							c-0.2,0.1-0.5,0.1-0.7,0.1c-0.3,0-0.5,0-0.7-0.1c-0.2-0.1-0.4-0.2-0.6-0.4c-0.2-0.2-0.3-0.4-0.4-0.6c-0.1-0.2-0.2-0.5-0.2-0.8
							v-3.2c0-0.3,0.1-0.6,0.2-0.8c0.1-0.2,0.2-0.4,0.4-0.6c0.2-0.2,0.4-0.3,0.6-0.4c0.2-0.1,0.5-0.1,0.7-0.1c0.3,0,0.5,0,0.7,0.1
							c0.2,0.1,0.4,0.2,0.6,0.4c0.2,0.2,0.3,0.4,0.4,0.6c0.1,0.2,0.2,0.5,0.2,0.8V105.6z M-139.2,102.5c0-0.4-0.1-0.7-0.3-0.9
							c-0.2-0.2-0.5-0.3-0.8-0.3s-0.6,0.1-0.8,0.3c-0.2,0.2-0.3,0.5-0.3,0.9v3c0,0.4,0.1,0.7,0.3,0.9c0.2,0.2,0.5,0.3,0.8,0.3
							s0.6-0.1,0.8-0.3c0.2-0.2,0.3-0.5,0.3-0.9V102.5z"/>
					</g>
					<g>
					</g>
					<g class="st2">
						<path class="st0" d="M-188.1,119.9c0.1-0.3,0.2-0.6,0.3-1c0.1-0.3,0.2-0.6,0.3-1l1.1-3.5h1l-2.3,7h-0.7l-2.3-7h1l1.1,3.5
							L-188.1,119.9L-188.1,119.9z"/>
						<path class="st0" d="M-184.6,121.5v-7h0.9v7H-184.6z"/>
						<path class="st0" d="M-179.9,114.5c0.5,0,1,0.1,1.4,0.3s0.7,0.5,1,1c0.1,0.3,0.2,0.6,0.2,0.9c0,0.3,0,0.7,0,1.2
							c0,0.5,0,0.9,0,1.3c0,0.4-0.1,0.7-0.2,1c-0.1,0.3-0.3,0.5-0.4,0.7s-0.4,0.3-0.6,0.4s-0.5,0.2-0.7,0.2c-0.3,0-0.5,0.1-0.8,0.1
							h-2.1v-7H-179.9z M-178.2,117.3c0-0.4,0-0.7-0.1-1c-0.1-0.3-0.2-0.5-0.4-0.6c-0.2-0.2-0.3-0.3-0.6-0.3
							c-0.2-0.1-0.5-0.1-0.7-0.1h-1.4v5.3h1.4c0.3,0,0.6,0,0.8-0.1c0.2-0.1,0.4-0.2,0.6-0.4c0.1-0.2,0.2-0.4,0.3-0.6
							c0.1-0.2,0.1-0.5,0.1-0.8V117.3z"/>
						<path class="st0" d="M-176,121.5v-7h4.4v0.8h-3.5v2.2h3v0.8h-3v2.3h3.5v0.8H-176z"/>
						<path class="st0" d="M-168.4,114.4c0.4,0,0.7,0.1,1,0.2c0.3,0.1,0.6,0.3,0.8,0.5c0.2,0.2,0.4,0.5,0.5,0.8s0.2,0.7,0.2,1v1.9
							c0,0.4-0.1,0.8-0.2,1.1c-0.1,0.3-0.3,0.6-0.5,0.8s-0.5,0.4-0.8,0.5c-0.3,0.1-0.6,0.2-1,0.2c-0.4,0-0.8-0.1-1.1-0.2
							c-0.3-0.1-0.6-0.3-0.8-0.6c-0.2-0.2-0.4-0.5-0.5-0.8c-0.1-0.3-0.1-0.6-0.1-1V117c0-0.3,0-0.7,0.1-1c0.1-0.3,0.3-0.6,0.5-0.8
							c0.2-0.2,0.5-0.4,0.8-0.6C-169.1,114.5-168.8,114.4-168.4,114.4z M-168.4,115.3c-0.3,0-0.5,0-0.7,0.2
							c-0.2,0.1-0.4,0.2-0.5,0.4c-0.1,0.2-0.2,0.4-0.3,0.6c-0.1,0.2-0.1,0.4-0.1,0.7v1.9c0,0.2,0,0.5,0.1,0.7
							c0.1,0.2,0.2,0.4,0.3,0.6c0.1,0.2,0.3,0.3,0.5,0.4c0.2,0.1,0.4,0.2,0.7,0.2c0.2,0,0.5,0,0.7-0.1c0.2-0.1,0.4-0.2,0.5-0.4
							c0.1-0.2,0.2-0.4,0.3-0.6s0.1-0.5,0.1-0.7V117c0-0.2,0-0.5-0.1-0.7s-0.2-0.4-0.3-0.6c-0.1-0.2-0.3-0.3-0.5-0.4
							C-167.9,115.3-168.1,115.3-168.4,115.3z"/>
						<path class="st0" d="M-162.4,120.7c0.2,0,0.4,0,0.6-0.1c0.2-0.1,0.4-0.2,0.5-0.4s0.3-0.3,0.3-0.5c0.1-0.2,0.1-0.4,0.1-0.6
							v-0.5h-1.5v-0.8h2.4v1.4c0,0.4-0.1,0.7-0.2,1c-0.1,0.3-0.3,0.6-0.5,0.8c-0.2,0.2-0.5,0.4-0.8,0.5c-0.3,0.1-0.6,0.2-1,0.2
							c-0.4,0-0.8-0.1-1.1-0.2c-0.3-0.1-0.6-0.3-0.8-0.6c-0.2-0.2-0.4-0.5-0.5-0.8c-0.1-0.3-0.2-0.6-0.2-1V117c0-0.3,0-0.7,0.1-1
							s0.2-0.6,0.5-0.8c0.2-0.2,0.5-0.4,0.8-0.6c0.3-0.1,0.7-0.2,1.1-0.2c0.6,0,1,0.1,1.4,0.4c0.4,0.3,0.7,0.6,0.8,1.1l-0.8,0.4
							c-0.1-0.3-0.3-0.5-0.5-0.7c-0.3-0.2-0.6-0.3-0.9-0.3c-0.3,0-0.5,0-0.7,0.2c-0.2,0.1-0.4,0.2-0.5,0.4c-0.1,0.2-0.2,0.4-0.3,0.6
							c-0.1,0.2-0.1,0.4-0.1,0.6v1.9c0,0.2,0,0.5,0.1,0.7c0.1,0.2,0.2,0.4,0.3,0.6c0.1,0.2,0.3,0.3,0.5,0.4
							S-162.7,120.7-162.4,120.7z"/>
						<path class="st0" d="M-154.4,121.5l-0.6-1.6h-2.9l-0.6,1.6h-0.9l2.5-7h0.8l2.5,7H-154.4z M-155.9,117.2l-0.5-1.5h0l-0.5,1.4
							l-0.7,2h2.4L-155.9,117.2z"/>
						<path class="st0" d="M-147.5,121.5v-5l0,0l-0.5,1.3l-1.2,2.6h-0.8l-1.2-2.7l-0.5-1.2l0,0v4.9h-0.9v-7h0.9l1.5,3.2l0.7,1.6h0
							l0.7-1.6l1.5-3.3h0.9v7H-147.5z"/>
						<path class="st0" d="M-145.2,121.5v-7h4.4v0.8h-3.5v2.2h3v0.8h-3v2.3h3.5v0.8H-145.2z"/>
					</g>
					<g>
					</g>
					<g class="st2">
						<path class="st0" d="M-175.5,133.5c0,0.3-0.1,0.6-0.2,0.9s-0.3,0.5-0.5,0.6c-0.2,0.2-0.5,0.3-0.8,0.4c-0.3,0.1-0.6,0.1-1,0.1
							c-0.2,0-0.4,0-0.7-0.1s-0.5-0.1-0.7-0.2s-0.5-0.2-0.7-0.3c-0.2-0.1-0.4-0.3-0.6-0.4l0.6-0.7c0.3,0.3,0.6,0.5,1,0.6
							c0.4,0.1,0.8,0.2,1.2,0.2c0.2,0,0.4,0,0.6-0.1c0.2,0,0.4-0.1,0.5-0.2c0.1-0.1,0.2-0.2,0.3-0.4c0.1-0.2,0.1-0.3,0.1-0.5
							c0-0.2,0-0.4-0.1-0.5c-0.1-0.1-0.2-0.2-0.4-0.3c-0.1-0.1-0.3-0.2-0.5-0.2s-0.4-0.1-0.6-0.1c-0.3-0.1-0.5-0.1-0.8-0.2
							c-0.3-0.1-0.5-0.2-0.7-0.3c-0.2-0.1-0.4-0.3-0.5-0.5c-0.1-0.2-0.2-0.5-0.2-0.9c0-0.3,0.1-0.6,0.2-0.8c0.1-0.2,0.3-0.4,0.5-0.6
							c0.2-0.2,0.5-0.3,0.7-0.4c0.3-0.1,0.6-0.1,0.9-0.1c0.5,0,0.9,0.1,1.2,0.2c0.4,0.1,0.7,0.3,1,0.5l-0.5,0.8
							c-0.3-0.2-0.5-0.3-0.8-0.4c-0.3-0.1-0.6-0.2-0.9-0.2c-0.5,0-0.8,0.1-1.1,0.3s-0.4,0.5-0.4,0.8c0,0.2,0,0.3,0.1,0.5
							c0.1,0.1,0.2,0.2,0.4,0.3c0.2,0.1,0.4,0.2,0.6,0.2s0.5,0.1,0.8,0.2c0.2,0,0.4,0.1,0.7,0.2c0.2,0.1,0.4,0.2,0.6,0.3
							c0.2,0.1,0.3,0.3,0.5,0.5C-175.6,132.8-175.5,133.1-175.5,133.5z"/>
						<path class="st0" d="M-174.5,135.5v-7h4.4v0.8h-3.5v2.2h3v0.8h-3v2.3h3.5v0.8H-174.5z"/>
						<path class="st0" d="M-165.3,135.5l-1.3-3.1h-1.6v3.1h-0.9v-7h2.8c0.3,0,0.5,0,0.8,0.1c0.2,0.1,0.5,0.2,0.6,0.4
							c0.2,0.2,0.3,0.4,0.4,0.6c0.1,0.2,0.2,0.5,0.2,0.8c0,0.5-0.1,0.9-0.4,1.2c-0.3,0.3-0.6,0.6-1.1,0.7l1.4,3.2H-165.3z
							 M-165.1,130.4c0-0.4-0.1-0.7-0.4-0.9c-0.2-0.2-0.6-0.3-0.9-0.3h-1.8v2.4h1.8c0.4,0,0.7-0.1,1-0.3
							C-165.3,131.1-165.1,130.8-165.1,130.4z"/>
						<path class="st0" d="M-163.1,135.5v-7h0.9v7H-163.1z"/>
						<path class="st0" d="M-160.7,135.5v-7h4.4v0.8h-3.5v2.2h3v0.8h-3v2.3h3.5v0.8H-160.7z"/>
						<path class="st0" d="M-150.8,133.5c0,0.3-0.1,0.6-0.2,0.9c-0.1,0.2-0.3,0.5-0.5,0.6c-0.2,0.2-0.5,0.3-0.8,0.4
							c-0.3,0.1-0.6,0.1-1,0.1c-0.2,0-0.4,0-0.7-0.1c-0.2,0-0.5-0.1-0.7-0.2c-0.2-0.1-0.5-0.2-0.7-0.3c-0.2-0.1-0.4-0.3-0.6-0.4
							l0.6-0.7c0.3,0.3,0.6,0.5,1,0.6c0.4,0.1,0.8,0.2,1.2,0.2c0.2,0,0.4,0,0.6-0.1c0.2,0,0.4-0.1,0.5-0.2c0.1-0.1,0.2-0.2,0.3-0.4
							c0.1-0.2,0.1-0.3,0.1-0.5c0-0.2,0-0.4-0.1-0.5c-0.1-0.1-0.2-0.2-0.4-0.3c-0.1-0.1-0.3-0.2-0.5-0.2s-0.4-0.1-0.6-0.1
							c-0.3-0.1-0.5-0.1-0.8-0.2c-0.3-0.1-0.5-0.2-0.7-0.3c-0.2-0.1-0.4-0.3-0.5-0.5c-0.1-0.2-0.2-0.5-0.2-0.9
							c0-0.3,0.1-0.6,0.2-0.8s0.3-0.4,0.5-0.6c0.2-0.2,0.5-0.3,0.7-0.4c0.3-0.1,0.6-0.1,0.9-0.1c0.5,0,0.9,0.1,1.2,0.2
							s0.7,0.3,1,0.5l-0.5,0.8c-0.3-0.2-0.5-0.3-0.8-0.4c-0.3-0.1-0.6-0.2-0.9-0.2c-0.5,0-0.8,0.1-1.1,0.3c-0.2,0.2-0.4,0.5-0.4,0.8
							c0,0.2,0,0.3,0.1,0.5c0.1,0.1,0.2,0.2,0.4,0.3s0.4,0.2,0.6,0.2c0.2,0.1,0.5,0.1,0.8,0.2c0.2,0,0.4,0.1,0.7,0.2
							c0.2,0.1,0.4,0.2,0.6,0.3s0.3,0.3,0.5,0.5S-150.8,133.1-150.8,133.5z"/>
					</g>
				</g>
				<g id="guinness" transform="translate(56.715299, 0.000000)" sketch:type="MSShapeGroup">
					<g id="Fill-1_1_">
						<path class="st0" d="M-196.2,139.6c0.3,0,0.5,0,0.8,0c0.3,0,0.5,0,0.8,0v-15.4h-1.6V139.6L-196.2,139.6z M-200.5,139
							c0.5,0.1,1.1,0.2,1.7,0.3v-15.1h-1.7V139L-200.5,139z M-204.7,137.6c0.6,0.3,1.2,0.5,1.8,0.7v-13l-1.8,0.8V137.6L-204.7,137.6
							z M-210.4,119.5h30v-2.3h-30V119.5z M-208,122.6h25.3v-1.3H-208V122.6z M-187.9,138.4c0.6-0.2,1.2-0.4,1.8-0.7V126l-1.8-0.8
							V138.4L-187.9,138.4z"/>
					</g>
					<g id="Fill-2_1_">
						<path class="st0" d="M-195.4,98.7l2,6h6.3l-5.1,3.7l2,6l-5.1-3.7l-5.1,3.7l2-6l-5.1-3.7h6.3L-195.4,98.7 M-191.9,139.3
							c0.6-0.1,1.1-0.2,1.7-0.3v-14.8h-1.7V139.3L-191.9,139.3z"/>
					</g>
				</g>
			</g>
		</g>
	</g>
</g>
</svg>
