<?xml version="1.0" encoding="UTF-8" standalone="no"?>
<svg width="145px" height="85px" viewBox="0 0 145 85" version="1.1" xmlns="http://www.w3.org/2000/svg" xmlns:xlink="http://www.w3.org/1999/xlink" xmlns:sketch="http://www.bohemiancoding.com/sketch/ns">
    <!-- Generator: Sketch 3.3.2 (12043) - http://www.bohemiancoding.com/sketch -->
    <title>award #3: eurogamer</title>
    <desc>Created with Sketch.</desc>
    <defs></defs>
    <g id="Famous" stroke="none" stroke-width="1" fill="none" fill-rule="evenodd" sketch:type="MSPage">
        <g id="famous_game" sketch:type="MSArtboardGroup" transform="translate(-823.000000, -597.000000)" fill="#FFFFFF">
            <g id="awards-white-horizontal" sketch:type="MSLayerGroup" transform="translate(472.000000, 595.000000)">
                <g id="award-#3:-eurogamer" transform="translate(351.634855, 2.064516)">
                    <g id="laurel" sketch:type="MSShapeGroup">
                        <g id="right-branch" transform="translate(109.305849, 0.000000)">
                            <path d="M4.60697717,0.26098866 C4.60697717,0.26098866 9.67149561,1.60031708 11.5344495,3.98782781 C13.3971216,6.37533854 12.6403318,7.53992293 12.6403318,7.53992293 C12.6403318,7.53992293 9.49680846,7.83106903 7.34308502,5.4435583 C5.18907982,3.05604756 4.60697717,0.26098866 4.60697717,0.26098866" id="Fill-1"></path>
                            <path d="M15.2366899,0.901340967 C15.2366899,0.901340967 19.8101121,4.91904437 19.8101121,9.69462953 C19.8101121,12.9555786 18.6456251,13.1303226 18.6456251,13.1303226 C18.6456251,13.1303226 15.728068,11.5579082 15.2366899,8.12221513 C14.7453119,4.68652207 15.2366899,0.901340967 15.2366899,0.901340967" id="Fill-2"></path>
                            <path d="M16.9970856,12.6060905 C16.9970856,12.6060905 15.3088188,9.8110316 12.2819414,9.8110316 C9.25478224,9.8110316 9.31310521,10.4516657 7.79952562,10.4516657 C8.49799245,11.8783662 10.7683618,13.9454189 12.7476799,13.9454189 C16.2986187,13.9454189 16.9970856,12.6060905 16.9970856,12.6060905" id="Fill-3"></path>
                            <path d="M23.1376205,8.99565342 C23.1376205,8.99565342 25.4077081,12.9555786 25.4077081,17.9634042 C25.4077081,21.4574392 23.7777643,22.2728174 23.7777643,22.2728174 C23.7777643,22.2728174 21.4493537,20.4092569 21.4493537,15.0519432 C21.4493537,9.69462953 23.1376205,8.99565342 23.1376205,8.99565342" id="Fill-4"></path>
                            <path d="M21.935942,20.2345128 C21.935942,20.2345128 21.935942,18.7787823 20.3059982,17.1483078 C18.6760544,15.5178333 12.6800591,15.8670395 12.6800591,15.8670395 C12.6800591,15.8670395 14.9504284,19.8853066 17.8609417,20.4092569 C20.7717367,20.9334889 21.935942,20.2345128 21.935942,20.2345128" id="Fill-5"></path>
                            <path d="M28.9589287,18.7787823 C28.9589287,18.7787823 29.9484468,20.9334889 29.9484468,25.5337664 C29.9484468,30.1340438 26.9796106,32.3470924 26.9796106,32.3470924 C26.9796106,32.3470924 25.9317695,32.2304085 25.9317695,25.5627964 C25.9317695,21.6905252 28.9589287,18.7787823 28.9589287,18.7787823" id="Fill-6"></path>
                            <path d="M25.098061,29.8428977 C25.098061,29.8428977 25.5057583,26.8147528 21.7218093,24.369182 C17.9378604,21.9233293 16.7153321,22.2728174 16.7153321,22.2728174 C16.7153321,22.2728174 18.2872347,28.1543631 21.7798505,29.4353496 C25.2727482,30.716336 25.098061,29.8428977 25.098061,29.8428977" id="Fill-7"></path>
                            <path d="M33.3156824,30.133762 C33.3154007,30.133762 29.7723509,32.9919542 28.7749437,35.7827854 C28.3038519,37.1006936 28.0198444,39.8562942 27.9017897,42.9453176 C27.866007,43.8770979 31.7001081,40.5222944 32.4422467,38.1119542 C32.6431369,37.4600462 33.8394621,35.1993658 33.3156824,30.133762" id="Fill-8"></path>
                            <path d="M20.0918656,30.4835319 C20.0918656,30.4835319 19.113054,35.757983 22.8276917,38.9273324 C24.8070097,40.615867 26.8446507,41.4312452 26.8446507,41.4312452 C26.8446507,41.4312452 27.579182,37.3909942 24.5742814,34.3851151 C22.5366403,32.3470924 21.2560709,31.0074821 20.0918656,30.4835319" id="Fill-9"></path>
                            <path d="M35.0036674,43.7023538 C35.0036674,43.7023538 33.7230979,49.4672157 31.6854569,51.6219223 C29.6480977,53.7766289 27.6107384,54.1258351 27.1449999,54.009433 C26.6792614,53.8930309 26.9703128,50.3409358 29.5317335,47.370851 C32.0931542,44.4010481 35.0036674,43.7023538 35.0036674,43.7023538" id="Fill-10"></path>
                            <path d="M21.372435,39.6843686 C21.372435,39.6843686 25.2727482,44.5757921 25.6801637,45.8567786 C26.0878609,47.1380469 26.8446507,49.7003017 25.971215,52.2625564 C24.4201622,52.2746758 22.3619532,48.9432654 22.0128606,47.8950831 C21.6634864,46.8469008 20.4409581,43.5859518 21.372435,39.6843686" id="Fill-11"></path>
                            <path d="M21.0295411,49.7583618 C21.0295411,49.7583618 23.323296,55.054515 23.7019726,58.5516503 C23.9921787,61.2303072 22.0128606,63.5014158 22.0128606,63.5014158 C22.0128606,63.5014158 19.3350758,59.8909788 19.3350758,55.9893956 C19.3350758,52.0878124 21.0295411,49.7583618 21.0295411,49.7583618" id="Fill-12"></path>
                            <path d="M32.733298,58.2605042 C32.733298,58.2605042 31.6274157,61.8125994 28.2218616,64.4912562 C24.8163076,67.169913 22.2548869,65.4230364 22.2548869,65.4230364 C22.2548869,65.4230364 23.7501525,61.1139051 26.9610149,59.4250886 C30.1718773,57.7362722 32.733298,58.2605042 32.733298,58.2605042" id="Fill-13"></path>
                            <path d="M18.2289117,58.1835605 C18.2289117,58.1835605 14.9107012,62.3497963 14.9107012,65.982781 C14.9107012,69.6157657 15.9005011,71.4209843 15.9005011,71.4209843 C15.9005011,71.4209843 18.8693373,70.139716 19.0440244,65.1318903 C19.2187116,60.1237829 18.2289117,58.1835605 18.2289117,58.1835605" id="Fill-14"></path>
                            <path d="M27.338001,70.8967522 C27.338001,70.8967522 24.3409895,69.3246196 20.6877741,70.0233139 C17.034277,70.72229 15.4626562,73.5173489 15.4626562,73.5173489 C15.4626562,73.5173489 16.4521744,75.4389695 19.7123437,75.3225674 C22.9722312,75.2061654 27.338001,70.8967522 27.338001,70.8967522" id="Fill-15"></path>
                            <path d="M13.1643932,66.5876208 C13.1643932,66.5876208 8.8566646,68.2772828 7.8668647,72.5861323 C6.87734655,76.8947 7.51777216,77.4189321 7.51777216,77.4189321 C7.51777216,77.4189321 10.7776597,77.5361797 12.1165521,72.5861323 C13.4554446,67.6358031 13.1643932,66.5876208 13.1643932,66.5876208" id="Fill-16"></path>
                            <path d="M20.3245939,80.2232919 C20.3245939,80.2232919 16.4242808,76.7881625 12.8733419,77.1373687 C9.32240307,77.4865749 8.04155184,79.1170494 8.04155184,79.1170494 C8.04155184,79.1170494 8.79355183,82.4363404 13.1911598,82.3779985 C17.5884861,82.3196565 20.3245939,80.2232919 20.3245939,80.2232919" id="Fill-17"></path>
                            <path d="M0.346301353,81.0989849 C0.346301353,81.0989849 9.95268556,82.5121568 22.3912555,64.917688 C30.8106124,53.0083188 27.4738062,32.5274733 25.5440768,27.4542596 C25.2617598,26.7118793 23.6115298,21.6426115 20.8838745,17.2139778 C17.0241339,10.9471496 12.494947,7.37335242 12.494947,7.37335242 C12.494947,7.37335242 20.0597457,15.4417351 22.6637111,21.2536651 C26.741529,30.3555741 27.0373701,40.7362149 27.0601921,43.5357833 C27.0973836,48.1230959 25.8410449,55.7061411 23.8465122,59.9369195 C15.1546997,78.3743873 0.65144035,80.1426841 0.65144035,80.1426841 L0.346301353,81.0989849" id="Fill-18"></path>
                        </g>
                        <g id="left-branch">
                            <path d="M30.5998345,0.26098866 C30.5998345,0.26098866 25.5353161,1.60031708 23.6723622,3.98782781 C21.8096901,6.37533854 22.5664798,7.53992293 22.5664798,7.53992293 C22.5664798,7.53992293 25.7100032,7.83106903 27.8637266,5.4435583 C30.0177318,3.05604756 30.5998345,0.26098866 30.5998345,0.26098866" id="Fill-19"></path>
                            <path d="M19.9701217,0.901340967 C19.9701217,0.901340967 15.3966996,4.91904437 15.3966996,9.69462953 C15.3966996,12.9555786 16.5611866,13.1303226 16.5611866,13.1303226 C16.5611866,13.1303226 19.4787437,11.5579082 19.9701217,8.12221513 C20.461218,4.68652207 19.9701217,0.901340967 19.9701217,0.901340967" id="Fill-20"></path>
                            <path d="M18.2097261,12.6060905 C18.2097261,12.6060905 19.8979928,9.8110316 22.9248702,9.8110316 C25.9520294,9.8110316 25.8939882,10.4516657 27.407286,10.4516657 C26.7088192,11.8783662 24.4384498,13.9454189 22.4591318,13.9454189 C18.9081929,13.9454189 18.2097261,12.6060905 18.2097261,12.6060905" id="Fill-21"></path>
                            <path d="M12.0691912,8.99565342 C12.0691912,8.99565342 9.79910357,12.9555786 9.79910357,17.9634042 C9.79910357,21.4574392 11.4290473,22.2728174 11.4290473,22.2728174 C11.4290473,22.2728174 13.7574579,20.4092569 13.7574579,15.0519432 C13.7574579,9.69462953 12.0691912,8.99565342 12.0691912,8.99565342" id="Fill-22"></path>
                            <path d="M13.2708697,20.2345128 C13.2708697,20.2345128 13.2708697,18.7787823 14.9008135,17.1483078 C16.5307572,15.5178333 22.5267526,15.8670395 22.5267526,15.8670395 C22.5267526,15.8670395 20.2563832,19.8853066 17.34587,20.4092569 C14.435075,20.9334889 13.2708697,20.2345128 13.2708697,20.2345128" id="Fill-23"></path>
                            <path d="M6.24788297,18.7787823 C6.24788297,18.7787823 5.25836482,20.9334889 5.25836482,25.5337664 C5.25836482,30.1340438 8.22720102,32.3470924 8.22720102,32.3470924 C8.22720102,32.3470924 9.27504214,32.2304085 9.27504214,25.5627964 C9.27504214,21.6905252 6.24788297,18.7787823 6.24788297,18.7787823" id="Fill-24"></path>
                            <path d="M10.1087506,29.8428977 C10.1087506,29.8428977 9.70105337,26.8147528 13.4850023,24.369182 C17.2689513,21.9233293 18.4914796,22.2728174 18.4914796,22.2728174 C18.4914796,22.2728174 16.919577,28.1543631 13.4269611,29.4353496 C9.93406348,30.716336 10.1087506,29.8428977 10.1087506,29.8428977" id="Fill-25"></path>
                            <path d="M1.89112922,30.133762 C1.89112922,30.133762 5.43446073,32.9919542 6.43186798,35.7827854 C6.90295976,37.1006936 7.18696725,39.8562942 7.30502195,42.9453176 C7.34080464,43.8770979 3.50670356,40.5222944 2.76456495,38.1119542 C2.56367473,37.4600462 1.36734954,35.1993658 1.89112922,30.133762" id="Fill-26"></path>
                            <path d="M15.1149461,30.4835319 C15.1149461,30.4835319 16.0937576,35.757983 12.37912,38.9273324 C10.399802,40.615867 8.36216093,41.4312452 8.36216093,41.4312452 C8.36216093,41.4312452 7.62762966,37.3909942 10.6325303,34.3851151 C12.6701713,32.3470924 13.9507408,31.0074821 15.1149461,30.4835319" id="Fill-27"></path>
                            <path d="M0.203144244,43.7023538 C0.203144244,43.7023538 1.48371372,49.4672157 3.52135474,51.6219223 C5.55871401,53.7766289 7.59607327,54.1258351 8.06181174,54.009433 C8.52755021,53.8930309 8.23649889,50.3409358 5.67507818,47.370851 C3.11365748,44.4010481 0.203144244,43.7023538 0.203144244,43.7023538" id="Fill-28"></path>
                            <path d="M13.8343766,39.6843686 C13.8343766,39.6843686 9.93406348,44.5757921 9.52664798,45.8567786 C9.11895072,47.1380469 8.36216093,49.7003017 9.23559665,52.2625564 C10.7866495,52.2746758 12.8445767,48.9432654 13.193951,47.8950831 C13.5433253,46.8469008 14.7658536,43.5859518 13.8343766,39.6843686" id="Fill-29"></path>
                            <path d="M14.1772706,49.7583618 C14.1772706,49.7583618 11.8835157,55.054515 11.504839,58.5516503 C11.214633,61.2303072 13.193951,63.5014158 13.193951,63.5014158 C13.193951,63.5014158 15.8717359,59.8909788 15.8717359,55.9893956 C15.8717359,52.0878124 14.1772706,49.7583618 14.1772706,49.7583618" id="Fill-30"></path>
                            <path d="M2.47351362,58.2605042 C2.47323187,58.2605042 3.57939595,61.8125994 6.98495002,64.4912562 C10.3905041,67.169913 12.9519248,65.4230364 12.9519248,65.4230364 C12.9519248,65.4230364 11.4566592,61.1139051 8.24579675,59.4250886 C5.03465257,57.7362722 2.47351362,58.2605042 2.47351362,58.2605042" id="Fill-31"></path>
                            <path d="M16.9779,58.1835605 C16.9779,58.1835605 20.2961105,62.3497963 20.2961105,65.982781 C20.2961105,69.6157657 19.3063106,71.4209843 19.3063106,71.4209843 C19.3063106,71.4209843 16.3374744,70.139716 16.1627872,65.1318903 C15.9883818,60.1237829 16.9779,58.1835605 16.9779,58.1835605" id="Fill-32"></path>
                            <path d="M7.86881062,70.8967522 C7.86881062,70.8967522 10.8658222,69.3246196 14.5190375,70.0233139 C18.1725346,70.72229 19.7441554,73.5173489 19.7441554,73.5173489 C19.7441554,73.5173489 18.7546373,75.4389695 15.494468,75.3225674 C12.2345805,75.2061654 7.86881062,70.8967522 7.86881062,70.8967522" id="Fill-33"></path>
                            <path d="M22.0424184,66.5876208 C22.0424184,66.5876208 26.3501471,68.2772828 27.339947,72.5861323 C28.3294651,76.8947 27.6890395,77.4189321 27.6890395,77.4189321 C27.6890395,77.4189321 24.429152,77.5361797 23.0902595,72.5861323 C21.7513671,67.6358031 22.0424184,66.5876208 22.0424184,66.5876208" id="Fill-34"></path>
                            <path d="M14.8822177,80.2232919 C14.8822177,80.2232919 18.7825309,76.7881625 22.3334697,77.1373687 C25.8844086,77.4865749 27.1652598,79.1170494 27.1652598,79.1170494 C27.1652598,79.1170494 26.4132598,82.4363404 22.0156518,82.3779985 C17.6183256,82.3196565 14.8822177,80.2232919 14.8822177,80.2232919" id="Fill-35"></path>
                            <path d="M34.8605103,81.0989849 C34.8605103,81.0989849 25.2538443,82.5121568 12.8155561,64.917688 C4.39619923,53.0083188 7.73300545,32.5274733 9.6627349,27.4542596 C9.94505187,26.7118793 11.5952819,21.6426115 14.3229371,17.2139778 C18.1826778,10.9471496 22.7118646,7.37335242 22.7118646,7.37335242 C22.7118646,7.37335242 15.147066,15.4417351 12.5431005,21.2536651 C8.4652827,30.3555741 8.16972332,40.7362149 8.14690129,43.5357833 C8.10942808,48.1230959 9.36576675,55.7061411 11.3602995,59.9369195 C20.052112,78.3743873 34.5553713,80.1426841 34.5553713,80.1426841 L34.8605103,81.0989849" id="Fill-36"></path>
                        </g>
                    </g>
                    <g id="#1" transform="translate(27.842056, 45.580645)" font-weight="normal" font-family="PF DinText Pro" line-spacing="12" sketch:type="MSTextLayer" font-size="10" sketch:alignment="middle" opacity="0.50157416">
                        <text id="100-OUT-OF-100:">
                            <tspan x="10.7010521" y="9">100 OUT OF 100:</tspan>
                            <tspan x="7.86605207" y="23">BEST FRANCHISE</tspan>
                            <tspan x="19.4860521" y="37">OF THE ERA</tspan>
                        </text>
                    </g>
                    <g id="Eurogamer_logo" transform="translate(31.007561, 20.645161)" sketch:type="MSShapeGroup">
                        <path d="M0.118775531,1.46979538 L7.41223097,1.46979538 L7.41223097,3.04839627 L2.48422054,3.04839627 L2.48422054,4.23234694 L7.21511055,4.23234694 L7.21511055,5.81094783 L2.48422054,5.81094783 L2.48422054,7.38954872 L7.60935139,7.38954872 L7.60935139,9.16547472 L0.118775531,9.16547472 L0.118775531,1.46979538 L0.118775531,1.46979538 Z" id="polygon15970"></path>
                        <path d="M14.1143186,1.4697866 L16.479755,1.4697866 L16.479755,6.00826515 C16.479755,6.40290356 16.2826404,6.79756685 16.0855135,7.19220526 C16.0855135,7.58685611 15.6912845,7.98150696 15.2970306,8.37614536 C15.0999036,8.57347701 14.7056746,8.77080866 14.3114207,8.9681403 C13.7200647,9.16544706 13.1287087,9.16544706 12.3402258,9.16544706 L10.9603869,9.16544706 C10.566133,9.16544706 10.171904,8.9681403 9.77766255,8.77080866 C9.38342108,8.77080866 9.18629414,8.37614536 8.79206511,8.1788386 C8.59493816,7.78417531 8.39781122,7.58685611 8.2006967,7.19220526 C8.00358219,6.79756685 8.00358219,6.40290356 8.00358219,6.00826515 L8.00358219,1.4697866 L10.369031,1.4697866 L10.369031,6.00826515 C10.369031,6.6002352 10.566133,6.79756685 10.76326,6.99487361 C11.1575139,7.3895369 11.5517429,7.3895369 12.1430989,7.3895369 C12.7344673,7.3895369 13.3258357,7.3895369 13.5229502,6.99487361 C13.9171917,6.79756685 14.1143186,6.6002352 14.1143186,6.00826515 L14.1143186,1.4697866 L14.1143186,1.4697866 Z" id="path15972"></path>
                        <path d="M19.2394452,4.42966175 L21.407767,4.42966175 L21.999123,4.42966175 C22.1962499,4.42966175 22.3933769,4.2323301 22.3933769,4.2323301 C22.5904789,4.03499846 22.5904789,3.83766681 22.5904789,3.64036005 C22.5904789,3.4430284 22.5904789,3.24569676 22.3933769,3.04837755 C22.1962499,3.04837755 21.801996,2.85105835 21.407767,2.85105835 L19.2394452,2.85105835 L19.2394452,4.42966175 L19.2394452,4.42966175 Z M16.8739964,9.16544706 L16.8739964,1.4697866 L21.407767,1.4697866 C22.3933769,1.4697866 22.9847328,1.4697866 23.3789619,1.66709336 C23.7732158,1.66709336 24.1674448,1.864425 24.3645717,2.2590883 C24.7588132,2.6537267 24.9559277,3.04837755 24.9559277,3.4430284 C24.9559277,4.03499846 24.7588132,4.2323301 24.5616987,4.62696851 C24.3645717,5.0216318 23.9703303,5.21896345 23.7732158,5.41627021 C23.5760888,5.41627021 23.3789619,5.61360186 23.1818598,5.61360186 C23.3789619,5.8109335 23.3789619,5.8109335 23.5760888,6.00826515 C23.5760888,6.00826515 23.7732158,6.20557191 23.9703303,6.40290356 C24.1674448,6.6002352 24.1674448,6.79756685 24.1674448,6.79756685 C24.7588132,7.58685611 25.5472837,9.16544706 25.5472837,9.16544706 L22.9847328,9.16544706 C22.9847328,9.16544706 21.999123,7.58685611 21.6048939,6.79756685 C21.407767,6.40290356 21.2106401,6.40290356 21.0135255,6.20557191 C20.816411,6.00826515 20.2250426,6.00826515 19.8308012,6.00826515 L19.2394452,6.00826515 L19.2394452,9.16544706 L16.8739964,9.16544706 L16.8739964,9.16544706 Z" id="path15974"></path>
                        <path d="M41.9082981,6.20557191 L41.9082981,4.62696851 L45.8506879,4.62696851 L45.8506879,7.98150696 C45.0622049,8.37614536 44.470849,8.77080866 43.682366,8.9681403 C43.0910101,9.16544706 42.4996541,9.16544706 41.5140442,9.16544706 C40.5284468,9.16544706 39.7399639,9.16544706 38.9514934,8.77080866 C38.3601125,8.37614536 37.9658835,7.98150696 37.5716296,7.3895369 C37.1774006,6.79756685 36.9802736,6.00826515 36.9802736,5.21896345 C36.9802736,4.42966175 37.1774006,3.64036005 37.5716296,3.04837755 C37.9658835,2.45639506 38.5572395,1.864425 39.3457224,1.66709336 C39.9370784,1.4697866 40.7255613,1.27245495 41.7111712,1.27245495 C42.696781,1.27245495 43.288137,1.27245495 43.879493,1.4697866 C44.2737344,1.66709336 44.6679759,1.864425 45.0622049,2.2590883 C45.4564588,2.45639506 45.6535858,2.85105835 45.8506879,3.4430284 L43.0910101,3.83766681 C43.0910101,3.64036005 42.8938831,3.24569676 42.696781,3.24569676 C42.3025271,3.04837755 42.1054002,2.85105835 41.7111712,2.85105835 C41.1198152,2.85105835 40.3313323,3.04837755 39.9370784,3.4430284 C39.5428493,3.83766681 39.3457224,4.42966175 39.3457224,5.21896345 C39.3457224,6.00826515 39.5428493,6.6002352 39.9370784,6.99487361 C40.3313323,7.3895369 41.3169173,7.58685611 41.9082981,7.58685611 C42.3025271,7.58685611 42.4996541,7.58685611 42.8938831,7.3895369 C43.0910101,7.3895369 43.4852515,7.19220526 43.879493,6.99487361 L43.879493,6.20557191 L41.9082981,6.20557191 L41.9082981,6.20557191 Z" id="path15976"></path>
                        <path d="M51.5671953,6.20557191 L50.3844584,3.4430284 L49.3988734,6.20557191 L51.5671953,6.20557191 L51.5671953,6.20557191 Z M52.1585512,7.78417531 L48.6103905,7.78417531 L48.2161366,9.16544706 L45.6535858,9.16544706 L49.0046195,1.4697866 L51.9614243,1.4697866 L55.3124829,9.16544706 L52.7499072,9.16544706 L52.1585512,7.78417531 L52.1585512,7.78417531 Z" id="path15978"></path>
                        <path d="M55.3124924,1.46979538 L58.8606599,1.46979538 L60.2405028,6.00827294 L61.8174661,1.46979538 L65.1685132,1.46979538 L65.1685132,9.16547472 L63.0001886,9.16547472 L63.0001886,3.24572138 L61.2261049,9.16547472 L59.2549007,9.16547472 L57.4808169,3.24572138 L57.4808169,9.16547472 L55.3124924,9.16547472 L55.3124924,1.46979538 L55.3124924,1.46979538 Z" id="polygon15980"></path>
                        <path d="M35.4033078,6.99487361 C35.2062057,7.19220526 35.0090788,7.19220526 34.8119518,7.3895369 C34.4177228,7.3895369 34.2205958,7.3895369 34.0234689,7.19220526 L34.0234689,6.79756685 C34.0234689,6.79756685 34.0234689,6.79756685 33.8263419,6.79756685 L33.8263419,6.79756685 C33.8263419,6.6002352 33.4321129,6.79756685 33.4321129,6.99487361 C33.234986,7.19220526 33.6292399,7.19220526 33.6292399,7.3895369 L33.234986,7.3895369 C32.8407569,7.3895369 32.8407569,6.99487361 32.64363,6.79756685 C32.446503,6.6002352 32.052274,6.6002352 31.8551471,6.40290356 C31.8551471,6.40290356 31.8551471,6.20557191 31.6580201,6.20557191 L31.460918,6.20557191 C31.2637911,6.40290356 31.460918,6.40290356 31.460918,6.6002352 C31.6580201,6.79756685 32.052274,6.99487361 32.2493885,6.99487361 C32.446503,6.99487361 32.446503,7.19220526 32.64363,7.19220526 L32.446503,7.19220526 L32.2493885,7.19220526 C32.446503,7.3895369 32.446503,7.58685611 32.2493885,7.58685611 C32.2493885,7.19220526 31.6580201,6.99487361 31.2637911,6.99487361 C31.2637911,6.79756685 31.2637911,6.79756685 31.0666641,6.6002352 L30.8695372,6.6002352 C30.6724351,6.6002352 30.4753082,6.79756685 30.2781812,6.79756685 C29.8839522,6.99487361 29.6868252,7.19220526 29.4896983,7.58685611 C29.2925714,7.78417531 29.2925714,7.98150696 29.0954693,7.98150696 C28.8983423,8.1788386 28.7012154,8.1788386 28.5041009,7.98150696 L28.1098594,7.98150696 C27.9127325,7.78417531 27.9127325,7.58685611 27.9127325,7.3895369 C27.9127325,7.3895369 27.9127325,7.19220526 28.1098594,7.19220526 C28.1098594,6.99487361 27.9127325,6.79756685 28.1098594,6.79756685 C28.1098594,6.6002352 28.3069864,6.6002352 28.3069864,6.6002352 C28.5041009,6.79756685 28.8983423,6.79756685 29.0954693,6.79756685 C29.4896983,6.40290356 29.0954693,6.00826515 28.7012154,5.61360186 C28.8983423,5.61360186 28.8983423,5.8109335 29.0954693,5.8109335 C29.0954693,5.61360186 29.0954693,5.41627021 29.2925714,5.61360186 C29.6868252,5.61360186 29.8839522,5.21896345 30.0810543,5.0216318 L30.2781812,5.0216318 L30.2781812,4.82430016 C30.4753082,4.82430016 30.6724351,4.62696851 30.6724351,4.62696851 C30.6724351,4.42966175 30.4753082,4.2323301 30.4753082,4.2323301 C30.6724351,4.03499846 30.6724351,3.83766681 30.6724351,4.03499846 C30.8695372,4.03499846 30.8695372,4.03499846 30.8695372,4.2323301 L30.8695372,4.2323301 L31.0666641,4.2323301 L31.0666641,4.2323301 C31.0666641,4.2323301 31.0666641,4.2323301 30.8695372,4.2323301 L30.8695372,4.2323301 C30.6724351,4.2323301 30.8695372,4.62696851 31.0666641,4.62696851 C31.0666641,4.62696851 31.0666641,4.42966175 31.2637911,4.42966175 C31.2637911,4.42966175 31.2637911,4.42966175 31.460918,4.62696851 C31.460918,4.42966175 31.6580201,4.42966175 31.8551471,4.2323301 C31.8551471,4.2323301 32.052274,4.42966175 32.052274,4.2323301 C32.052274,4.03499846 32.052274,3.83766681 32.2493885,3.64036005 L32.446503,3.64036005 C32.446503,3.64036005 32.446503,3.64036005 32.446503,3.4430284 L32.2493885,3.4430284 C32.446503,3.24569676 32.64363,3.04837755 32.8407569,3.04837755 C32.8407569,2.85105835 32.64363,2.85105835 32.64363,2.85105835 L32.446503,3.04837755 L31.8551471,3.04837755 L31.8551471,2.6537267 C31.8551471,2.45639506 32.052274,2.45639506 32.052274,2.2590883 C31.8551471,2.2590883 31.8551471,2.06175665 31.8551471,2.06175665 L31.8551471,2.06175665 L31.6580201,2.06175665 C31.8551471,2.45639506 31.460918,2.6537267 31.460918,2.85105835 C31.460918,3.04837755 31.6580201,3.04837755 31.6580201,3.24569676 C31.6580201,3.4430284 31.460918,3.83766681 31.460918,4.03499846 L31.2637911,4.2323301 C31.0666641,4.03499846 31.0666641,3.64036005 30.6724351,3.64036005 C30.6724351,3.64036005 30.4753082,3.64036005 30.2781812,3.83766681 C30.2781812,3.4430284 30.0810543,3.24569676 30.0810543,3.04837755 C30.2781812,2.85105835 30.4753082,2.6537267 30.6724351,2.45639506 C30.6724351,2.2590883 30.8695372,2.06175665 30.8695372,1.864425 C30.8695372,1.864425 30.8695372,1.864425 30.8695372,1.66709336 C30.8695372,1.66709336 31.0666641,1.66709336 31.0666641,1.4697866 L31.0666641,1.4697866 C31.2637911,1.27245495 31.460918,1.27245495 31.460918,1.0751233 L32.052274,1.0751233 L32.052274,1.0751233 L32.446503,1.0751233 C32.64363,1.0751233 32.8407569,1.27245495 33.037859,1.27245495 C33.037859,1.4697866 33.037859,1.4697866 32.8407569,1.4697866 C32.8407569,1.4697866 32.64363,1.4697866 32.64363,1.66709336 C32.8407569,1.66709336 32.8407569,1.864425 33.037859,1.864425 L33.037859,1.864425 C33.234986,1.864425 33.234986,1.66709336 33.234986,1.66709336 C33.234986,1.66709336 33.234986,1.66709336 33.234986,1.4697866 L33.234986,1.4697866 C34.8119518,2.2590883 35.7975617,3.64036005 35.7975617,5.21896345 C35.7975617,6.00826515 35.6004347,6.6002352 35.4033078,6.99487361 L35.4033078,6.99487361 L35.4033078,6.99487361 Z M33.6292399,7.78417531 L34.0234689,7.78417531 L34.2205958,7.78417531 L34.0234689,7.78417531 L33.6292399,7.78417531 L33.6292399,7.78417531 Z M33.234986,7.58685611 L33.4321129,7.3895369 C33.4321129,7.58685611 33.6292399,7.58685611 33.6292399,7.58685611 C33.6292399,7.78417531 33.4321129,7.78417531 33.4321129,7.58685611 C33.4321129,7.58685611 33.4321129,7.58685611 33.234986,7.58685611 L33.234986,7.58685611 L33.234986,7.58685611 Z M31.6580201,7.78417531 C31.8551471,7.58685611 31.8551471,7.58685611 32.052274,7.58685611 L32.2493885,7.58685611 L32.2493885,7.98150696 C32.052274,7.78417531 31.8551471,7.78417531 31.6580201,7.78417531 L31.6580201,7.78417531 Z M31.0666641,6.79756685 L31.0666641,6.99487361 L31.0666641,7.19220526 C30.8695372,6.99487361 30.8695372,6.99487361 31.0666641,6.79756685 L31.0666641,6.79756685 Z M31.0666641,7.19220526 L31.0666641,7.58685611 L30.8695372,7.3895369 L30.8695372,7.19220526 L31.0666641,7.19220526 L31.0666641,7.19220526 Z M30.8695372,9.757442 C29.6868252,9.757442 28.5041009,9.36277871 27.7156304,8.77080866 C27.9127325,8.77080866 28.1098594,8.57347701 28.3069864,8.57347701 C28.3069864,8.37614536 28.3069864,8.1788386 28.5041009,8.1788386 C28.7012154,8.37614536 28.8983423,8.37614536 29.0954693,8.37614536 C29.8839522,7.98150696 30.6724351,7.98150696 31.2637911,7.98150696 C31.460918,8.1788386 31.460918,8.37614536 31.2637911,8.57347701 C31.6580201,8.77080866 32.052274,8.77080866 32.446503,8.77080866 L32.64363,8.9681403 L33.234986,8.9681403 C33.234986,8.77080866 33.4321129,8.57347701 33.4321129,8.57347701 C33.6292399,8.37614536 34.0234689,8.57347701 34.2205958,8.57347701 C33.4321129,9.36277871 32.2493885,9.757442 30.8695372,9.757442 L30.8695372,9.757442 Z M27.5185034,2.2590883 L27.7156304,2.06175665 L27.5185034,1.864425 L27.7156304,1.864425 L27.9127325,1.864425 C28.1098594,2.06175665 28.1098594,2.06175665 28.3069864,2.06175665 L28.3069864,2.2590883 C28.1098594,2.45639506 27.9127325,2.45639506 27.7156304,2.45639506 C27.7156304,2.45639506 27.7156304,2.2590883 27.5185034,2.2590883 L27.5185034,2.2590883 Z M28.5041009,4.42966175 L28.5041009,4.2323301 C28.7012154,4.42966175 28.7012154,4.42966175 28.7012154,4.62696851 L28.7012154,4.82430016 C28.5041009,5.0216318 28.3069864,5.0216318 28.3069864,5.0216318 C28.3069864,5.0216318 28.1098594,5.0216318 28.1098594,4.82430016 L28.3069864,4.82430016 C28.3069864,4.62696851 28.3069864,4.62696851 28.5041009,4.42966175 L28.5041009,4.42966175 Z M28.8983423,3.83766681 C28.8983423,3.83766681 28.8983423,3.83766681 29.0954693,3.64036005 L29.0954693,3.83766681 C29.0954693,4.03499846 29.2925714,3.83766681 29.2925714,4.03499846 C29.2925714,4.03499846 29.0954693,4.2323301 29.2925714,4.2323301 C29.2925714,4.42966175 29.4896983,4.62696851 29.4896983,4.62696851 C29.4896983,4.82430016 29.6868252,4.82430016 29.6868252,5.0216318 L29.6868252,5.21896345 C29.2925714,5.21896345 29.0954693,5.41627021 28.7012154,5.41627021 C28.8983423,5.41627021 28.8983423,5.21896345 29.0954693,5.21896345 C29.0954693,5.21896345 28.8983423,5.21896345 28.8983423,5.0216318 L28.8983423,5.0216318 L28.8983423,4.82430016 C28.8983423,4.62696851 29.0954693,4.62696851 29.0954693,4.62696851 C28.8983423,4.42966175 28.8983423,4.2323301 28.8983423,4.2323301 C28.7012154,4.03499846 28.8983423,4.03499846 28.8983423,3.83766681 L28.8983423,3.83766681 Z M30.8695372,0.0884899566 C27.5185034,0.0884899566 24.9559277,2.45639506 24.9559277,5.41627021 C24.9559277,8.1788386 27.5185034,10.5467437 30.8695372,10.5467437 C34.0234689,10.5467437 36.5860446,8.1788386 36.5860446,5.41627021 C36.5860446,2.45639506 34.0234689,0.0884899566 30.8695372,0.0884899566 L30.8695372,0.0884899566 Z" id="path15982"></path>
                        <path d="M65.9569949,1.46979538 L73.2504503,1.46979538 L73.2504503,3.04839627 L68.1253195,3.04839627 L68.1253195,4.23234694 L72.8562095,4.23234694 L72.8562095,5.81094783 L68.1253195,5.81094783 L68.1253195,7.38954872 L73.2504503,7.38954872 L73.2504503,9.16547472 L65.9569949,9.16547472 L65.9569949,1.46979538 L65.9569949,1.46979538 Z" id="polygon15984"></path>
                        <path d="M76.0101161,4.42966175 L78.1784379,4.42966175 L78.7698063,4.42966175 C78.9669208,4.42966175 79.1640478,4.2323301 79.3611747,4.2323301 L79.3611747,3.64036005 C79.3611747,3.4430284 79.3611747,3.24569676 79.1640478,3.04837755 C78.9669208,3.04837755 78.5726918,2.85105835 78.1784379,2.85105835 L76.0101161,2.85105835 L76.0101161,4.42966175 L76.0101161,4.42966175 Z M73.8417943,9.16544706 L73.8417943,1.27245495 L78.1784379,1.27245495 C79.1640478,1.27245495 79.7554038,1.4697866 80.1496452,1.4697866 C80.5438867,1.66709336 80.9381282,1.864425 81.3323696,2.2590883 C81.5294966,2.6537267 81.7266111,3.04837755 81.7266111,3.4430284 C81.7266111,3.83766681 81.5294966,4.2323301 81.3323696,4.62696851 C81.1352427,4.82430016 80.9381282,5.21896345 80.5438867,5.41627021 C80.3467722,5.41627021 80.1496452,5.61360186 79.9525307,5.61360186 C80.1496452,5.8109335 80.1496452,5.8109335 80.3467722,6.00826515 C80.3467722,6.00826515 80.5438867,6.20557191 80.7410136,6.40290356 C80.9381282,6.6002352 80.9381282,6.79756685 81.1352427,6.79756685 C81.5294966,7.58685611 82.3179795,9.16544706 82.3179795,9.16544706 L79.7554038,9.16544706 C79.7554038,9.16544706 78.7698063,7.58685611 78.3755649,6.79756685 C78.1784379,6.40290356 77.9813234,6.20557191 77.7842089,6.20557191 C77.587082,6.00826515 76.995726,6.00826515 76.798599,6.00826515 L76.0101161,6.00826515 L76.0101161,9.16544706 L73.8417943,9.16544706 L73.8417943,9.16544706 Z" id="path15986"></path>
                    </g>
                </g>
            </g>
        </g>
    </g>
</svg>