<?xml version="1.0" encoding="UTF-8" standalone="no"?>
<svg width="144px" height="84px" viewBox="0 0 144 84" version="1.1" xmlns="http://www.w3.org/2000/svg" xmlns:xlink="http://www.w3.org/1999/xlink" xmlns:sketch="http://www.bohemiancoding.com/sketch/ns">
    <!-- Generator: Sketch 3.3.2 (12043) - http://www.bohemiancoding.com/sketch -->
    <title>award #1: rolling stone</title>
    <desc>Created with Sketch.</desc>
    <defs></defs>
    <g id="Famous" stroke="none" stroke-width="1" fill="none" fill-rule="evenodd" sketch:type="MSPage">
        <g id="famous_game" sketch:type="MSArtboardGroup" transform="translate(-472.000000, -598.000000)" fill="#FFFFFF">
            <g id="awards-white-horizontal" sketch:type="MSLayerGroup" transform="translate(472.000000, 595.000000)">
                <g id="award-#1:-rolling-stone" transform="translate(0.000000, 3.096774)">
                    <g id="laurel" sketch:type="MSShapeGroup">
                        <g id="right-branch" transform="translate(108.274662, 0.000000)">
                            <path d="M4.60697717,0.26098866 C4.60697717,0.26098866 9.67149561,1.60031708 11.5344495,3.98782781 C13.3971216,6.37533854 12.6403318,7.53992293 12.6403318,7.53992293 C12.6403318,7.53992293 9.49680846,7.83106903 7.34308502,5.4435583 C5.18907982,3.05604756 4.60697717,0.26098866 4.60697717,0.26098866" id="Fill-1"></path>
                            <path d="M15.2366899,0.901340967 C15.2366899,0.901340967 19.8101121,4.91904437 19.8101121,9.69462953 C19.8101121,12.9555786 18.6456251,13.1303226 18.6456251,13.1303226 C18.6456251,13.1303226 15.728068,11.5579082 15.2366899,8.12221513 C14.7453119,4.68652207 15.2366899,0.901340967 15.2366899,0.901340967" id="Fill-2"></path>
                            <path d="M16.9970856,12.6060905 C16.9970856,12.6060905 15.3088188,9.8110316 12.2819414,9.8110316 C9.25478224,9.8110316 9.31310521,10.4516657 7.79952562,10.4516657 C8.49799245,11.8783662 10.7683618,13.9454189 12.7476799,13.9454189 C16.2986187,13.9454189 16.9970856,12.6060905 16.9970856,12.6060905" id="Fill-3"></path>
                            <path d="M23.1376205,8.99565342 C23.1376205,8.99565342 25.4077081,12.9555786 25.4077081,17.9634042 C25.4077081,21.4574392 23.7777643,22.2728174 23.7777643,22.2728174 C23.7777643,22.2728174 21.4493537,20.4092569 21.4493537,15.0519432 C21.4493537,9.69462953 23.1376205,8.99565342 23.1376205,8.99565342" id="Fill-4"></path>
                            <path d="M21.935942,20.2345128 C21.935942,20.2345128 21.935942,18.7787823 20.3059982,17.1483078 C18.6760544,15.5178333 12.6800591,15.8670395 12.6800591,15.8670395 C12.6800591,15.8670395 14.9504284,19.8853066 17.8609417,20.4092569 C20.7717367,20.9334889 21.935942,20.2345128 21.935942,20.2345128" id="Fill-5"></path>
                            <path d="M28.9589287,18.7787823 C28.9589287,18.7787823 29.9484468,20.9334889 29.9484468,25.5337664 C29.9484468,30.1340438 26.9796106,32.3470924 26.9796106,32.3470924 C26.9796106,32.3470924 25.9317695,32.2304085 25.9317695,25.5627964 C25.9317695,21.6905252 28.9589287,18.7787823 28.9589287,18.7787823" id="Fill-6"></path>
                            <path d="M25.098061,29.8428977 C25.098061,29.8428977 25.5057583,26.8147528 21.7218093,24.369182 C17.9378604,21.9233293 16.7153321,22.2728174 16.7153321,22.2728174 C16.7153321,22.2728174 18.2872347,28.1543631 21.7798505,29.4353496 C25.2727482,30.716336 25.098061,29.8428977 25.098061,29.8428977" id="Fill-7"></path>
                            <path d="M33.3156824,30.133762 C33.3154007,30.133762 29.7723509,32.9919542 28.7749437,35.7827854 C28.3038519,37.1006936 28.0198444,39.8562942 27.9017897,42.9453176 C27.866007,43.8770979 31.7001081,40.5222944 32.4422467,38.1119542 C32.6431369,37.4600462 33.8394621,35.1993658 33.3156824,30.133762" id="Fill-8"></path>
                            <path d="M20.0918656,30.4835319 C20.0918656,30.4835319 19.113054,35.757983 22.8276917,38.9273324 C24.8070097,40.615867 26.8446507,41.4312452 26.8446507,41.4312452 C26.8446507,41.4312452 27.579182,37.3909942 24.5742814,34.3851151 C22.5366403,32.3470924 21.2560709,31.0074821 20.0918656,30.4835319" id="Fill-9"></path>
                            <path d="M35.0036674,43.7023538 C35.0036674,43.7023538 33.7230979,49.4672157 31.6854569,51.6219223 C29.6480977,53.7766289 27.6107384,54.1258351 27.1449999,54.009433 C26.6792614,53.8930309 26.9703128,50.3409358 29.5317335,47.370851 C32.0931542,44.4010481 35.0036674,43.7023538 35.0036674,43.7023538" id="Fill-10"></path>
                            <path d="M21.372435,39.6843686 C21.372435,39.6843686 25.2727482,44.5757921 25.6801637,45.8567786 C26.0878609,47.1380469 26.8446507,49.7003017 25.971215,52.2625564 C24.4201622,52.2746758 22.3619532,48.9432654 22.0128606,47.8950831 C21.6634864,46.8469008 20.4409581,43.5859518 21.372435,39.6843686" id="Fill-11"></path>
                            <path d="M21.0295411,49.7583618 C21.0295411,49.7583618 23.323296,55.054515 23.7019726,58.5516503 C23.9921787,61.2303072 22.0128606,63.5014158 22.0128606,63.5014158 C22.0128606,63.5014158 19.3350758,59.8909788 19.3350758,55.9893956 C19.3350758,52.0878124 21.0295411,49.7583618 21.0295411,49.7583618" id="Fill-12"></path>
                            <path d="M32.733298,58.2605042 C32.733298,58.2605042 31.6274157,61.8125994 28.2218616,64.4912562 C24.8163076,67.169913 22.2548869,65.4230364 22.2548869,65.4230364 C22.2548869,65.4230364 23.7501525,61.1139051 26.9610149,59.4250886 C30.1718773,57.7362722 32.733298,58.2605042 32.733298,58.2605042" id="Fill-13"></path>
                            <path d="M18.2289117,58.1835605 C18.2289117,58.1835605 14.9107012,62.3497963 14.9107012,65.982781 C14.9107012,69.6157657 15.9005011,71.4209843 15.9005011,71.4209843 C15.9005011,71.4209843 18.8693373,70.139716 19.0440244,65.1318903 C19.2187116,60.1237829 18.2289117,58.1835605 18.2289117,58.1835605" id="Fill-14"></path>
                            <path d="M27.338001,70.8967522 C27.338001,70.8967522 24.3409895,69.3246196 20.6877741,70.0233139 C17.034277,70.72229 15.4626562,73.5173489 15.4626562,73.5173489 C15.4626562,73.5173489 16.4521744,75.4389695 19.7123437,75.3225674 C22.9722312,75.2061654 27.338001,70.8967522 27.338001,70.8967522" id="Fill-15"></path>
                            <path d="M13.1643932,66.5876208 C13.1643932,66.5876208 8.8566646,68.2772828 7.8668647,72.5861323 C6.87734655,76.8947 7.51777216,77.4189321 7.51777216,77.4189321 C7.51777216,77.4189321 10.7776597,77.5361797 12.1165521,72.5861323 C13.4554446,67.6358031 13.1643932,66.5876208 13.1643932,66.5876208" id="Fill-16"></path>
                            <path d="M20.3245939,80.2232919 C20.3245939,80.2232919 16.4242808,76.7881625 12.8733419,77.1373687 C9.32240307,77.4865749 8.04155184,79.1170494 8.04155184,79.1170494 C8.04155184,79.1170494 8.79355183,82.4363404 13.1911598,82.3779985 C17.5884861,82.3196565 20.3245939,80.2232919 20.3245939,80.2232919" id="Fill-17"></path>
                            <path d="M0.346301353,81.0989849 C0.346301353,81.0989849 9.95268556,82.5121568 22.3912555,64.917688 C30.8106124,53.0083188 27.4738062,32.5274733 25.5440768,27.4542596 C25.2617598,26.7118793 23.6115298,21.6426115 20.8838745,17.2139778 C17.0241339,10.9471496 12.494947,7.37335242 12.494947,7.37335242 C12.494947,7.37335242 20.0597457,15.4417351 22.6637111,21.2536651 C26.741529,30.3555741 27.0373701,40.7362149 27.0601921,43.5357833 C27.0973836,48.1230959 25.8410449,55.7061411 23.8465122,59.9369195 C15.1546997,78.3743873 0.65144035,80.1426841 0.65144035,80.1426841 L0.346301353,81.0989849" id="Fill-18"></path>
                        </g>
                        <g id="left-branch">
                            <path d="M30.5998345,0.26098866 C30.5998345,0.26098866 25.5353161,1.60031708 23.6723622,3.98782781 C21.8096901,6.37533854 22.5664798,7.53992293 22.5664798,7.53992293 C22.5664798,7.53992293 25.7100032,7.83106903 27.8637266,5.4435583 C30.0177318,3.05604756 30.5998345,0.26098866 30.5998345,0.26098866" id="Fill-19"></path>
                            <path d="M19.9701217,0.901340967 C19.9701217,0.901340967 15.3966996,4.91904437 15.3966996,9.69462953 C15.3966996,12.9555786 16.5611866,13.1303226 16.5611866,13.1303226 C16.5611866,13.1303226 19.4787437,11.5579082 19.9701217,8.12221513 C20.461218,4.68652207 19.9701217,0.901340967 19.9701217,0.901340967" id="Fill-20"></path>
                            <path d="M18.2097261,12.6060905 C18.2097261,12.6060905 19.8979928,9.8110316 22.9248702,9.8110316 C25.9520294,9.8110316 25.8939882,10.4516657 27.407286,10.4516657 C26.7088192,11.8783662 24.4384498,13.9454189 22.4591318,13.9454189 C18.9081929,13.9454189 18.2097261,12.6060905 18.2097261,12.6060905" id="Fill-21"></path>
                            <path d="M12.0691912,8.99565342 C12.0691912,8.99565342 9.79910357,12.9555786 9.79910357,17.9634042 C9.79910357,21.4574392 11.4290473,22.2728174 11.4290473,22.2728174 C11.4290473,22.2728174 13.7574579,20.4092569 13.7574579,15.0519432 C13.7574579,9.69462953 12.0691912,8.99565342 12.0691912,8.99565342" id="Fill-22"></path>
                            <path d="M13.2708697,20.2345128 C13.2708697,20.2345128 13.2708697,18.7787823 14.9008135,17.1483078 C16.5307572,15.5178333 22.5267526,15.8670395 22.5267526,15.8670395 C22.5267526,15.8670395 20.2563832,19.8853066 17.34587,20.4092569 C14.435075,20.9334889 13.2708697,20.2345128 13.2708697,20.2345128" id="Fill-23"></path>
                            <path d="M6.24788297,18.7787823 C6.24788297,18.7787823 5.25836482,20.9334889 5.25836482,25.5337664 C5.25836482,30.1340438 8.22720102,32.3470924 8.22720102,32.3470924 C8.22720102,32.3470924 9.27504214,32.2304085 9.27504214,25.5627964 C9.27504214,21.6905252 6.24788297,18.7787823 6.24788297,18.7787823" id="Fill-24"></path>
                            <path d="M10.1087506,29.8428977 C10.1087506,29.8428977 9.70105337,26.8147528 13.4850023,24.369182 C17.2689513,21.9233293 18.4914796,22.2728174 18.4914796,22.2728174 C18.4914796,22.2728174 16.919577,28.1543631 13.4269611,29.4353496 C9.93406348,30.716336 10.1087506,29.8428977 10.1087506,29.8428977" id="Fill-25"></path>
                            <path d="M1.89112922,30.133762 C1.89112922,30.133762 5.43446073,32.9919542 6.43186798,35.7827854 C6.90295976,37.1006936 7.18696725,39.8562942 7.30502195,42.9453176 C7.34080464,43.8770979 3.50670356,40.5222944 2.76456495,38.1119542 C2.56367473,37.4600462 1.36734954,35.1993658 1.89112922,30.133762" id="Fill-26"></path>
                            <path d="M15.1149461,30.4835319 C15.1149461,30.4835319 16.0937576,35.757983 12.37912,38.9273324 C10.399802,40.615867 8.36216093,41.4312452 8.36216093,41.4312452 C8.36216093,41.4312452 7.62762966,37.3909942 10.6325303,34.3851151 C12.6701713,32.3470924 13.9507408,31.0074821 15.1149461,30.4835319" id="Fill-27"></path>
                            <path d="M0.203144244,43.7023538 C0.203144244,43.7023538 1.48371372,49.4672157 3.52135474,51.6219223 C5.55871401,53.7766289 7.59607327,54.1258351 8.06181174,54.009433 C8.52755021,53.8930309 8.23649889,50.3409358 5.67507818,47.370851 C3.11365748,44.4010481 0.203144244,43.7023538 0.203144244,43.7023538" id="Fill-28"></path>
                            <path d="M13.8343766,39.6843686 C13.8343766,39.6843686 9.93406348,44.5757921 9.52664798,45.8567786 C9.11895072,47.1380469 8.36216093,49.7003017 9.23559665,52.2625564 C10.7866495,52.2746758 12.8445767,48.9432654 13.193951,47.8950831 C13.5433253,46.8469008 14.7658536,43.5859518 13.8343766,39.6843686" id="Fill-29"></path>
                            <path d="M14.1772706,49.7583618 C14.1772706,49.7583618 11.8835157,55.054515 11.504839,58.5516503 C11.214633,61.2303072 13.193951,63.5014158 13.193951,63.5014158 C13.193951,63.5014158 15.8717359,59.8909788 15.8717359,55.9893956 C15.8717359,52.0878124 14.1772706,49.7583618 14.1772706,49.7583618" id="Fill-30"></path>
                            <path d="M2.47351362,58.2605042 C2.47323187,58.2605042 3.57939595,61.8125994 6.98495002,64.4912562 C10.3905041,67.169913 12.9519248,65.4230364 12.9519248,65.4230364 C12.9519248,65.4230364 11.4566592,61.1139051 8.24579675,59.4250886 C5.03465257,57.7362722 2.47351362,58.2605042 2.47351362,58.2605042" id="Fill-31"></path>
                            <path d="M16.9779,58.1835605 C16.9779,58.1835605 20.2961105,62.3497963 20.2961105,65.982781 C20.2961105,69.6157657 19.3063106,71.4209843 19.3063106,71.4209843 C19.3063106,71.4209843 16.3374744,70.139716 16.1627872,65.1318903 C15.9883818,60.1237829 16.9779,58.1835605 16.9779,58.1835605" id="Fill-32"></path>
                            <path d="M7.86881062,70.8967522 C7.86881062,70.8967522 10.8658222,69.3246196 14.5190375,70.0233139 C18.1725346,70.72229 19.7441554,73.5173489 19.7441554,73.5173489 C19.7441554,73.5173489 18.7546373,75.4389695 15.494468,75.3225674 C12.2345805,75.2061654 7.86881062,70.8967522 7.86881062,70.8967522" id="Fill-33"></path>
                            <path d="M22.0424184,66.5876208 C22.0424184,66.5876208 26.3501471,68.2772828 27.339947,72.5861323 C28.3294651,76.8947 27.6890395,77.4189321 27.6890395,77.4189321 C27.6890395,77.4189321 24.429152,77.5361797 23.0902595,72.5861323 C21.7513671,67.6358031 22.0424184,66.5876208 22.0424184,66.5876208" id="Fill-34"></path>
                            <path d="M14.8822177,80.2232919 C14.8822177,80.2232919 18.7825309,76.7881625 22.3334697,77.1373687 C25.8844086,77.4865749 27.1652598,79.1170494 27.1652598,79.1170494 C27.1652598,79.1170494 26.4132598,82.4363404 22.0156518,82.3779985 C17.6183256,82.3196565 14.8822177,80.2232919 14.8822177,80.2232919" id="Fill-35"></path>
                            <path d="M34.8605103,81.0989849 C34.8605103,81.0989849 25.2538443,82.5121568 12.8155561,64.917688 C4.39619923,53.0083188 7.73300545,32.5274733 9.6627349,27.4542596 C9.94505187,26.7118793 11.5952819,21.6426115 14.3229371,17.2139778 C18.1826778,10.9471496 22.7118646,7.37335242 22.7118646,7.37335242 C22.7118646,7.37335242 15.147066,15.4417351 12.5431005,21.2536651 C8.4652827,30.3555741 8.16972332,40.7362149 8.14690129,43.5357833 C8.10942808,48.1230959 9.36576675,55.7061411 11.3602995,59.9369195 C20.052112,78.3743873 34.5553713,80.1426841 34.5553713,80.1426841 L34.8605103,81.0989849" id="Fill-36"></path>
                        </g>
                    </g>
                    <path d="M71.7525547,32.8823349 C70.5876209,32.8823349 69.5032607,32.578679 68.6997392,32.0276498 C68.3509972,31.7660215 68.1590968,31.4734255 68.1338791,31.1619048 C68.1764416,30.2150538 69.1726015,29.6610753 69.9736627,29.215361 C70.0541132,29.1707527 70.1329646,29.1267588 70.2082486,29.0841167 L70.785672,28.7555146 L70.1210323,28.7530568 L66.2154902,28.7389247 L66.2979089,28.174255 C66.6790034,28.124977 66.9865361,27.9488786 67.1934441,27.6598464 L67.2067295,27.641659 L67.2148484,27.6205223 L67.2880412,27.4306605 L67.2945609,27.4135791 L67.2975132,27.3953917 L67.794363,24.3422427 L67.7959622,24.3326575 L67.7964542,24.3229493 C67.8183506,23.9023041 67.6655683,23.5841475 67.3662775,23.4269739 L67.3601268,23.423533 L67.3536072,23.4209524 C67.2437565,23.3738863 67.1227116,23.3499232 66.9934249,23.3499232 C66.7461686,23.3499232 66.4696352,23.4402458 66.2345572,23.5972965 C65.7915871,23.9241782 65.5069349,24.3743164 65.4266073,24.8695545 L65.0027043,27.3516436 L65.0017202,27.3579109 L65.0008591,27.364424 C64.9792088,27.5880799 65.0980394,27.7553303 65.1891921,27.8617512 L65.1970649,27.8710906 L65.2059219,27.8792012 C65.3166336,27.9771429 65.4403848,28.0518587 65.5809887,28.1048233 L65.4916812,28.7381874 L61.9818722,28.7381874 L62.0804056,28.1931797 C62.431731,28.1528725 62.7261013,27.9698925 62.9016409,27.6774194 L62.9151724,27.6550538 L62.921446,27.6301075 C63.0931723,26.9549616 63.203515,26.2579416 63.3104134,25.5834101 C63.3511307,25.3254685 63.391971,25.0676498 63.4362558,24.810937 C63.4750049,24.6012903 63.3625709,24.40553 63.128108,24.2758833 L63.1160527,24.2692473 L63.1033824,24.2648233 C63.0389235,24.241106 62.9673299,24.229063 62.8905698,24.229063 C62.788961,24.229063 62.6903045,24.2493395 62.5989057,24.2726882 C62.4669127,24.1003994 62.3334435,23.9234409 62.2165811,23.741321 L65.9082035,21.4041167 L65.6802603,23.3372657 L66.0233438,23.0463902 C66.1978993,22.8985561 66.3709787,22.7365899 66.5386455,22.5797849 C67.0163053,22.1330876 67.5103258,21.6711521 68.0831977,21.4870661 C68.2477892,21.4451613 68.425051,21.4225499 68.5993606,21.4225499 C68.875771,21.4225499 69.2700279,21.4804301 69.5775605,21.7571736 C69.8612287,22.027404 69.9822736,22.3528111 69.9441395,22.7477727 L69.3166498,27.1080799 L69.3148046,27.1207373 L69.3148046,27.1335177 C69.3148046,27.4933333 69.4937886,27.8010445 69.7816392,27.9365899 C69.9409412,28.0157296 70.0960607,28.0554224 70.2521643,28.0554224 L70.381205,28.0554224 L70.4206922,27.9325346 C70.5552685,27.515576 70.7514743,27.0574501 71.1848494,26.8215054 C71.3531313,26.723318 71.5142784,26.6578187 71.6816992,26.6186175 L71.915301,26.5639324 L71.7943792,26.3569892 C71.7306584,26.2483564 71.6463945,26.1489401 71.5648368,26.0532104 C71.501362,25.9784946 71.4413317,25.9082028 71.3938486,25.8370507 L71.3894201,25.830169 L71.3841306,25.8239017 C70.8503768,25.1639939 70.7714024,24.0081106 71.2007181,23.1356068 C71.7063018,22.043871 72.8232606,21.3042089 74.0479787,21.2470661 C74.1953484,21.2308449 74.3311548,21.2232258 74.4629018,21.2232258 C75.4716091,21.2232258 76.3660371,21.6725038 77.1218295,22.5584025 L77.2837147,22.7483871 L77.4096801,22.5329647 C77.8824193,21.7243625 78.6388267,21.221874 79.4566176,21.1642396 L79.0375121,22.8264209 C78.9397167,22.8203994 78.8558218,22.8178187 78.7759863,22.8178187 C78.4379464,22.8178187 77.9487234,22.8637788 77.6051478,23.2631644 C77.305365,23.6407988 77.1557811,24.0643932 77.0113637,24.4742243 C76.8695296,24.8753303 76.7358144,25.2546851 76.4756418,25.5756682 L76.4709673,25.581321 L76.4665388,25.587957 C75.8921908,26.4379724 75.0203971,26.8872504 73.9452628,26.8872504 C73.7830086,26.8872504 73.6155878,26.876682 73.4475519,26.8555453 C73.1437096,26.7972965 72.8447878,26.7247926 72.5702227,26.642212 L72.4350313,26.6019048 L72.3652829,26.7240553 C72.2315677,26.9575422 72.1768268,27.3561905 72.3302241,27.6648848 L72.3345296,27.6734869 L72.3398192,27.6817204 C72.5783415,28.0551767 72.9804713,28.0983103 73.2621712,28.0983103 C73.4037593,28.0983103 73.5447322,28.0861444 73.6810307,28.0743472 C73.777227,28.0662366 73.8707169,28.0580031 73.9575641,28.0551767 C74.106902,28.0431336 74.2503352,28.0294931 74.3957367,28.0157296 C74.7815057,27.9793548 75.1801911,27.9413825 75.5664521,27.9413825 C76.2283855,27.9413825 76.7190847,28.0554224 77.1092821,28.299232 C77.3097934,28.4684485 77.4110332,28.6900154 77.4022993,28.9420584 C77.1979746,30.3096774 75.9185156,31.4658065 74.7877794,32.0919201 C73.9505524,32.6030108 72.874926,32.8823349 71.7525547,32.8823349 L71.7525547,32.8823349 Z M70.701408,29.1435945 L70.6045967,29.2485407 L70.2680329,29.6132719 L70.2618823,29.6200307 L70.2565927,29.6272811 C69.8693476,30.143533 69.7763497,30.8004916 70.0199156,31.3013825 L70.0231139,31.3081413 L70.0268043,31.3142857 C70.3133018,31.7974808 70.833278,31.9435945 71.1993649,32.0115515 L71.2085909,32.0135177 L71.2180629,32.014255 C71.3886821,32.027404 71.5583171,32.0339171 71.7220475,32.0339171 C72.9577138,32.0339171 73.9988965,31.6582488 74.8168105,30.9171121 L74.8225921,30.911828 L74.8278816,30.9060522 C75.0619755,30.6525346 75.1451324,30.305745 75.0398332,30.0227343 L75.0363888,30.0133948 L75.0319603,30.0045469 C74.8946777,29.7323502 74.6214657,29.5723502 74.219582,29.5288479 L74.1979317,29.5266359 L74.1764044,29.529831 C73.589755,29.610937 73.1439556,29.6474347 72.7311238,29.6474347 C71.9416258,29.6474347 71.3180726,29.5061137 70.8246671,29.2158525 L70.701408,29.1435945 L70.701408,29.1435945 Z M74.3991811,22.0426421 C74.3250042,22.0426421 74.2503352,22.0505069 74.1776345,22.0664823 L74.1698847,22.0680799 L74.1621349,22.0707834 C73.5136099,22.2760061 73.3156819,22.9151459 73.15638,23.4288172 L73.1247656,23.5303226 L73.1197221,23.5469124 L73.1176308,23.5639939 C73.1047145,23.6818433 73.0852784,23.808172 73.0646122,23.9421198 C72.9723524,24.541321 72.8572122,25.2872504 73.2898491,25.8007988 L73.2948927,25.8065745 L73.3001822,25.8121045 C73.4773211,25.9888172 73.7243313,26.0903226 73.9781073,26.0903226 C74.0771328,26.0903226 74.1748052,26.0749616 74.2691562,26.0454685 L74.275922,26.0433794 L74.2825647,26.0406759 C74.7261498,25.8599078 74.9110385,25.4322581 75.0595153,25.0884178 L75.0795664,25.0418433 L75.085594,25.0277112 L75.0894074,25.0127189 C75.1088435,24.9313671 75.1296327,24.8485407 75.151037,24.7643625 C75.3252235,24.0696774 75.5230285,23.2823349 75.2434198,22.5558218 L75.2402215,22.5475883 L75.2365311,22.5402151 C75.0830108,22.2332412 74.7621926,22.0426421 74.3991811,22.0426421 L74.3991811,22.0426421 Z M47.7609455,32.6295545 C46.0723451,32.6295545 44.1824952,32.0415361 42.5759444,31.0165284 C40.3593718,29.5718587 38.6483829,27.2169585 37.8836106,24.5568049 L37.8468297,24.4287558 L36.7416802,24.4287558 L36.692475,24.5258372 L36.6627059,24.5844547 L36.6507736,24.6079263 L36.6460991,24.6339785 L36.1344877,27.5410138 C36.080977,27.9169278 36.2202278,28.24553 36.5163203,28.4480492 C36.7338074,28.5976037 36.974667,28.6470046 37.2085149,28.6919816 C37.1856344,28.8509985 37.1563573,29.0111214 37.1260961,29.1778802 C37.1053069,29.2921659 37.0840256,29.409278 37.0642205,29.5278648 L31.6325782,29.5278648 L31.7776106,28.6401229 C31.8771282,28.6479877 31.9708641,28.652043 32.0604177,28.652043 C32.721859,28.652043 33.1842651,28.4351459 33.4742069,27.9899232 L33.4804806,27.9800922 L33.4855241,27.9698925 L33.6611868,27.6041782 L33.6713969,27.5825499 L33.6755793,27.5590783 L35.2399366,18.866851 L35.2428889,18.8512442 L35.2428889,18.6436866 L35.0656271,18.6436866 C34.4006184,18.6436866 33.5518282,18.7202458 32.8859584,19.3171121 L32.7239502,19.4623656 L32.8988748,19.591275 C33.0475976,19.7008909 33.3802249,20.0060215 33.2572119,20.4695545 C33.154742,20.8914286 32.6929509,21.1679263 32.3097652,21.2158525 C32.2492427,21.2232258 32.1878592,21.2271582 32.1278288,21.2271582 C31.6438954,21.2271582 31.2475472,20.9967435 31.0405162,20.5947773 C30.8610402,20.2123502 30.916027,19.6436252 31.1736164,19.2453456 C32.0151488,18.2084178 33.3128138,17.9789862 34.5674241,17.7572965 L34.6646045,17.7398464 L34.8081607,17.7275576 C35.8200663,17.639447 36.8667845,17.5483871 37.9160861,17.5483871 C39.3274151,17.5483871 40.454953,17.7220276 41.3626664,18.0795084 C42.0601506,18.3491244 42.7534523,19.0075576 43.0496678,19.6809831 L43.052374,19.6867588 L43.0552033,19.6922888 C43.5471326,20.6226728 43.3372723,21.981321 42.5673335,22.8527189 C42.0156198,23.4742857 41.358361,23.8734255 40.6140089,24.038341 L40.4660241,24.0711521 L40.4757422,24.222427 C40.6506668,26.9472197 42.694775,29.7388633 45.3363578,30.8607066 C45.7998711,31.0412289 46.7090607,31.3404608 47.6466664,31.3404608 C48.3418133,31.3404608 48.9258794,31.1780031 49.382996,30.8575115 C49.7521582,30.5590169 49.9264677,30.1762212 49.8966986,29.7421813 C49.8946073,29.4895238 49.7682729,29.2463287 49.5402067,29.0569585 L49.5344251,29.0521659 L49.5281514,29.0478648 C49.2089325,28.8260522 48.8584682,28.7689094 48.4722071,28.7471582 C48.4958257,28.5963748 48.5292852,28.4396928 48.5620067,28.2865745 C48.5719708,28.2402458 48.5816888,28.1944086 48.5911608,28.1485714 C49.0006713,28.1437788 49.3116484,27.9807066 49.4914935,27.6764363 L49.4972751,27.6666052 L49.5017036,27.6560369 L49.5897809,27.4510599 L49.5981458,27.4316436 L49.6015902,27.4107527 L50.625305,21.3187097 L50.6280113,21.3042089 L50.6280113,21.2894624 C50.6280113,21.208725 50.6280113,20.9635637 50.4022823,20.820768 C50.315066,20.7564977 50.2143183,20.7239324 50.1034835,20.7239324 C49.9885893,20.7239324 49.8814449,20.7578495 49.7869709,20.7889401 L49.4478239,20.2211982 L53.1237006,17.8675269 L51.6080565,27.3302611 C51.5611885,27.5316743 51.669686,27.6938863 51.7223356,27.7724117 L51.7299624,27.7839631 L51.7394344,27.7937942 C51.9111607,27.9797235 52.1127791,28.0506298 52.3145206,28.0879877 C52.3027113,28.2342243 52.2758945,28.3842704 52.2478475,28.5407066 C52.2362843,28.6054685 52.224721,28.6713364 52.2136498,28.7380645 C52.1095808,28.7376959 52.0056347,28.7373272 51.9018117,28.7365899 C51.7468152,28.7356068 51.5921878,28.7348694 51.4379294,28.7348694 C51.0510533,28.7348694 50.7577901,28.7406452 50.4865463,28.7535484 L49.9188409,28.7804608 L50.4015442,29.080553 L50.446198,29.1083257 C50.9487064,29.4200922 51.6369645,29.8471275 51.5759501,30.4917972 L51.5748429,30.5035945 L51.575335,30.5155146 C51.6091636,31.3222734 50.8236021,31.8375422 50.5821274,31.9762826 C49.7581858,32.4086022 48.8071718,32.6295545 47.7609455,32.6295545 L47.7609455,32.6295545 Z M37.7245547,18.5537327 L36.8751494,23.5803379 L37.0803352,23.5848848 C37.1208065,23.5856221 37.1614009,23.5858679 37.2019952,23.5858679 C38.8816157,23.5858679 40.1555391,22.8814747 40.6974117,21.6530876 C40.9534019,21.0809217 41.0092499,20.1646697 40.6071201,19.5949616 C39.9451868,18.5861751 38.7494997,18.5688479 37.8765989,18.5559447 L37.7245547,18.5537327 L37.7245547,18.5537327 Z M82.9479748,30.2160369 C82.9100867,30.2160369 82.8721987,30.2155453 82.8341877,30.2145622 C82.2686966,30.2140707 81.7885765,30.0259293 81.2805325,29.8264823 C80.8322729,29.6507527 80.3688826,29.4688786 79.845708,29.4261137 L79.8385732,29.4253763 L79.8310694,29.4253763 C79.5957454,29.4253763 79.4111028,29.6028264 79.3327435,29.778679 L79.3276999,29.7897389 L79.3242556,29.8010445 L79.2770186,29.9622734 L78.69775,30.1654071 L77.4982495,26.6916129 L78.3082906,26.4324424 C78.8120291,27.6387097 80.0302276,28.825192 81.4879326,28.8587404 C81.5756409,28.8678341 81.6640873,28.872381 81.7510575,28.872381 C82.564297,28.872381 83.2532932,28.4835637 83.6407844,27.8055914 C84.0552155,27.0579416 83.8683586,26.0827035 83.1420894,25.1952074 C82.8638338,24.8495238 82.5519957,24.5120737 82.2504906,24.1859293 C81.2261607,23.0768664 80.2585399,22.0294931 80.34428,20.5398464 C80.3867195,19.5179109 80.9063267,18.6164055 81.7693865,18.0637788 C82.2186302,17.7808909 82.7876887,17.6247005 83.3701556,17.6247005 C83.5946545,17.6247005 83.8187843,17.6478034 84.0360254,17.6932719 C84.2434255,17.735914 84.4388932,17.8001843 84.6459242,17.8680184 C84.9883926,17.9803379 85.3426703,18.0965899 85.7497206,18.106298 C86.0598365,18.106298 86.3785634,17.8853456 86.5138778,17.5804608 L87.2134532,17.5804608 L86.6555889,21.0982488 L85.8787613,21.0982488 C86.0298213,20.1284178 85.7470143,19.346851 85.0875412,18.9338249 C84.8330271,18.7555146 84.4884675,18.6547465 84.1239798,18.6547465 C83.8243199,18.6547465 83.5352392,18.7266359 83.3101253,18.8573886 C82.8537467,19.1027957 82.5409245,19.5234409 82.4779418,19.9794777 C82.3899874,20.6828879 82.7408207,21.2250691 83.0559802,21.6188018 L85.8545277,24.8245776 C86.5515198,25.7055607 86.6242205,27.2741014 86.0106313,28.3148387 L86.0059568,28.323318 L86.0016514,28.3319201 C85.4874567,29.4762519 84.2885713,30.2160369 82.9479748,30.2160369 L82.9479748,30.2160369 Z M88.5593392,29.0370507 C88.491682,29.0370507 88.4229177,29.0349616 88.3534153,29.0307834 C87.8090825,28.9791705 87.2598291,28.5344393 87.108892,28.0181874 C86.8884526,27.3048233 87.0107276,26.4335484 87.1427206,25.6731183 L87.6100473,23.0590476 L87.6469512,22.8538249 L87.438075,22.8509985 L86.572063,22.8390783 L86.6489462,22.2998464 L89.9134672,20.1780645 C89.8880035,20.3853763 89.855159,20.5955146 89.8226835,20.8014747 C89.7769226,21.094808 89.7294396,21.398341 89.7016386,21.6969585 L89.6839248,21.8863287 L89.874595,21.8902611 L91.8644545,21.9292166 L91.474011,23.0048541 C91.1845613,22.8935177 90.871985,22.8761905 90.5949596,22.8761905 C90.4827717,22.8761905 90.3695996,22.8793856 90.2563046,22.8825806 C90.1403033,22.8856528 90.0327898,22.8886022 89.9265065,22.8886022 C89.8304333,22.8886022 89.7466614,22.8858986 89.6705163,22.8808602 L89.5101073,22.870169 L88.943017,26.2864516 C88.848912,26.8334255 89.0216224,27.2929032 89.4168634,27.5455607 L89.432117,27.5549002 L89.4490928,27.561659 C89.591788,27.6163441 89.7369434,27.6442396 89.8801306,27.6442396 C90.2970219,27.6442396 90.6348158,27.4186175 90.9615386,27.2 C91.13511,27.083871 91.2990864,26.9741321 91.4687215,26.9016283 L91.5975162,26.8466974 L91.5735286,26.7089401 C91.2311832,24.7330261 91.8289038,23.0826421 93.2572086,22.0615668 C93.9152055,21.5438402 94.7643648,21.2376037 95.5350417,21.2376037 C95.9606669,21.2376037 96.3524636,21.3279263 96.6994835,21.5053763 C97.3393975,21.7969892 97.8291126,22.4495238 98.162478,23.4490937 L98.2346867,23.6656221 L98.4265871,23.5417512 L102.06556,21.1950845 L101.899738,22.3904147 L101.853116,22.7246697 L102.154867,22.5726575 L102.183529,22.5581567 L102.204934,22.5474654 L102.222894,22.5311214 L102.261766,22.4958525 C102.999598,21.8274654 103.762402,21.136467 104.651418,21.136467 C104.879976,21.136467 105.112225,21.1840246 105.341521,21.2781567 C105.721262,21.4565899 105.960892,21.8642089 105.976884,22.3660829 C105.925833,23.3467281 105.754968,24.2871889 105.589884,25.1965591 C105.474498,25.8318894 105.355545,26.4883564 105.277062,27.1564977 C105.258241,27.3556989 105.321839,27.5381874 105.465518,27.7026114 L105.471915,27.7099846 L105.478927,27.7164977 C105.662339,27.8852227 105.871584,27.950722 106.081814,27.9791091 C106.041712,28.2294316 106.002224,28.4847926 105.96938,28.7381874 L102.303713,28.7381874 L102.334959,28.4768049 L102.392775,27.9982796 C102.750866,27.9773886 103.060121,27.7947773 103.2487,27.4894009 L103.257188,27.4757604 L103.263215,27.4608909 L103.366177,27.197788 L103.372943,27.1796006 L103.376141,27.1604301 L103.829321,24.2382796 C103.869178,23.9181567 103.809885,23.654808 103.659317,23.4712135 C103.480948,23.2689401 103.23074,23.1603072 102.951254,23.1603072 C102.841895,23.1603072 102.731553,23.1766513 102.623424,23.2092166 C101.898385,23.4569585 101.560591,24.2066974 101.48949,24.7740707 L101.095602,27.2221198 L101.091788,27.2448541 L101.094249,27.267957 C101.115038,27.4764977 101.187739,27.6245776 101.329327,27.7486943 L101.337815,27.7560676 L101.34741,27.7625806 C101.449018,27.8305376 101.559484,27.8950538 101.690739,27.9289708 L101.607705,28.7381874 L97.8348942,28.7381874 L97.9413005,28.0330568 C97.956062,28.0333026 97.9707006,28.0335484 97.9855852,28.0335484 C98.4053058,28.0335484 98.7191122,27.9113978 98.9450872,27.6605837 L98.9610789,27.6425192 L98.971904,27.6210138 L99.1323131,27.2997849 L99.1446144,27.2753303 L99.1487968,27.248172 L99.5440378,24.7207373 C99.5683944,24.4827035 99.404541,24.2935791 99.2436399,24.1928111 L99.2286323,24.1833487 L99.2117795,24.1769585 C99.1337892,24.1477112 99.0540768,24.1327189 98.9748563,24.1327189 C98.6838074,24.1327189 98.463368,24.3235637 98.2688843,24.4915515 C98.2369009,24.5189555 98.2056556,24.5463594 98.1746563,24.5717972 L98.1208996,24.6162826 L98.1116736,24.6850998 C97.9168209,26.1612289 97.1094861,27.9773886 95.4276513,28.648725 C95.151733,28.7476498 94.8615451,28.7990169 94.5713573,28.7990169 C93.534111,28.7990169 92.6346394,28.1493088 92.0625056,27.604424 L91.9563453,27.503533 L91.8370226,27.5888172 L91.8239832,27.5981567 C90.8347121,28.3054992 89.8116123,29.0370507 88.5593392,29.0370507 L88.5593392,29.0370507 Z M95.2895076,22.0770507 C95.0231843,22.0770507 94.7444367,22.1956375 94.5242433,22.4027035 L94.5171085,22.4095853 L94.5107118,22.4169585 C93.8048628,23.2458372 93.6734848,24.2984946 93.5465353,25.3164977 C93.5325118,25.4275883 93.5186114,25.5388018 93.5042188,25.649278 L93.5031117,25.6571429 L93.5028657,25.6653763 C93.4996674,25.7431644 93.4951159,25.8225499 93.4909334,25.902427 C93.4551366,26.5615975 93.4145423,27.3080184 93.9736367,27.7930568 L93.9849539,27.8028879 L93.9976243,27.8107527 C94.1504065,27.9036559 94.3421839,27.9547773 94.5376517,27.9547773 C94.747758,27.9547773 94.9467932,27.8960369 95.0985913,27.7892473 L95.104619,27.7847005 L95.1106466,27.7796621 C95.6632213,27.3140399 95.8064086,26.6543779 95.9449213,26.0162212 C95.9837934,25.8353303 96.0243877,25.6484178 96.0734699,25.4714593 L96.0770373,25.4596621 L96.0786365,25.4474962 C96.0917989,25.3488172 96.1059454,25.248172 96.120707,25.1453149 C96.2380614,24.3176651 96.3714076,23.3796621 96.0846641,22.574255 L96.0820809,22.5671275 L96.0790055,22.5602458 C95.9969558,22.3796006 95.8192019,22.2199693 95.603314,22.1330876 C95.4987528,22.0952381 95.3950528,22.0770507 95.2895076,22.0770507 L95.2895076,22.0770507 Z M45.2834622,28.82298 C45.027964,28.82298 44.7684065,28.791275 44.5110631,28.7290937 C43.3629821,28.3997542 42.5740992,27.197788 42.3916708,26.1816283 C42.1189508,24.5328418 42.8496485,22.9661444 44.3465946,21.9931183 C44.9719931,21.5249155 45.8047916,21.2495238 46.5839564,21.2495238 C47.0771159,21.2495238 47.5231613,21.3547158 47.9097914,21.5622734 C48.3426744,21.7850691 48.7726051,22.2474962 49.0343769,22.7712442 C49.7255874,24.2424578 49.3248108,26.1670046 48.0580221,27.4472504 C47.4866264,28.0779109 46.5470525,28.82298 45.2834622,28.82298 L45.2834622,28.82298 Z M46.3242758,22.1564363 C46.1409864,22.1564363 45.9643396,22.2030108 45.8135255,22.2908756 L45.8066368,22.294808 L45.7999941,22.2996006 C45.0611776,22.8245776 44.8665709,23.6290015 44.6786069,24.4071275 C44.6588018,24.488725 44.6391197,24.5697081 44.6190686,24.6501997 L44.6164853,24.6599078 L44.6151322,24.6699846 C44.5959421,24.8148694 44.5729387,24.9638095 44.5495662,25.1153303 C44.4313506,25.8835023 44.2970203,26.7547773 44.5816726,27.5165591 L44.5872082,27.5319201 L44.5955731,27.5458065 C44.7610257,27.8215668 45.0619157,27.9733333 45.4427641,27.9733333 C45.4898781,27.9733333 45.5369921,27.9708756 45.5833681,27.9668203 C46.5118708,27.8264823 46.7426433,26.9693395 46.928393,26.2804301 C46.9646819,26.1461137 46.9990026,26.0191705 47.0366446,25.9014439 L47.0400889,25.8902611 L47.0421801,25.8789555 C47.068628,25.7311214 47.0990122,25.579232 47.1298885,25.424639 C47.3049361,24.5441475 47.5032332,23.5466667 47.1493245,22.6559754 C47.0046612,22.3443318 46.6903627,22.1564363 46.3242758,22.1564363 L46.3242758,22.1564363 Z M56.6587273,28.7381874 L52.9127332,28.7381874 L53.014711,28.13702 C53.4868352,28.0959754 53.8419739,27.8592934 53.9802406,27.4868203 L53.984177,27.4757604 L53.9868833,27.4644547 L54.1332689,26.8222427 L55.0272049,21.6264209 C55.0567281,21.3439017 55.0075228,21.1402765 54.8822955,21.0106298 C54.8134082,20.9282949 54.6857206,20.8341628 54.4615908,20.8341628 C54.3812633,20.8341628 54.2954001,20.8462058 54.2069537,20.8699232 L54.1893629,20.8749616 L54.1730021,20.8830722 C54.162423,20.8883564 54.1498757,20.893149 54.1360982,20.897573 L53.8032248,20.323318 L57.5853848,17.869616 L56.0963116,27.3979724 L56.0942203,27.4117358 L56.0942203,27.4253763 C56.0942203,27.6593548 56.2237531,27.8182488 56.3364331,27.9305684 C56.4636286,28.0443625 56.608907,28.0940092 56.7458206,28.1290323 L56.6587273,28.7381874 L56.6587273,28.7381874 Z M57.3248431,28.737573 L57.4060318,28.1888786 C57.8204628,28.1443932 58.3196499,28.0071275 58.5003561,27.4997235 L58.5056457,27.4850998 L58.5082289,27.4692473 L58.932501,24.8978187 L58.9348383,24.8835637 L58.9348383,24.869063 C58.9348383,24.6693702 58.8089959,24.4786482 58.6201708,24.3905376 C58.54624,24.34851 58.4613609,24.3271275 58.368117,24.3271275 C58.2773334,24.3271275 58.1914703,24.347404 58.1188925,24.3734562 L57.7767932,23.7200614 L61.4697687,21.4420891 L60.4839419,27.1325346 C60.428094,27.4112442 60.5300718,27.637235 60.6369702,27.8215668 L60.6484104,27.8414747 L60.6651402,27.8578187 C60.879921,28.0725038 61.1380025,28.1521352 61.3709892,28.1838402 C61.3492159,28.3180338 61.331256,28.4513671 61.3139112,28.5817512 C61.3075145,28.6293088 61.3012408,28.6769892 61.2949671,28.7245469 L57.3248431,28.737573 L57.3248431,28.737573 Z M109.645995,28.6278341 C109.073,28.6278341 108.549333,28.4976959 108.130843,28.2519201 C107.010193,27.561659 106.459587,26.3191398 106.623317,24.8446083 C106.779544,23.4141935 107.83881,21.6393241 109.493827,21.1676805 C109.794348,21.0777266 110.098068,21.0322581 110.399081,21.0322581 C111.300767,21.0322581 112.036877,21.438894 112.419078,22.1478341 C112.667073,22.6155453 112.831295,23.077235 112.919004,23.5542857 L108.724873,25.5711214 L108.602475,25.6301075 L108.627692,25.7636866 C108.704945,26.1690937 108.980248,27.147404 109.866311,27.475023 C110.030903,27.5283564 110.194018,27.5537942 110.358117,27.5537942 C110.744009,27.5537942 111.098164,27.4123502 111.354646,27.1560061 L111.669929,26.7969278 L111.824679,26.6203379 L111.612236,26.5203072 L111.588248,26.5092473 C111.317988,26.3825499 111.093736,26.2610138 111.084756,26.0594777 L111.08451,26.0527189 L111.083771,26.0459601 C111.044284,25.7210445 111.257712,25.4735484 111.44789,25.3215361 C111.590585,25.2367435 111.772645,25.1863594 111.936867,25.1863594 C112.043519,25.1863594 112.137994,25.2065131 112.217829,25.2462058 L112.227055,25.2509985 L112.237019,25.2546851 C112.473573,25.3396006 112.63595,25.5811982 112.719968,25.9727189 C112.760563,26.9547158 112.1407,27.6538249 111.609037,28.0700461 C111.074299,28.4245776 110.358978,28.6278341 109.645995,28.6278341 L109.645995,28.6278341 Z M109.901985,22.0129032 C109.738623,22.0129032 109.569357,22.043871 109.412147,22.1028571 L109.395294,22.1091244 L109.380286,22.1188326 C108.506401,22.6681413 108.462855,23.7429186 108.523008,24.6178802 L108.540599,24.875576 L108.77457,24.7659601 L110.836392,23.8019048 L110.938616,23.7542243 L110.938616,23.641659 C110.938616,23.2786482 110.9102,22.8533333 110.698987,22.4497696 C110.553462,22.1681106 110.27004,22.0129032 109.901985,22.0129032 L109.901985,22.0129032 Z M60.2005198,20.7168049 C60.1295413,20.7168049 60.0565945,20.7128725 59.9841398,20.7054992 C59.7724343,20.6584332 59.5018055,20.5242396 59.421724,20.2962826 C59.2929293,19.8266052 59.4924565,19.3350538 59.9590451,18.9923195 C60.2655937,18.7628879 60.7848319,18.496467 61.2433017,18.496467 C61.5674411,18.496467 61.7973525,18.6277112 61.9464444,18.897573 C62.1325632,19.3631951 61.9058501,19.8219355 61.6298087,20.0973272 C61.2361669,20.5032258 60.7427615,20.7168049 60.2005198,20.7168049 L60.2005198,20.7168049 Z" id="rolling-stone-logo" sketch:type="MSShapeGroup"></path>
                    <text id="BEST-VIDEO-GAME" opacity="0.50157416" sketch:type="MSTextLayer" font-family="PF DinText Pro" font-size="10" font-weight="normal" sketch:alignment="middle" line-spacing="12">
                        <tspan x="33.9820198" y="53.0967742">BEST VIDEO GAME</tspan>
                        <tspan x="47.1420198" y="67.0967742">OST AWARD</tspan>
                        <tspan x="62.2120198" y="81.0967742">2013</tspan>
                    </text>
                </g>
            </g>
        </g>
    </g>
</svg>