<?xml version="1.0" encoding="utf-8"?>
<!-- Generator: Adobe Illustrator 19.0.1, SVG Export Plug-In . SVG Version: 6.00 Build 0)  -->
<svg version="1.1" id="Layer_1" xmlns:sketch="http://www.bohemiancoding.com/sketch/ns"
	 xmlns="http://www.w3.org/2000/svg" xmlns:xlink="http://www.w3.org/1999/xlink" x="0px" y="0px" viewBox="-211 100.5 145 84"
	 style="enable-background:new -211 100.5 145 84;" xml:space="preserve">
<style type="text/css">
	.st0{fill:#FFFFFF;}
	.st1{opacity:0.5016;}
	.st2{enable-background:new    ;}
</style>
<title>award #3: eurogamer</title>
<desc>Created with Sketch.</desc>
<g id="Famous" sketch:type="MSPage">
	<g id="famous_game" transform="translate(-821.000000, -597.000000)" sketch:type="MSArtboardGroup">
		<g id="awards-white-horizontal" transform="translate(472.000000, 595.000000)" sketch:type="MSLayerGroup">
			<g id="award-_x23_3:-eurogamer" transform="translate(349.634855, 2.064516)">
				<g id="laurel" sketch:type="MSShapeGroup">
					<g id="right-branch" transform="translate(109.305849, 0.000000)">
						<g id="Fill-1">
							<path class="st0" d="M-206.4,100.7c0,0,5.1,1.3,6.9,3.7c1.9,2.4,1.1,3.6,1.1,3.6s-3.1,0.3-5.3-2.1
								C-205.8,103.5-206.4,100.7-206.4,100.7"/>
						</g>
						<g id="Fill-2">
							<path class="st0" d="M-195.8,101.4c0,0,4.6,4,4.6,8.8c0,3.3-1.2,3.4-1.2,3.4s-2.9-1.6-3.4-5S-195.8,101.4-195.8,101.4"/>
						</g>
						<g id="Fill-3">
							<path class="st0" d="M-194,113.1c0,0-1.7-2.8-4.7-2.8c-3,0-3,0.6-4.5,0.6c0.7,1.4,3,3.5,4.9,3.5
								C-194.7,114.4-194,113.1-194,113.1"/>
						</g>
						<g id="Fill-4">
							<path class="st0" d="M-187.9,109.5c0,0,2.3,4,2.3,9c0,3.5-1.6,4.3-1.6,4.3s-2.3-1.9-2.3-7.2
								C-189.6,110.2-187.9,109.5-187.9,109.5"/>
						</g>
						<g id="Fill-5">
							<path class="st0" d="M-189.1,120.7c0,0,0-1.5-1.6-3.1c-1.6-1.6-7.6-1.3-7.6-1.3s2.3,4,5.2,4.5
								C-190.2,121.4-189.1,120.7-189.1,120.7"/>
						</g>
						<g id="Fill-6">
							<path class="st0" d="M-182,119.2c0,0,1,2.2,1,6.8c0,4.6-3,6.8-3,6.8s-1-0.1-1-6.8C-185.1,122.2-182,119.2-182,119.2"/>
						</g>
						<g id="Fill-7">
							<path class="st0" d="M-185.9,130.3c0,0,0.4-3-3.4-5.5c-3.8-2.4-5-2.1-5-2.1s1.6,5.9,5.1,7.2
								C-185.7,131.2-185.9,130.3-185.9,130.3"/>
						</g>
						<g id="Fill-8">
							<path class="st0" d="M-177.7,130.6c0,0-3.5,2.9-4.5,5.6c-0.5,1.3-0.8,4.1-0.9,7.2c0,0.9,3.8-2.4,4.5-4.8
								C-178.4,137.9-177.2,135.7-177.7,130.6"/>
						</g>
						<g id="Fill-9">
							<path class="st0" d="M-190.9,130.9c0,0-1,5.3,2.7,8.4c2,1.7,4,2.5,4,2.5s0.7-4-2.3-7C-188.5,132.8-189.7,131.5-190.9,130.9"
								/>
						</g>
						<g id="Fill-10">
							<path class="st0" d="M-176,144.2c0,0-1.3,5.8-3.3,7.9c-2,2.2-4.1,2.5-4.5,2.4c-0.5-0.1-0.2-3.7,2.4-6.6
								C-178.9,144.9-176,144.2-176,144.2"/>
						</g>
						<g id="Fill-11">
							<path class="st0" d="M-189.6,140.1c0,0,3.9,4.9,4.3,6.2c0.4,1.3,1.2,3.8,0.3,6.4c-1.6,0-3.6-3.3-4-4.4
								C-189.3,147.3-190.6,144-189.6,140.1"/>
						</g>
						<g id="Fill-12">
							<path class="st0" d="M-190,150.2c0,0,2.3,5.3,2.7,8.8c0.3,2.7-1.7,4.9-1.7,4.9s-2.7-3.6-2.7-7.5
								C-191.7,152.5-190,150.2-190,150.2"/>
						</g>
						<g id="Fill-13">
							<path class="st0" d="M-178.3,158.7c0,0-1.1,3.6-4.5,6.2c-3.4,2.7-6,0.9-6,0.9s1.5-4.3,4.7-6
								C-180.8,158.2-178.3,158.7-178.3,158.7"/>
						</g>
						<g id="Fill-14">
							<path class="st0" d="M-192.8,158.6c0,0-3.3,4.2-3.3,7.8c0,3.6,1,5.4,1,5.4s3-1.3,3.1-6.3
								C-191.8,160.6-192.8,158.6-192.8,158.6"/>
						</g>
						<g id="Fill-15">
							<path class="st0" d="M-183.7,171.4c0,0-3-1.6-6.7-0.9c-3.7,0.7-5.2,3.5-5.2,3.5s1,1.9,4.2,1.8
								C-188,175.7-183.7,171.4-183.7,171.4"/>
						</g>
						<g id="Fill-16">
							<path class="st0" d="M-197.8,167c0,0-4.3,1.7-5.3,6c-1,4.3-0.3,4.8-0.3,4.8s3.3,0.1,4.6-4.8
								C-197.5,168.1-197.8,167-197.8,167"/>
						</g>
						<g id="Fill-17">
							<path class="st0" d="M-190.7,180.7c0,0-3.9-3.4-7.5-3.1c-3.6,0.3-4.8,2-4.8,2s0.8,3.3,5.1,3.3
								C-193.4,182.8-190.7,180.7-190.7,180.7"/>
						</g>
						<g id="Fill-18">
							<path class="st0" d="M-210.7,181.6c0,0,9.6,1.4,22-16.2c8.4-11.9,5.1-32.4,3.2-37.5c-0.3-0.7-1.9-5.8-4.7-10.2
								c-3.9-6.3-8.4-9.8-8.4-9.8s7.6,8.1,10.2,13.9c4.1,9.1,4.4,19.5,4.4,22.3c0,4.6-1.2,12.2-3.2,16.4
								c-8.7,18.4-23.2,20.2-23.2,20.2L-210.7,181.6"/>
						</g>
					</g>
					<g id="left-branch">
						<g id="Fill-19">
							<path class="st0" d="M-180.4,100.7c0,0-5.1,1.3-6.9,3.7c-1.9,2.4-1.1,3.6-1.1,3.6s3.1,0.3,5.3-2.1
								C-181,103.5-180.4,100.7-180.4,100.7"/>
						</g>
						<g id="Fill-20">
							<path class="st0" d="M-191,101.4c0,0-4.6,4-4.6,8.8c0,3.3,1.2,3.4,1.2,3.4s2.9-1.6,3.4-5C-190.5,105.1-191,101.4-191,101.4"
								/>
						</g>
						<g id="Fill-21">
							<path class="st0" d="M-192.8,113.1c0,0,1.7-2.8,4.7-2.8c3,0,3,0.6,4.5,0.6c-0.7,1.4-3,3.5-4.9,3.5
								C-192.1,114.4-192.8,113.1-192.8,113.1"/>
						</g>
						<g id="Fill-22">
							<path class="st0" d="M-198.9,109.5c0,0-2.3,4-2.3,9c0,3.5,1.6,4.3,1.6,4.3s2.3-1.9,2.3-7.2
								C-197.2,110.2-198.9,109.5-198.9,109.5"/>
						</g>
						<g id="Fill-23">
							<path class="st0" d="M-197.7,120.7c0,0,0-1.5,1.6-3.1c1.6-1.6,7.6-1.3,7.6-1.3s-2.3,4-5.2,4.5
								C-196.6,121.4-197.7,120.7-197.7,120.7"/>
						</g>
						<g id="Fill-24">
							<path class="st0" d="M-204.8,119.2c0,0-1,2.2-1,6.8c0,4.6,3,6.8,3,6.8s1-0.1,1-6.8C-201.7,122.2-204.8,119.2-204.8,119.2"/>
						</g>
						<g id="Fill-25">
							<path class="st0" d="M-200.9,130.3c0,0-0.4-3,3.4-5.5c3.8-2.4,5-2.1,5-2.1s-1.6,5.9-5.1,7.2
								C-201.1,131.2-200.9,130.3-200.9,130.3"/>
						</g>
						<g id="Fill-26">
							<path class="st0" d="M-209.1,130.6c0,0,3.5,2.9,4.5,5.6c0.5,1.3,0.8,4.1,0.9,7.2c0,0.9-3.8-2.4-4.5-4.8
								C-208.4,137.9-209.6,135.7-209.1,130.6"/>
						</g>
						<g id="Fill-27">
							<path class="st0" d="M-195.9,130.9c0,0,1,5.3-2.7,8.4c-2,1.7-4,2.5-4,2.5s-0.7-4,2.3-7C-198.3,132.8-197,131.5-195.9,130.9"
								/>
						</g>
						<g id="Fill-28">
							<path class="st0" d="M-210.8,144.2c0,0,1.3,5.8,3.3,7.9c2,2.2,4.1,2.5,4.5,2.4c0.5-0.1,0.2-3.7-2.4-6.6
								C-207.9,144.9-210.8,144.2-210.8,144.2"/>
						</g>
						<g id="Fill-29">
							<path class="st0" d="M-197.2,140.1c0,0-3.9,4.9-4.3,6.2c-0.4,1.3-1.2,3.8-0.3,6.4c1.6,0,3.6-3.3,4-4.4
								C-197.5,147.3-196.2,144-197.2,140.1"/>
						</g>
						<g id="Fill-30">
							<path class="st0" d="M-196.8,150.2c0,0-2.3,5.3-2.7,8.8c-0.3,2.7,1.7,4.9,1.7,4.9s2.7-3.6,2.7-7.5
								C-195.1,152.5-196.8,150.2-196.8,150.2"/>
						</g>
						<g id="Fill-31">
							<path class="st0" d="M-208.5,158.7c0,0,1.1,3.6,4.5,6.2c3.4,2.7,6,0.9,6,0.9s-1.5-4.3-4.7-6
								C-206,158.2-208.5,158.7-208.5,158.7"/>
						</g>
						<g id="Fill-32">
							<path class="st0" d="M-194,158.6c0,0,3.3,4.2,3.3,7.8c0,3.6-1,5.4-1,5.4s-3-1.3-3.1-6.3C-195,160.6-194,158.6-194,158.6"/>
						</g>
						<g id="Fill-33">
							<path class="st0" d="M-203.1,171.4c0,0,3-1.6,6.7-0.9c3.7,0.7,5.2,3.5,5.2,3.5s-1,1.9-4.2,1.8
								C-198.8,175.7-203.1,171.4-203.1,171.4"/>
						</g>
						<g id="Fill-34">
							<path class="st0" d="M-189,167c0,0,4.3,1.7,5.3,6c1,4.3,0.3,4.8,0.3,4.8s-3.3,0.1-4.6-4.8C-189.2,168.1-189,167-189,167"/>
						</g>
						<g id="Fill-35">
							<path class="st0" d="M-196.1,180.7c0,0,3.9-3.4,7.5-3.1c3.6,0.3,4.8,2,4.8,2s-0.8,3.3-5.1,3.3
								C-193.4,182.8-196.1,180.7-196.1,180.7"/>
						</g>
						<g id="Fill-36">
							<path class="st0" d="M-176.1,181.6c0,0-9.6,1.4-22-16.2c-8.4-11.9-5.1-32.4-3.2-37.5c0.3-0.7,1.9-5.8,4.7-10.2
								c3.9-6.3,8.4-9.8,8.4-9.8s-7.6,8.1-10.2,13.9c-4.1,9.1-4.4,19.5-4.4,22.3c0,4.6,1.2,12.2,3.2,16.4
								c8.7,18.4,23.2,20.2,23.2,20.2L-176.1,181.6"/>
						</g>
					</g>
				</g>
				<g id="_x23_1" transform="translate(27.842056, 45.580645)" sketch:alignment="middle" sketch:type="MSTextLayer" class="st1">
					<g class="st2">
						<path class="st0" d="M-197.3,108.8h-0.8v-6.1l-0.9,0.7l0-0.9l0.9-0.7h0.8V108.8z"/>
						<path class="st0" d="M-190.9,106.9c0,0.3-0.1,0.6-0.2,0.8c-0.1,0.2-0.2,0.4-0.4,0.6c-0.2,0.2-0.4,0.3-0.6,0.4
							c-0.2,0.1-0.5,0.1-0.7,0.1s-0.5,0-0.7-0.1c-0.2-0.1-0.4-0.2-0.6-0.4c-0.2-0.2-0.3-0.4-0.4-0.6c-0.1-0.2-0.2-0.5-0.2-0.8v-3.2
							c0-0.3,0.1-0.6,0.2-0.8c0.1-0.2,0.2-0.4,0.4-0.6c0.2-0.2,0.4-0.3,0.6-0.4c0.2-0.1,0.5-0.1,0.7-0.1s0.5,0,0.7,0.1
							c0.2,0.1,0.4,0.2,0.6,0.4c0.2,0.2,0.3,0.4,0.4,0.6c0.1,0.2,0.2,0.5,0.2,0.8V106.9z M-191.7,103.8c0-0.4-0.1-0.7-0.3-0.9
							c-0.2-0.2-0.5-0.3-0.8-0.3s-0.6,0.1-0.8,0.3c-0.2,0.2-0.3,0.5-0.3,0.9v3c0,0.4,0.1,0.7,0.3,0.9c0.2,0.2,0.5,0.3,0.8,0.3
							s0.6-0.1,0.8-0.3c0.2-0.2,0.3-0.5,0.3-0.9V103.8z"/>
						<path class="st0" d="M-185.9,106.9c0,0.3-0.1,0.6-0.2,0.8c-0.1,0.2-0.2,0.4-0.4,0.6c-0.2,0.2-0.4,0.3-0.6,0.4
							c-0.2,0.1-0.5,0.1-0.7,0.1s-0.5,0-0.7-0.1c-0.2-0.1-0.4-0.2-0.6-0.4c-0.2-0.2-0.3-0.4-0.4-0.6c-0.1-0.2-0.2-0.5-0.2-0.8v-3.2
							c0-0.3,0.1-0.6,0.2-0.8c0.1-0.2,0.2-0.4,0.4-0.6c0.2-0.2,0.4-0.3,0.6-0.4c0.2-0.1,0.5-0.1,0.7-0.1s0.5,0,0.7,0.1
							c0.2,0.1,0.4,0.2,0.6,0.4c0.2,0.2,0.3,0.4,0.4,0.6c0.1,0.2,0.2,0.5,0.2,0.8V106.9z M-186.7,103.8c0-0.4-0.1-0.7-0.3-0.9
							c-0.2-0.2-0.5-0.3-0.8-0.3s-0.6,0.1-0.8,0.3c-0.2,0.2-0.3,0.5-0.3,0.9v3c0,0.4,0.1,0.7,0.3,0.9c0.2,0.2,0.5,0.3,0.8,0.3
							s0.6-0.1,0.8-0.3c0.2-0.2,0.3-0.5,0.3-0.9V103.8z"/>
						<path class="st0" d="M-180.1,101.8c0.4,0,0.7,0.1,1,0.2c0.3,0.1,0.6,0.3,0.8,0.5c0.2,0.2,0.4,0.5,0.5,0.8s0.2,0.7,0.2,1v1.9
							c0,0.4-0.1,0.8-0.2,1.1c-0.1,0.3-0.3,0.6-0.5,0.8s-0.5,0.4-0.8,0.5c-0.3,0.1-0.6,0.2-1,0.2c-0.4,0-0.8-0.1-1.1-0.2
							c-0.3-0.1-0.6-0.3-0.8-0.6s-0.4-0.5-0.5-0.8s-0.1-0.6-0.1-1v-1.9c0-0.3,0-0.7,0.1-1s0.3-0.6,0.5-0.8c0.2-0.2,0.5-0.4,0.8-0.6
							C-180.9,101.9-180.5,101.8-180.1,101.8z M-180.1,102.6c-0.3,0-0.5,0-0.7,0.2c-0.2,0.1-0.4,0.2-0.5,0.4
							c-0.1,0.2-0.2,0.4-0.3,0.6c-0.1,0.2-0.1,0.4-0.1,0.7v1.9c0,0.2,0,0.5,0.1,0.7c0.1,0.2,0.2,0.4,0.3,0.6
							c0.1,0.2,0.3,0.3,0.5,0.4c0.2,0.1,0.4,0.2,0.7,0.2c0.2,0,0.5,0,0.7-0.1c0.2-0.1,0.4-0.2,0.5-0.4c0.1-0.2,0.2-0.4,0.3-0.6
							c0.1-0.2,0.1-0.5,0.1-0.7v-1.9c0-0.2,0-0.5-0.1-0.7c-0.1-0.2-0.2-0.4-0.3-0.6c-0.1-0.2-0.3-0.3-0.5-0.4
							C-179.6,102.7-179.8,102.6-180.1,102.6z"/>
						<path class="st0" d="M-171.5,101.9v4.4c0,0.4-0.1,0.8-0.2,1.1c-0.1,0.3-0.3,0.6-0.5,0.8c-0.2,0.2-0.5,0.4-0.8,0.5
							c-0.3,0.1-0.6,0.2-1,0.2c-0.4,0-0.8-0.1-1.1-0.2c-0.3-0.1-0.6-0.3-0.8-0.6s-0.4-0.5-0.5-0.8s-0.1-0.6-0.1-1v-4.4h0.9v4.4
							c0,0.2,0,0.5,0.1,0.7s0.2,0.4,0.3,0.6c0.1,0.2,0.3,0.3,0.5,0.4c0.2,0.1,0.4,0.2,0.7,0.2c0.5,0,0.9-0.2,1.2-0.5
							c0.3-0.3,0.4-0.8,0.4-1.3v-4.4H-171.5z"/>
						<path class="st0" d="M-168.1,102.6v6.2h-0.9v-6.2h-2v-0.8h4.8v0.8H-168.1z"/>
						<path class="st0" d="M-160.9,101.8c0.4,0,0.7,0.1,1,0.2c0.3,0.1,0.6,0.3,0.8,0.5s0.4,0.5,0.5,0.8s0.2,0.7,0.2,1v1.9
							c0,0.4-0.1,0.8-0.2,1.1c-0.1,0.3-0.3,0.6-0.5,0.8s-0.5,0.4-0.8,0.5s-0.6,0.2-1,0.2c-0.4,0-0.8-0.1-1.1-0.2
							c-0.3-0.1-0.6-0.3-0.8-0.6c-0.2-0.2-0.4-0.5-0.5-0.8c-0.1-0.3-0.2-0.6-0.2-1v-1.9c0-0.3,0-0.7,0.2-1c0.1-0.3,0.3-0.6,0.5-0.8
							c0.2-0.2,0.5-0.4,0.8-0.6C-161.6,101.9-161.3,101.8-160.9,101.8z M-160.8,102.6c-0.3,0-0.5,0-0.7,0.2
							c-0.2,0.1-0.4,0.2-0.5,0.4c-0.1,0.2-0.2,0.4-0.3,0.6c-0.1,0.2-0.1,0.4-0.1,0.7v1.9c0,0.2,0,0.5,0.1,0.7
							c0.1,0.2,0.2,0.4,0.3,0.6c0.1,0.2,0.3,0.3,0.5,0.4s0.4,0.2,0.7,0.2c0.2,0,0.5,0,0.7-0.1c0.2-0.1,0.4-0.2,0.5-0.4
							c0.1-0.2,0.2-0.4,0.3-0.6c0.1-0.2,0.1-0.5,0.1-0.7v-1.9c0-0.2,0-0.5-0.1-0.7c-0.1-0.2-0.2-0.4-0.3-0.6s-0.3-0.3-0.5-0.4
							C-160.4,102.7-160.6,102.6-160.8,102.6z"/>
						<path class="st0" d="M-156.2,102.7v2.3h3v0.8h-3v3.1h-0.9v-7h4.4v0.8H-156.2z"/>
						<path class="st0" d="M-147.4,108.8h-0.8v-6.1l-0.9,0.7l0-0.9l0.9-0.7h0.8V108.8z"/>
						<path class="st0" d="M-141,106.9c0,0.3-0.1,0.6-0.2,0.8c-0.1,0.2-0.2,0.4-0.4,0.6c-0.2,0.2-0.4,0.3-0.6,0.4
							c-0.2,0.1-0.5,0.1-0.7,0.1c-0.3,0-0.5,0-0.7-0.1c-0.2-0.1-0.4-0.2-0.6-0.4c-0.2-0.2-0.3-0.4-0.4-0.6c-0.1-0.2-0.2-0.5-0.2-0.8
							v-3.2c0-0.3,0.1-0.6,0.2-0.8c0.1-0.2,0.2-0.4,0.4-0.6c0.2-0.2,0.4-0.3,0.6-0.4c0.2-0.1,0.5-0.1,0.7-0.1c0.3,0,0.5,0,0.7,0.1
							c0.2,0.1,0.4,0.2,0.6,0.4c0.2,0.2,0.3,0.4,0.4,0.6c0.1,0.2,0.2,0.5,0.2,0.8V106.9z M-141.8,103.8c0-0.4-0.1-0.7-0.3-0.9
							c-0.2-0.2-0.5-0.3-0.8-0.3s-0.6,0.1-0.8,0.3c-0.2,0.2-0.3,0.5-0.3,0.9v3c0,0.4,0.1,0.7,0.3,0.9c0.2,0.2,0.5,0.3,0.8,0.3
							s0.6-0.1,0.8-0.3c0.2-0.2,0.3-0.5,0.3-0.9V103.8z"/>
						<path class="st0" d="M-136,106.9c0,0.3-0.1,0.6-0.2,0.8c-0.1,0.2-0.2,0.4-0.4,0.6c-0.2,0.2-0.4,0.3-0.6,0.4
							c-0.2,0.1-0.5,0.1-0.7,0.1c-0.3,0-0.5,0-0.7-0.1c-0.2-0.1-0.4-0.2-0.6-0.4c-0.2-0.2-0.3-0.4-0.4-0.6c-0.1-0.2-0.2-0.5-0.2-0.8
							v-3.2c0-0.3,0.1-0.6,0.2-0.8c0.1-0.2,0.2-0.4,0.4-0.6c0.2-0.2,0.4-0.3,0.6-0.4c0.2-0.1,0.5-0.1,0.7-0.1c0.3,0,0.5,0,0.7,0.1
							c0.2,0.1,0.4,0.2,0.6,0.4c0.2,0.2,0.3,0.4,0.4,0.6c0.1,0.2,0.2,0.5,0.2,0.8V106.9z M-136.8,103.8c0-0.4-0.1-0.7-0.3-0.9
							c-0.2-0.2-0.5-0.3-0.8-0.3s-0.6,0.1-0.8,0.3c-0.2,0.2-0.3,0.5-0.3,0.9v3c0,0.4,0.1,0.7,0.3,0.9c0.2,0.2,0.5,0.3,0.8,0.3
							s0.6-0.1,0.8-0.3c0.2-0.2,0.3-0.5,0.3-0.9V103.8z"/>
						<path class="st0" d="M-134.8,106v-1.1h1v1.1H-134.8z M-134.8,108.8v-1.1h1v1.1H-134.8z"/>
					</g>
					<g>
					</g>
					<g class="st2">
						<path class="st0" d="M-197.5,120.9c0,0.3-0.1,0.6-0.2,0.8c-0.1,0.2-0.2,0.4-0.4,0.6c-0.2,0.2-0.4,0.3-0.6,0.4
							s-0.5,0.1-0.7,0.1h-2.9v-7h2.6c0.3,0,0.6,0,0.9,0.1c0.3,0.1,0.5,0.2,0.6,0.4s0.3,0.4,0.4,0.6c0.1,0.2,0.1,0.5,0.1,0.7
							c0,0.1,0,0.3-0.1,0.4s-0.1,0.3-0.2,0.4c-0.1,0.1-0.2,0.3-0.3,0.4c-0.1,0.1-0.3,0.2-0.5,0.3v0c0.2,0,0.4,0.1,0.5,0.2
							s0.3,0.2,0.4,0.4c0.1,0.2,0.2,0.3,0.2,0.5C-197.6,120.5-197.5,120.7-197.5,120.9z M-201.5,116.6v2.3h1.6c0.4,0,0.7-0.1,1-0.3
							c0.2-0.2,0.3-0.5,0.3-0.8c0-0.3-0.1-0.6-0.3-0.8c-0.2-0.2-0.5-0.3-1-0.3H-201.5z M-201.5,119.6v2.4h1.8c0.2,0,0.4,0,0.6-0.1
							c0.2-0.1,0.3-0.2,0.4-0.3c0.1-0.1,0.2-0.2,0.2-0.4c0.1-0.1,0.1-0.3,0.1-0.4s0-0.3-0.1-0.4c-0.1-0.1-0.1-0.3-0.2-0.4
							c-0.1-0.1-0.2-0.2-0.4-0.3c-0.2-0.1-0.4-0.1-0.6-0.1H-201.5z"/>
						<path class="st0" d="M-196.4,122.8v-7h4.4v0.8h-3.5v2.2h3v0.8h-3v2.3h3.5v0.8H-196.4z"/>
						<path class="st0" d="M-186.5,120.8c0,0.3-0.1,0.6-0.2,0.9s-0.3,0.5-0.5,0.6c-0.2,0.2-0.5,0.3-0.8,0.4c-0.3,0.1-0.6,0.1-1,0.1
							c-0.2,0-0.4,0-0.7-0.1s-0.5-0.1-0.7-0.2s-0.5-0.2-0.7-0.3c-0.2-0.1-0.4-0.3-0.6-0.4l0.6-0.7c0.3,0.3,0.6,0.5,1,0.6
							c0.4,0.1,0.8,0.2,1.2,0.2c0.2,0,0.4,0,0.6-0.1c0.2,0,0.4-0.1,0.5-0.2c0.1-0.1,0.2-0.2,0.3-0.4c0.1-0.2,0.1-0.3,0.1-0.5
							c0-0.2,0-0.4-0.1-0.5c-0.1-0.1-0.2-0.2-0.4-0.3c-0.1-0.1-0.3-0.2-0.5-0.2s-0.4-0.1-0.6-0.1c-0.3-0.1-0.5-0.1-0.8-0.2
							c-0.3-0.1-0.5-0.2-0.7-0.3c-0.2-0.1-0.4-0.3-0.5-0.5c-0.1-0.2-0.2-0.5-0.2-0.9c0-0.3,0.1-0.6,0.2-0.8c0.1-0.2,0.3-0.4,0.5-0.6
							c0.2-0.2,0.5-0.3,0.7-0.4c0.3-0.1,0.6-0.1,0.9-0.1c0.5,0,0.9,0.1,1.2,0.2c0.4,0.1,0.7,0.3,1,0.5l-0.5,0.8
							c-0.3-0.2-0.5-0.3-0.8-0.4c-0.3-0.1-0.6-0.2-0.9-0.2c-0.5,0-0.8,0.1-1.1,0.3s-0.4,0.5-0.4,0.8c0,0.2,0,0.3,0.1,0.5
							c0.1,0.1,0.2,0.2,0.4,0.3c0.2,0.1,0.4,0.2,0.6,0.2s0.5,0.1,0.8,0.2c0.2,0,0.4,0.1,0.7,0.2c0.2,0.1,0.4,0.2,0.6,0.3
							c0.2,0.1,0.3,0.3,0.5,0.5C-186.6,120.2-186.5,120.5-186.5,120.8z"/>
						<path class="st0" d="M-183.4,116.6v6.2h-0.9v-6.2h-2v-0.8h4.8v0.8H-183.4z"/>
						<path class="st0" d="M-177.5,116.7v2.3h3v0.8h-3v3.1h-0.9v-7h4.4v0.8H-177.5z"/>
						<path class="st0" d="M-169.4,122.8l-1.3-3.1h-1.6v3.1h-0.9v-7h2.8c0.3,0,0.5,0,0.8,0.1c0.2,0.1,0.5,0.2,0.6,0.4
							c0.2,0.2,0.3,0.4,0.4,0.6c0.1,0.2,0.2,0.5,0.2,0.8c0,0.5-0.1,0.9-0.4,1.2c-0.3,0.3-0.6,0.6-1.1,0.7l1.4,3.2H-169.4z
							 M-169.2,117.8c0-0.4-0.1-0.7-0.4-0.9c-0.2-0.2-0.6-0.3-0.9-0.3h-1.8v2.4h1.8c0.4,0,0.7-0.1,1-0.3
							C-169.3,118.5-169.2,118.2-169.2,117.8z"/>
						<path class="st0" d="M-163,122.8l-0.6-1.6h-2.9l-0.6,1.6h-0.9l2.5-7h0.8l2.5,7H-163z M-164.5,118.5l-0.5-1.5h0l-0.5,1.4
							l-0.7,2h2.4L-164.5,118.5z"/>
						<path class="st0" d="M-156.8,122.8l-2.5-3.9l-0.9-1.5l0,0v5.4h-0.9v-7h0.9l2.5,3.8l1,1.7l0,0v-5.4h0.9v7H-156.8z"/>
						<path class="st0" d="M-150,121.4c-0.2,0.5-0.5,0.8-0.9,1.1s-0.9,0.4-1.4,0.4c-0.4,0-0.8-0.1-1.1-0.2c-0.3-0.1-0.6-0.3-0.8-0.6
							s-0.4-0.5-0.5-0.8c-0.1-0.3-0.2-0.6-0.2-1v-1.9c0-0.3,0.1-0.7,0.2-1c0.1-0.3,0.3-0.6,0.5-0.8c0.2-0.2,0.5-0.4,0.8-0.6
							c0.3-0.1,0.7-0.2,1.1-0.2c0.6,0,1,0.1,1.4,0.4s0.7,0.6,0.8,1.1l-0.8,0.4c-0.1-0.3-0.3-0.5-0.5-0.7c-0.2-0.2-0.5-0.3-0.9-0.3
							c-0.3,0-0.5,0-0.7,0.2c-0.2,0.1-0.4,0.2-0.5,0.4c-0.1,0.2-0.2,0.4-0.3,0.6c-0.1,0.2-0.1,0.4-0.1,0.6v1.8c0,0.2,0,0.5,0.1,0.7
							c0.1,0.2,0.2,0.4,0.3,0.6c0.1,0.2,0.3,0.3,0.5,0.4c0.2,0.1,0.4,0.2,0.7,0.2c0.4,0,0.7-0.1,0.9-0.3c0.2-0.2,0.4-0.4,0.5-0.8
							L-150,121.4z"/>
						<path class="st0" d="M-145.1,122.8v-3.1h-3.1v3.1h-0.9v-7h0.9v3.1h3.1v-3.1h0.9v7H-145.1z"/>
						<path class="st0" d="M-142.7,122.8v-7h0.9v7H-142.7z"/>
						<path class="st0" d="M-135.9,120.8c0,0.3-0.1,0.6-0.2,0.9c-0.1,0.2-0.3,0.5-0.5,0.6c-0.2,0.2-0.5,0.3-0.8,0.4
							c-0.3,0.1-0.6,0.1-1,0.1c-0.2,0-0.4,0-0.7-0.1c-0.2,0-0.5-0.1-0.7-0.2c-0.2-0.1-0.5-0.2-0.7-0.3c-0.2-0.1-0.4-0.3-0.6-0.4
							l0.6-0.7c0.3,0.3,0.6,0.5,1,0.6c0.4,0.1,0.8,0.2,1.2,0.2c0.2,0,0.4,0,0.6-0.1c0.2,0,0.4-0.1,0.5-0.2c0.1-0.1,0.2-0.2,0.3-0.4
							c0.1-0.2,0.1-0.3,0.1-0.5c0-0.2,0-0.4-0.1-0.5c-0.1-0.1-0.2-0.2-0.4-0.3c-0.1-0.1-0.3-0.2-0.5-0.2s-0.4-0.1-0.6-0.1
							c-0.3-0.1-0.5-0.1-0.8-0.2c-0.3-0.1-0.5-0.2-0.7-0.3c-0.2-0.1-0.4-0.3-0.5-0.5c-0.1-0.2-0.2-0.5-0.2-0.9
							c0-0.3,0.1-0.6,0.2-0.8s0.3-0.4,0.5-0.6c0.2-0.2,0.5-0.3,0.7-0.4c0.3-0.1,0.6-0.1,0.9-0.1c0.5,0,0.9,0.1,1.2,0.2
							s0.7,0.3,1,0.5l-0.5,0.8c-0.3-0.2-0.5-0.3-0.8-0.4c-0.3-0.1-0.6-0.2-0.9-0.2c-0.5,0-0.8,0.1-1.1,0.3c-0.2,0.2-0.4,0.5-0.4,0.8
							c0,0.2,0,0.3,0.1,0.5c0.1,0.1,0.2,0.2,0.4,0.3s0.4,0.2,0.6,0.2c0.2,0.1,0.5,0.1,0.8,0.2c0.2,0,0.4,0.1,0.7,0.2
							c0.2,0.1,0.4,0.2,0.6,0.3s0.3,0.3,0.5,0.5S-135.9,120.5-135.9,120.8z"/>
						<path class="st0" d="M-134.9,122.8v-7h4.4v0.8h-3.5v2.2h3v0.8h-3v2.3h3.5v0.8H-134.9z"/>
					</g>
					<g>
					</g>
					<g class="st2">
						<path class="st0" d="M-188.5,129.8c0.4,0,0.7,0.1,1,0.2c0.3,0.1,0.6,0.3,0.8,0.5c0.2,0.2,0.4,0.5,0.5,0.8s0.2,0.7,0.2,1v1.9
							c0,0.4-0.1,0.8-0.2,1.1c-0.1,0.3-0.3,0.6-0.5,0.8s-0.5,0.4-0.8,0.5c-0.3,0.1-0.6,0.2-1,0.2c-0.4,0-0.8-0.1-1.1-0.2
							c-0.3-0.1-0.6-0.3-0.8-0.6s-0.4-0.5-0.5-0.8s-0.1-0.6-0.1-1v-1.9c0-0.3,0-0.7,0.1-1s0.3-0.6,0.5-0.8c0.2-0.2,0.5-0.4,0.8-0.6
							C-189.3,129.9-189,129.8-188.5,129.8z M-188.5,130.6c-0.3,0-0.5,0-0.7,0.2c-0.2,0.1-0.4,0.2-0.5,0.4c-0.1,0.2-0.2,0.4-0.3,0.6
							c-0.1,0.2-0.1,0.4-0.1,0.7v1.9c0,0.2,0,0.5,0.1,0.7c0.1,0.2,0.2,0.4,0.3,0.6c0.1,0.2,0.3,0.3,0.5,0.4c0.2,0.1,0.4,0.2,0.7,0.2
							c0.2,0,0.5,0,0.7-0.1c0.2-0.1,0.4-0.2,0.5-0.4c0.1-0.2,0.2-0.4,0.3-0.6c0.1-0.2,0.1-0.5,0.1-0.7v-1.9c0-0.2,0-0.5-0.1-0.7
							c-0.1-0.2-0.2-0.4-0.3-0.6c-0.1-0.2-0.3-0.3-0.5-0.4C-188.1,130.7-188.3,130.6-188.5,130.6z"/>
						<path class="st0" d="M-183.9,130.7v2.3h3v0.8h-3v3.1h-0.9v-7h4.4v0.8H-183.9z"/>
						<path class="st0" d="M-175.2,130.6v6.2h-0.9v-6.2h-2v-0.8h4.8v0.8H-175.2z"/>
						<path class="st0" d="M-168.5,136.8v-3.1h-3.1v3.1h-0.9v-7h0.9v3.1h3.1v-3.1h0.9v7H-168.5z"/>
						<path class="st0" d="M-166.1,136.8v-7h4.4v0.8h-3.5v2.2h3v0.8h-3v2.3h3.5v0.8H-166.1z"/>
						<path class="st0" d="M-158.4,136.8v-7h4.4v0.8h-3.5v2.2h3v0.8h-3v2.3h3.5v0.8H-158.4z"/>
						<path class="st0" d="M-149.2,136.8l-1.3-3.1h-1.6v3.1h-0.9v-7h2.8c0.3,0,0.5,0,0.8,0.1c0.2,0.1,0.5,0.2,0.6,0.4
							c0.2,0.2,0.3,0.4,0.4,0.6c0.1,0.2,0.2,0.5,0.2,0.8c0,0.5-0.1,0.9-0.4,1.2c-0.3,0.3-0.6,0.6-1.1,0.7l1.4,3.2H-149.2z
							 M-149,131.8c0-0.4-0.1-0.7-0.4-0.9c-0.2-0.2-0.6-0.3-0.9-0.3h-1.8v2.4h1.8c0.4,0,0.7-0.1,1-0.3
							C-149.2,132.5-149,132.2-149,131.8z"/>
						<path class="st0" d="M-142.8,136.8l-0.6-1.6h-2.9l-0.6,1.6h-0.9l2.5-7h0.8l2.5,7H-142.8z M-144.3,132.5l-0.5-1.5h0l-0.5,1.4
							l-0.7,2h2.4L-144.3,132.5z"/>
					</g>
				</g>
				<g id="Eurogamer_logo" transform="translate(31.007561, 20.645161)" sketch:type="MSShapeGroup">
					<g id="polygon15970">
						<path class="st0" d="M-210.9,101.9h7.3v1.6h-4.9v1.2h4.7v1.6h-4.7v1.6h5.1v1.8h-7.5V101.9L-210.9,101.9z"/>
					</g>
					<g id="path15972">
						<path class="st0" d="M-196.9,101.9h2.4v4.5c0,0.4-0.2,0.8-0.4,1.2c0,0.4-0.4,0.8-0.8,1.2c-0.2,0.2-0.6,0.4-1,0.6
							c-0.6,0.2-1.2,0.2-2,0.2h-1.4c-0.4,0-0.8-0.2-1.2-0.4c-0.4,0-0.6-0.4-1-0.6c-0.2-0.4-0.4-0.6-0.6-1c-0.2-0.4-0.2-0.8-0.2-1.2
							v-4.5h2.4v4.5c0,0.6,0.2,0.8,0.4,1c0.4,0.4,0.8,0.4,1.4,0.4c0.6,0,1.2,0,1.4-0.4c0.4-0.2,0.6-0.4,0.6-1V101.9L-196.9,101.9z"
							/>
					</g>
					<g id="path15974">
						<path class="st0" d="M-191.8,104.9h2.2h0.6c0.2,0,0.4-0.2,0.4-0.2c0.2-0.2,0.2-0.4,0.2-0.6c0-0.2,0-0.4-0.2-0.6
							c-0.2,0-0.6-0.2-1-0.2h-2.2V104.9L-191.8,104.9z M-194.1,109.6v-7.7h4.5c1,0,1.6,0,2,0.2c0.4,0,0.8,0.2,1,0.6
							c0.4,0.4,0.6,0.8,0.6,1.2c0,0.6-0.2,0.8-0.4,1.2c-0.2,0.4-0.6,0.6-0.8,0.8c-0.2,0-0.4,0.2-0.6,0.2c0.2,0.2,0.2,0.2,0.4,0.4
							c0,0,0.2,0.2,0.4,0.4c0.2,0.2,0.2,0.4,0.2,0.4c0.6,0.8,1.4,2.4,1.4,2.4h-2.6c0,0-1-1.6-1.4-2.4c-0.2-0.4-0.4-0.4-0.6-0.6
							c-0.2-0.2-0.8-0.2-1.2-0.2h-0.6v3.2H-194.1L-194.1,109.6z"/>
					</g>
					<g id="path15976">
						<path class="st0" d="M-169.1,106.7v-1.6h3.9v3.4c-0.8,0.4-1.4,0.8-2.2,1c-0.6,0.2-1.2,0.2-2.2,0.2c-1,0-1.8,0-2.6-0.4
							c-0.6-0.4-1-0.8-1.4-1.4c-0.4-0.6-0.6-1.4-0.6-2.2s0.2-1.6,0.6-2.2c0.4-0.6,1-1.2,1.8-1.4c0.6-0.2,1.4-0.4,2.4-0.4
							s1.6,0,2.2,0.2c0.4,0.2,0.8,0.4,1.2,0.8c0.4,0.2,0.6,0.6,0.8,1.2l-2.8,0.4c0-0.2-0.2-0.6-0.4-0.6c-0.4-0.2-0.6-0.4-1-0.4
							c-0.6,0-1.4,0.2-1.8,0.6c-0.4,0.4-0.6,1-0.6,1.8s0.2,1.4,0.6,1.8c0.4,0.4,1.4,0.6,2,0.6c0.4,0,0.6,0,1-0.2
							c0.2,0,0.6-0.2,1-0.4v-0.8H-169.1L-169.1,106.7z"/>
					</g>
					<g id="path15978">
						<path class="st0" d="M-159.4,106.7l-1.2-2.8l-1,2.8H-159.4L-159.4,106.7z M-158.8,108.2h-3.5l-0.4,1.4h-2.6l3.4-7.7h3l3.4,7.7
							h-2.6L-158.8,108.2L-158.8,108.2z"/>
					</g>
					<g id="polygon15980">
						<path class="st0" d="M-155.7,101.9h3.5l1.4,4.5l1.6-4.5h3.4v7.7h-2.2v-5.9l-1.8,5.9h-2l-1.8-5.9v5.9h-2.2V101.9L-155.7,101.9z
							"/>
					</g>
					<g id="path15982">
						<path class="st0" d="M-175.6,107.5c-0.2,0.2-0.4,0.2-0.6,0.4c-0.4,0-0.6,0-0.8-0.2v-0.4c0,0,0,0-0.2,0l0,0
							c0-0.2-0.4,0-0.4,0.2c-0.2,0.2,0.2,0.2,0.2,0.4h-0.4c-0.4,0-0.4-0.4-0.6-0.6c-0.2-0.2-0.6-0.2-0.8-0.4c0,0,0-0.2-0.2-0.2h-0.2
							c-0.2,0.2,0,0.2,0,0.4c0.2,0.2,0.6,0.4,0.8,0.4s0.2,0.2,0.4,0.2h-0.2h-0.2c0.2,0.2,0.2,0.4,0,0.4c0-0.4-0.6-0.6-1-0.6
							c0-0.2,0-0.2-0.2-0.4h-0.2c-0.2,0-0.4,0.2-0.6,0.2c-0.4,0.2-0.6,0.4-0.8,0.8c-0.2,0.2-0.2,0.4-0.4,0.4c-0.2,0.2-0.4,0.2-0.6,0
							h-0.4c-0.2-0.2-0.2-0.4-0.2-0.6c0,0,0-0.2,0.2-0.2c0-0.2-0.2-0.4,0-0.4c0-0.2,0.2-0.2,0.2-0.2c0.2,0.2,0.6,0.2,0.8,0.2
							c0.4-0.4,0-0.8-0.4-1.2c0.2,0,0.2,0.2,0.4,0.2c0-0.2,0-0.4,0.2-0.2c0.4,0,0.6-0.4,0.8-0.6h0.2v-0.2c0.2,0,0.4-0.2,0.4-0.2
							c0-0.2-0.2-0.4-0.2-0.4c0.2-0.2,0.2-0.4,0.2-0.2c0.2,0,0.2,0,0.2,0.2l0,0h0.2l0,0c0,0,0,0-0.2,0l0,0c-0.2,0,0,0.4,0.2,0.4
							c0,0,0-0.2,0.2-0.2c0,0,0,0,0.2,0.2c0-0.2,0.2-0.2,0.4-0.4c0,0,0.2,0.2,0.2,0s0-0.4,0.2-0.6h0.2c0,0,0,0,0-0.2h-0.2
							c0.2-0.2,0.4-0.4,0.6-0.4c0-0.2-0.2-0.2-0.2-0.2l-0.2,0.2h-0.6v-0.4c0-0.2,0.2-0.2,0.2-0.4c-0.2,0-0.2-0.2-0.2-0.2l0,0h-0.2
							c0.2,0.4-0.2,0.6-0.2,0.8c0,0.2,0.2,0.2,0.2,0.4c0,0.2-0.2,0.6-0.2,0.8l-0.2,0.2c-0.2-0.2-0.2-0.6-0.6-0.6c0,0-0.2,0-0.4,0.2
							c0-0.4-0.2-0.6-0.2-0.8c0.2-0.2,0.4-0.4,0.6-0.6c0-0.2,0.2-0.4,0.2-0.6c0,0,0,0,0-0.2c0,0,0.2,0,0.2-0.2l0,0
							c0.2-0.2,0.4-0.2,0.4-0.4h0.6l0,0h0.4c0.2,0,0.4,0.2,0.6,0.2c0,0.2,0,0.2-0.2,0.2c0,0-0.2,0-0.2,0.2c0.2,0,0.2,0.2,0.4,0.2
							l0,0c0.2,0,0.2-0.2,0.2-0.2s0,0,0-0.2l0,0c1.6,0.8,2.6,2.2,2.6,3.7C-175.2,106.5-175.4,107.1-175.6,107.5L-175.6,107.5
							L-175.6,107.5z M-177.4,108.2h0.4h0.2h-0.2H-177.4L-177.4,108.2z M-177.8,108l0.2-0.2c0,0.2,0.2,0.2,0.2,0.2
							c0,0.2-0.2,0.2-0.2,0C-177.6,108-177.6,108-177.8,108L-177.8,108L-177.8,108z M-179.3,108.2c0.2-0.2,0.2-0.2,0.4-0.2h0.2v0.4
							C-178.9,108.2-179.1,108.2-179.3,108.2L-179.3,108.2z M-179.9,107.3v0.2v0.2C-180.1,107.5-180.1,107.5-179.9,107.3
							L-179.9,107.3z M-179.9,107.7v0.4l-0.2-0.2v-0.2H-179.9L-179.9,107.7z M-180.1,110.2c-1.2,0-2.4-0.4-3.2-1
							c0.2,0,0.4-0.2,0.6-0.2c0-0.2,0-0.4,0.2-0.4c0.2,0.2,0.4,0.2,0.6,0.2c0.8-0.4,1.6-0.4,2.2-0.4c0.2,0.2,0.2,0.4,0,0.6
							c0.4,0.2,0.8,0.2,1.2,0.2l0.2,0.2h0.6c0-0.2,0.2-0.4,0.2-0.4c0.2-0.2,0.6,0,0.8,0C-177.6,109.8-178.8,110.2-180.1,110.2
							L-180.1,110.2z M-183.5,102.7l0.2-0.2l-0.2-0.2h0.2h0.2c0.2,0.2,0.2,0.2,0.4,0.2v0.2c-0.2,0.2-0.4,0.2-0.6,0.2
							C-183.3,102.9-183.3,102.7-183.5,102.7L-183.5,102.7z M-182.5,104.9v-0.2c0.2,0.2,0.2,0.2,0.2,0.4v0.2
							c-0.2,0.2-0.4,0.2-0.4,0.2s-0.2,0-0.2-0.2h0.2C-182.7,105.1-182.7,105.1-182.5,104.9L-182.5,104.9z M-182.1,104.3
							c0,0,0,0,0.2-0.2v0.2c0,0.2,0.2,0,0.2,0.2c0,0-0.2,0.2,0,0.2c0,0.2,0.2,0.4,0.2,0.4c0,0.2,0.2,0.2,0.2,0.4v0.2
							c-0.4,0-0.6,0.2-1,0.2c0.2,0,0.2-0.2,0.4-0.2c0,0-0.2,0-0.2-0.2l0,0v-0.2c0-0.2,0.2-0.2,0.2-0.2c-0.2-0.2-0.2-0.4-0.2-0.4
							C-182.3,104.5-182.1,104.5-182.1,104.3L-182.1,104.3z M-180.1,100.5c-3.4,0-5.9,2.4-5.9,5.3c0,2.8,2.6,5.1,5.9,5.1
							c3.2,0,5.7-2.4,5.7-5.1C-174.4,102.9-177,100.5-180.1,100.5L-180.1,100.5z"/>
					</g>
					<g id="polygon15984">
						<path class="st0" d="M-145,101.9h7.3v1.6h-5.1v1.2h4.7v1.6h-4.7v1.6h5.1v1.8h-7.3V101.9L-145,101.9z"/>
					</g>
					<g id="path15986">
						<path class="st0" d="M-135,104.9h2.2h0.6c0.2,0,0.4-0.2,0.6-0.2v-0.6c0-0.2,0-0.4-0.2-0.6c-0.2,0-0.6-0.2-1-0.2h-2.2V104.9
							L-135,104.9z M-137.2,109.6v-7.9h4.3c1,0,1.6,0.2,2,0.2c0.4,0.2,0.8,0.4,1.2,0.8c0.2,0.4,0.4,0.8,0.4,1.2
							c0,0.4-0.2,0.8-0.4,1.2c-0.2,0.2-0.4,0.6-0.8,0.8c-0.2,0-0.4,0.2-0.6,0.2c0.2,0.2,0.2,0.2,0.4,0.4c0,0,0.2,0.2,0.4,0.4
							c0.2,0.2,0.2,0.4,0.4,0.4c0.4,0.8,1.2,2.4,1.2,2.4h-2.6c0,0-1-1.6-1.4-2.4c-0.2-0.4-0.4-0.6-0.6-0.6c-0.2-0.2-0.8-0.2-1-0.2
							h-0.8v3.2H-137.2L-137.2,109.6z"/>
					</g>
				</g>
			</g>
		</g>
	</g>
</g>
</svg>
